<svg width="16" height="16" viewBox="0 0 16 16" fill="none" xmlns="http://www.w3.org/2000/svg">
<g clip-path="url(#clip0_1_94011)">
<path d="M1 16.0007C0.448667 16.0007 0 15.552 0 15.0007V2.334C0 1.78267 0.448667 1.334 1 1.334H3.33333V0.334005C3.33333 0.245599 3.36845 0.160815 3.43096 0.0983024C3.49348 0.0357903 3.57826 0.000671387 3.66667 0.000671387C3.75507 0.000671387 3.83986 0.0357903 3.90237 0.0983024C3.96488 0.160815 4 0.245599 4 0.334005V1.334H12V0.334005C12 0.245599 12.0351 0.160815 12.0976 0.0983024C12.1601 0.0357903 12.2449 0.000671387 12.3333 0.000671387C12.4217 0.000671387 12.5065 0.0357903 12.569 0.0983024C12.6315 0.160815 12.6667 0.245599 12.6667 0.334005V1.334H15C15.5513 1.334 16 1.78267 16 2.334V15.0007C16 15.552 15.5513 16.0007 15 16.0007H1ZM0.666667 15.0007C0.666667 15.0891 0.701786 15.1739 0.764298 15.2364C0.82681 15.2989 0.911595 15.334 1 15.334H15C15.0884 15.334 15.1732 15.2989 15.2357 15.2364C15.2982 15.1739 15.3333 15.0891 15.3333 15.0007V5.334H0.666667V15.0007ZM15.3333 4.66734V2.334C15.3333 2.2456 15.2982 2.16081 15.2357 2.0983C15.1732 2.03579 15.0884 2.00067 15 2.00067H12.6667V3.66734C12.6667 3.75574 12.6315 3.84053 12.569 3.90304C12.5065 3.96555 12.4217 4.00067 12.3333 4.00067C12.2449 4.00067 12.1601 3.96555 12.0976 3.90304C12.0351 3.84053 12 3.75574 12 3.66734V2.00067H4V3.66734C4 3.75574 3.96488 3.84053 3.90237 3.90304C3.83986 3.96555 3.75507 4.00067 3.66667 4.00067C3.57826 4.00067 3.49348 3.96555 3.43096 3.90304C3.36845 3.84053 3.33333 3.75574 3.33333 3.66734V2.00067H1C0.911595 2.00067 0.82681 2.03579 0.764298 2.0983C0.701786 2.16081 0.666667 2.2456 0.666667 2.334V4.66734H15.3333Z" fill="#5B5C60"/>
</g>
<defs>
<clipPath id="clip0_1_94011">
<rect width="16" height="16" fill="white"/>
</clipPath>
</defs>
</svg>
