<svg width="13" height="24" viewBox="0 0 13 24" fill="none" xmlns="http://www.w3.org/2000/svg">
<path d="M5.50101 24.0021C4.71041 24.0015 3.9338 23.7934 3.24874 23.3988C2.56369 23.0042 1.99415 22.4367 1.59701 21.7531C1.29998 21.2419 1.10727 20.6768 1.03003 20.0906C0.952785 19.5045 0.992547 18.9088 1.14701 18.3381C1.42797 17.2826 2.08481 16.3662 2.99401 15.7611V2.49707C2.99401 1.11807 4.11501 -0.00292969 5.49401 -0.00292969C6.87301 -0.00292969 7.99401 1.11807 7.99401 2.49707V15.7611C8.56763 16.1446 9.04557 16.6547 9.39101 17.2521C9.68793 17.7633 9.8805 18.3284 9.95757 18.9146C10.0346 19.5008 9.99468 20.0964 9.84001 20.6671C9.6885 21.2385 9.42514 21.7742 9.06519 22.2431C8.70524 22.7121 8.25584 23.105 7.74301 23.3991C7.06174 23.7938 6.28838 24.0018 5.50101 24.0021ZM5.49401 0.99707C4.66701 0.99707 3.99401 1.67007 3.99401 2.49707V16.0381C3.99381 16.1258 3.97062 16.2119 3.92676 16.2879C3.88289 16.3639 3.81988 16.427 3.74401 16.4711C3.34508 16.6997 2.99549 17.0053 2.71552 17.3701C2.43555 17.7349 2.23076 18.1516 2.11301 18.5961C1.99271 19.0399 1.9617 19.5032 2.02178 19.9592C2.08186 20.4151 2.23183 20.8545 2.46301 21.2521C2.77199 21.7838 3.21507 22.2252 3.74799 22.5321C4.28091 22.839 4.88503 23.0007 5.50001 23.0011C6.27046 23.001 7.01932 22.7465 7.63034 22.2772C8.24136 21.8079 8.68035 21.15 8.87914 20.4057C9.07794 19.6613 9.02543 18.8721 8.72977 18.1607C8.4341 17.4492 7.91182 16.8553 7.24401 16.4711C7.16814 16.427 7.10513 16.3639 7.06127 16.2879C7.01741 16.2119 6.99422 16.1258 6.99401 16.0381V2.49707C6.99401 1.67007 6.32101 0.99707 5.49401 0.99707Z" fill="#B8BAC2"/>
<path d="M5.49414 20.9971C4.66714 20.9971 3.99414 20.3241 3.99414 19.4971C3.99414 18.8571 4.40414 18.2921 4.99414 18.0831V7.49707C4.99414 7.36446 5.04682 7.23728 5.14059 7.14352C5.23436 7.04975 5.36153 6.99707 5.49414 6.99707C5.62675 6.99707 5.75393 7.04975 5.84769 7.14352C5.94146 7.23728 5.99414 7.36446 5.99414 7.49707V18.0831C6.32643 18.2021 6.60613 18.4345 6.78408 18.7394C6.96204 19.0442 7.02686 19.402 6.96717 19.7499C6.90747 20.0978 6.72708 20.4136 6.45768 20.6416C6.18828 20.8697 5.84712 20.9956 5.49414 20.9971ZM5.49414 18.9971C5.36153 18.9971 5.23436 19.0497 5.14059 19.1435C5.04682 19.2373 4.99414 19.3645 4.99414 19.4971C4.99414 19.6297 5.04682 19.7569 5.14059 19.8506C5.23436 19.9444 5.36153 19.9971 5.49414 19.9971C5.62675 19.9971 5.75393 19.9444 5.84769 19.8506C5.94146 19.7569 5.99414 19.6297 5.99414 19.4971C5.99414 19.3645 5.94146 19.2373 5.84769 19.1435C5.75393 19.0497 5.62675 18.9971 5.49414 18.9971Z" fill="#B8BAC2"/>
<path d="M9.49414 2.99707C9.36153 2.99707 9.23436 2.94439 9.14059 2.85062C9.04682 2.75686 8.99414 2.62968 8.99414 2.49707C8.99414 2.36446 9.04682 2.23729 9.14059 2.14352C9.23436 2.04975 9.36153 1.99707 9.49414 1.99707H10.4941C10.6267 1.99707 10.7539 2.04975 10.8477 2.14352C10.9415 2.23729 10.9941 2.36446 10.9941 2.49707C10.9941 2.62968 10.9415 2.75686 10.8477 2.85062C10.7539 2.94439 10.6267 2.99707 10.4941 2.99707H9.49414Z" fill="#B8BAC2"/>
<path d="M9.49414 7.99707C9.36153 7.99707 9.23436 7.94439 9.14059 7.85062C9.04682 7.75686 8.99414 7.62968 8.99414 7.49707C8.99414 7.36446 9.04682 7.23728 9.14059 7.14352C9.23436 7.04975 9.36153 6.99707 9.49414 6.99707H12.4941C12.6267 6.99707 12.7539 7.04975 12.8477 7.14352C12.9415 7.23728 12.9941 7.36446 12.9941 7.49707C12.9941 7.62968 12.9415 7.75686 12.8477 7.85062C12.7539 7.94439 12.6267 7.99707 12.4941 7.99707H9.49414Z" fill="#B8BAC2"/>
<path d="M9.49414 12.9971C9.36153 12.9971 9.23436 12.9444 9.14059 12.8506C9.04682 12.7569 8.99414 12.6297 8.99414 12.4971C8.99414 12.3645 9.04682 12.2373 9.14059 12.1435C9.23436 12.0497 9.36153 11.9971 9.49414 11.9971H10.4941C10.6267 11.9971 10.7539 12.0497 10.8477 12.1435C10.9415 12.2373 10.9941 12.3645 10.9941 12.4971C10.9941 12.6297 10.9415 12.7569 10.8477 12.8506C10.7539 12.9444 10.6267 12.9971 10.4941 12.9971H9.49414Z" fill="#B8BAC2"/>
</svg>
