<svg width="24" height="21" viewBox="0 0 24 21" fill="none" xmlns="http://www.w3.org/2000/svg">
<path d="M19.812 17.6898C19.7792 17.6899 19.7466 17.6835 19.7162 17.671C19.6859 17.6585 19.6583 17.64 19.635 17.6168L19.281 17.2638C19.234 17.2168 19.208 17.1538 19.208 17.0868C19.208 17.0198 19.234 16.9568 19.281 16.9098C20.3057 15.8906 21.1181 14.6783 21.6712 13.343C22.2242 12.0077 22.507 10.5761 22.503 9.1308C22.5068 7.68571 22.224 6.25421 21.671 4.91913C21.1179 3.58406 20.3056 2.3719 19.281 1.3528C19.1873 1.25892 19.1347 1.13163 19.1348 0.998948C19.1349 0.866266 19.1877 0.739055 19.2815 0.645301C19.3754 0.551547 19.5027 0.49893 19.6354 0.499024C19.7681 0.499117 19.8953 0.551915 19.989 0.645801C21.107 1.75737 21.9933 3.07968 22.5966 4.53615C23.2 5.99262 23.5084 7.55431 23.504 9.1308C23.504 12.3358 22.256 15.3498 19.989 17.6158C19.9659 17.6393 19.9384 17.6579 19.908 17.6706C19.8776 17.6833 19.845 17.6898 19.812 17.6898Z" fill="#B8BAC2"/>
<path d="M16.8031 14.9338C16.7041 14.934 16.6073 14.9048 16.5249 14.8498C16.4425 14.7949 16.3783 14.7168 16.3404 14.6253C16.3024 14.5338 16.2925 14.4331 16.3119 14.336C16.3313 14.2389 16.379 14.1498 16.4491 14.0798C17.1012 13.4313 17.6181 12.6599 17.97 11.8102C18.3219 10.9605 18.5017 10.0495 18.4991 9.12983C18.4991 7.25983 17.7711 5.50183 16.4491 4.17983C16.4027 4.13334 16.3658 4.07815 16.3406 4.01741C16.3155 3.95667 16.3025 3.89157 16.3025 3.82583C16.3025 3.76008 16.3155 3.69498 16.3406 3.63424C16.3658 3.5735 16.4027 3.51831 16.4491 3.47183C16.4956 3.42534 16.5508 3.38846 16.6116 3.3633C16.6723 3.33814 16.7374 3.3252 16.8031 3.3252C16.8689 3.3252 16.934 3.33814 16.9947 3.3633C17.0555 3.38846 17.1107 3.42534 17.1571 3.47183C17.9023 4.21301 18.4931 5.09462 18.8953 6.06565C19.2974 7.03667 19.503 8.07782 19.5001 9.12883C19.503 10.1798 19.2974 11.221 18.8953 12.192C18.4931 13.163 17.9023 14.0446 17.1571 14.7858C17.111 14.8328 17.0559 14.8701 16.9951 14.8955C16.9343 14.9209 16.869 14.934 16.8031 14.9338Z" fill="#B8BAC2"/>
<path d="M4.3699 17.7636C4.29802 17.7637 4.22696 17.7482 4.16157 17.7184C4.09617 17.6885 4.03796 17.645 3.9909 17.5906C1.7459 15.3466 0.503901 12.3366 0.505901 9.12963C0.501717 7.55383 0.809843 5.99281 1.41247 4.53678C2.01511 3.08074 2.9003 1.75857 4.0169 0.646635C4.11266 0.564236 4.23601 0.521054 4.36225 0.525735C4.48849 0.530416 4.6083 0.582616 4.69769 0.67188C4.78708 0.761144 4.83945 0.880882 4.84431 1.00712C4.84917 1.13335 4.80616 1.25676 4.7239 1.35264C3.6992 2.37163 2.8868 3.58377 2.33374 4.91887C1.78068 6.25397 1.49795 7.68552 1.5019 9.13063C1.5019 12.0666 2.6449 14.8276 4.7199 16.9046C4.791 16.9742 4.83977 17.0634 4.85998 17.1609C4.88019 17.2583 4.87093 17.3595 4.83339 17.4517C4.79584 17.5438 4.73171 17.6227 4.64917 17.6783C4.56662 17.7338 4.4694 17.7635 4.3699 17.7636Z" fill="#B8BAC2"/>
<path d="M7.20183 14.9334C7.13613 14.9335 7.07105 14.9207 7.0103 14.8956C6.94956 14.8706 6.89435 14.8338 6.84784 14.7874C6.10325 14.046 5.51313 13.1642 5.11164 12.1932C4.71015 11.2222 4.50526 10.1812 4.50884 9.1304C4.50884 6.9914 5.33984 4.9824 6.84884 3.4734C6.89513 3.42675 6.9502 3.38972 7.01087 3.36445C7.07154 3.33918 7.13661 3.32617 7.20234 3.32617C7.26806 3.32617 7.33313 3.33918 7.3938 3.36445C7.45447 3.38972 7.50954 3.42675 7.55584 3.4734C7.60261 3.51962 7.63974 3.57467 7.66509 3.63535C7.69043 3.69603 7.70348 3.76114 7.70348 3.8269C7.70348 3.89266 7.69043 3.95777 7.66509 4.01845C7.63974 4.07913 7.60261 4.13417 7.55584 4.1804C6.90379 4.82894 6.38687 5.60038 6.03499 6.45005C5.6831 7.29972 5.50325 8.21075 5.50584 9.1304C5.50584 11.0004 6.23383 12.7584 7.55584 14.0804C7.6256 14.1504 7.67306 14.2395 7.69223 14.3364C7.7114 14.4333 7.70142 14.5338 7.66354 14.6251C7.62566 14.7163 7.56159 14.7943 7.47942 14.8492C7.39724 14.9041 7.30065 14.9334 7.20183 14.9334Z" fill="#B8BAC2"/>
<path d="M12.002 20.998C11.8693 20.998 11.7422 20.9454 11.6484 20.8516C11.5546 20.7578 11.502 20.6307 11.502 20.498V12.459C9.80195 12.214 8.50195 10.736 8.50195 8.99805C8.50195 7.06805 10.072 5.49805 12.002 5.49805C13.932 5.49805 15.502 7.06805 15.502 8.99805C15.502 10.736 14.202 12.214 12.502 12.459V20.498C12.502 20.6307 12.4493 20.7578 12.3555 20.8516C12.2617 20.9454 12.1346 20.998 12.002 20.998ZM12.002 6.49805C10.623 6.49805 9.50195 7.61905 9.50195 8.99805C9.50195 10.377 10.623 11.498 12.002 11.498C13.38 11.498 14.502 10.377 14.502 8.99805C14.502 7.61905 13.381 6.49805 12.002 6.49805Z" fill="#B8BAC2"/>
</svg>
