<svg width="24" height="24" viewBox="0 0 24 24" fill="none" xmlns="http://www.w3.org/2000/svg">
<path d="M2 6.22559V19.2256" stroke="#B8BAC2" stroke-linecap="round" stroke-linejoin="round"/>
<path d="M22 6.22559V19.2256" stroke="#B8BAC2" stroke-linecap="round" stroke-linejoin="round"/>
<path d="M5.5 16.2256H12V23.2256H5.5C5.36739 23.2256 5.24021 23.1729 5.14645 23.0791C5.05268 22.9854 5 22.8582 5 22.7256V16.7256C5 16.593 5.05268 16.4658 5.14645 16.372C5.24021 16.2783 5.36739 16.2256 5.5 16.2256V16.2256Z" stroke="#B8BAC2" stroke-linecap="round" stroke-linejoin="round"/>
<path d="M12 16.2256H18.5C18.6326 16.2256 18.7598 16.2783 18.8536 16.372C18.9473 16.4658 19 16.593 19 16.7256V22.7256C19 22.8582 18.9473 22.9854 18.8536 23.0791C18.7598 23.1729 18.6326 23.2256 18.5 23.2256H12V16.2256Z" stroke="#B8BAC2" stroke-linecap="round" stroke-linejoin="round"/>
<path d="M8.5 9.22559H14.5C14.6326 9.22559 14.7598 9.27826 14.8536 9.37203C14.9473 9.4658 15 9.59298 15 9.72559V16.2256H8V9.72559C8 9.59298 8.05268 9.4658 8.14645 9.37203C8.24021 9.27826 8.36739 9.22559 8.5 9.22559V9.22559Z" stroke="#B8BAC2" stroke-linecap="round" stroke-linejoin="round"/>
<path d="M10 9.22559H13V11.7256C13 11.8582 12.9473 11.9854 12.8536 12.0791C12.7598 12.1729 12.6326 12.2256 12.5 12.2256H10.5C10.3674 12.2256 10.2402 12.1729 10.1464 12.0791C10.0527 11.9854 10 11.8582 10 11.7256V9.22559Z" stroke="#B8BAC2" stroke-linecap="round" stroke-linejoin="round"/>
<path d="M7 16.2256H10V18.7256C10 18.8582 9.94732 18.9854 9.85355 19.0791C9.75979 19.1729 9.63261 19.2256 9.5 19.2256H7.5C7.36739 19.2256 7.24021 19.1729 7.14645 19.0791C7.05268 18.9854 7 18.8582 7 18.7256V16.2256Z" stroke="#B8BAC2" stroke-linecap="round" stroke-linejoin="round"/>
<path d="M14 16.2256H17V18.7256C17 18.8582 16.9473 18.9854 16.8536 19.0791C16.7598 19.1729 16.6326 19.2256 16.5 19.2256H14.5C14.3674 19.2256 14.2402 19.1729 14.1464 19.0791C14.0527 18.9854 14 18.8582 14 18.7256V16.2256Z" stroke="#B8BAC2" stroke-linecap="round" stroke-linejoin="round"/>
<path d="M22.5 6.2254C22.6326 6.2254 22.7598 6.17272 22.8536 6.07895C22.9473 5.98519 23 5.85801 23 5.7254V4.5864C23.0002 4.48133 22.9672 4.37889 22.9058 4.29363C22.8444 4.20836 22.7577 4.1446 22.658 4.1114L12.3 0.8224C12.1029 0.759721 11.8912 0.759721 11.694 0.8224L1.35402 4.1174C1.25079 4.14891 1.16052 4.21299 1.09672 4.30004C1.03291 4.3871 0.99899 4.49247 1.00002 4.6004V5.7254C1.00002 5.85801 1.0527 5.98519 1.14647 6.07895C1.24024 6.17272 1.36741 6.2254 1.50002 6.2254H22.5Z" stroke="#B8BAC2" stroke-linecap="round" stroke-linejoin="round"/>
</svg>
