<svg width="25" height="16" viewBox="0 0 25 16" fill="none" xmlns="http://www.w3.org/2000/svg">
<path d="M1.99609 16C1.44509 16 0.996094 15.552 0.996094 15V10C0.996094 9.448 1.44509 9 1.99609 9H3.99609C4.54709 9 4.99609 9.448 4.99609 10V15C4.99609 15.552 4.54709 16 3.99609 16H1.99609ZM1.99609 15H3.99609V10H1.99609V15Z" fill="#B8BAC2"/>
<path d="M6.99609 16C6.44509 16 5.99609 15.552 5.99609 15V7C5.99609 6.449 6.44509 6 6.99609 6H8.99609C9.54709 6 9.99609 6.449 9.99609 7V15C9.99609 15.552 9.54709 16 8.99609 16H6.99609ZM6.99609 15H8.99609V7H6.99609V15Z" fill="#B8BAC2"/>
<path d="M11.9961 16C11.4451 16 10.9961 15.552 10.9961 15V4C10.9961 3.449 11.4451 3 11.9961 3H13.9961C14.5481 3 14.9961 3.449 14.9961 4V15C14.9961 15.2652 14.8907 15.5196 14.7032 15.7071C14.5157 15.8946 14.2613 16 13.9961 16H11.9961ZM11.9961 15H13.9961V4H11.9961V15Z" fill="#B8BAC2"/>
<path d="M16.9961 16C16.7309 16 16.4765 15.8946 16.289 15.7071C16.1015 15.5196 15.9961 15.2652 15.9961 15V1C15.9961 0.449 16.4441 0 16.9961 0H18.9961C19.5481 0 19.9961 0.449 19.9961 1V15C19.9961 15.2652 19.8907 15.5196 19.7032 15.7071C19.5157 15.8946 19.2613 16 18.9961 16H16.9961ZM16.9961 15H18.9961V1H16.9961V15Z" fill="#B8BAC2"/>
<path d="M21.4961 16C21.3635 16 21.2363 15.9473 21.1425 15.8536C21.0488 15.7598 20.9961 15.6326 20.9961 15.5C20.9961 15.3674 21.0488 15.2402 21.1425 15.1464C21.2363 15.0527 21.3635 15 21.4961 15H24.4961C24.6287 15 24.7559 15.0527 24.8496 15.1464C24.9434 15.2402 24.9961 15.3674 24.9961 15.5C24.9961 15.6326 24.9434 15.7598 24.8496 15.8536C24.7559 15.9473 24.6287 16 24.4961 16H21.4961Z" fill="#B8BAC2"/>
</svg>
