<svg width="24" height="22" viewBox="0 0 24 22" fill="none" xmlns="http://www.w3.org/2000/svg">
<path d="M5.00195 18.5C4.45095 18.5 4.00195 18.052 4.00195 17.5V12.5C4.00195 11.948 4.45095 11.5 5.00195 11.5H12.002C12.2672 11.5 12.5215 11.6054 12.7091 11.7929C12.8966 11.9804 13.002 12.2348 13.002 12.5V17.5C13.002 17.7652 12.8966 18.0196 12.7091 18.2071C12.5215 18.3946 12.2672 18.5 12.002 18.5H5.00195ZM5.00195 17.5H12.002V12.5H5.00195V17.5Z" fill="#B8BAC2"/>
<path d="M3.50199 21.5C2.67499 21.5 2.00199 20.827 2.00199 20V9.17001C1.38843 8.89932 0.870002 8.45107 0.513533 7.88304C0.157065 7.31501 -0.0211041 6.65323 0.00199218 5.98301V5.00001C0.00270293 4.92383 0.0201119 4.84873 0.0529922 4.78001L1.77899 1.32901C1.90262 1.07925 2.09382 0.869163 2.33087 0.722622C2.56791 0.57608 2.84131 0.498956 3.11999 0.500011H20.884C21.1628 0.499048 21.4362 0.576322 21.6733 0.723046C21.9104 0.869771 22.1015 1.08006 22.225 1.33001L23.949 4.77701C23.955 4.78801 23.96 4.80301 23.965 4.81701L23.971 4.83301C23.9912 4.88638 24.0017 4.94294 24.002 5.00001V5.99601C24.022 6.66409 23.8424 7.32297 23.4862 7.8885C23.1299 8.45403 22.6132 8.90054 22.002 9.17101V20C22.002 20.827 21.329 21.5 20.502 21.5H3.50199ZM20.502 20.5C20.6346 20.5 20.7618 20.4473 20.8555 20.3536C20.9493 20.2598 21.002 20.1326 21.002 20V9.44101C20.919 9.45101 20.837 9.45701 20.759 9.46001L20.645 9.46201C19.8999 9.4634 19.1755 9.21677 18.586 8.76101C17.9026 9.62296 16.9304 10.2086 15.849 10.4099C14.7675 10.6111 13.6497 10.4144 12.702 9.85601C12.4528 9.70896 12.2184 9.53817 12.002 9.34601C11.1707 10.0848 10.0961 10.4911 8.98399 10.487C8.29778 10.4877 7.62036 10.3327 7.00269 10.0337C6.38503 9.73474 5.84321 9.2996 5.41799 8.76101C4.73077 9.29113 3.86462 9.53384 3.00199 9.43801V20C3.00199 20.1326 3.05467 20.2598 3.14844 20.3536C3.24221 20.4473 3.36938 20.5 3.50199 20.5H14.002V12.5C14.002 12.2348 14.1073 11.9804 14.2949 11.7929C14.4824 11.6054 14.7368 11.5 15.002 11.5H19.002C19.2672 11.5 19.5216 11.6054 19.7091 11.7929C19.8966 11.9804 20.002 12.2348 20.002 12.5V20.5H20.502ZM19.002 20.5V12.5H15.002V20.5H19.002ZM12.502 8.43801C12.8302 8.76925 13.2207 9.03235 13.6509 9.2122C14.0811 9.39206 14.5427 9.48511 15.009 9.48601C15.6052 9.48872 16.1924 9.34037 16.7157 9.05482C17.2391 8.76927 17.6816 8.35581 18.002 7.85301V5.50001H12.502V8.43801ZM6.00199 7.85501C6.32144 8.35504 6.76175 8.7665 7.28224 9.05139C7.80274 9.33628 8.38663 9.48541 8.97999 9.48501C9.92499 9.48501 10.839 9.10401 11.501 8.43701V5.50001H6.00199V7.85501ZM19.002 7.79501C19.445 8.22601 20.022 8.46201 20.637 8.46201C20.666 8.46201 20.694 8.46201 20.723 8.46001C21.3489 8.43759 21.9404 8.16778 22.3677 7.70978C22.7949 7.25178 23.0231 6.643 23.002 6.01701V5.50001H19.002V7.79501ZM1.00199 6.00001C0.988355 6.34941 1.0521 6.6975 1.18867 7.0194C1.32524 7.34129 1.53126 7.62902 1.79199 7.86201C2.22399 8.24601 2.77999 8.45801 3.35799 8.45801C3.97078 8.45722 4.55965 8.22009 5.00199 7.79601V5.50001H1.00199V6.00001ZM22.693 4.50001L21.331 1.77701C21.2898 1.69366 21.2261 1.62351 21.1471 1.57455C21.0681 1.52558 20.9769 1.49976 20.884 1.50001H18.143L18.893 4.50001H22.693ZM17.862 4.50001L17.112 1.50001H12.502V4.50001H17.862ZM11.502 4.50001V1.50001H6.89199L6.14199 4.50001H11.502ZM5.11199 4.50001L5.86199 1.50001H3.11999C3.02714 1.49967 2.93605 1.52534 2.85704 1.57412C2.77804 1.62291 2.71428 1.69284 2.67299 1.77601L1.31099 4.50001H5.11199Z" fill="#B8BAC2"/>
</svg>
