<svg width="24" height="20" viewBox="0 0 24 20" fill="none" xmlns="http://www.w3.org/2000/svg">
<path d="M7.30445 12.6317C7.16608 12.6317 7.03337 12.5763 6.93553 12.4776C6.83768 12.3789 6.78271 12.245 6.78271 12.1054C6.78271 11.9658 6.83768 11.832 6.93553 11.7333C7.03337 11.6346 7.16608 11.5791 7.30445 11.5791H16.6958C16.8341 11.5791 16.9668 11.6346 17.0647 11.7333C17.1625 11.832 17.2175 11.9658 17.2175 12.1054C17.2175 12.245 17.1625 12.3789 17.0647 12.4776C16.9668 12.5763 16.8341 12.6317 16.6958 12.6317H7.30445Z" fill="#B8BAC2"/>
<path d="M7.30445 14.7372C7.16608 14.7372 7.03337 14.6818 6.93553 14.583C6.83768 14.4843 6.78271 14.3505 6.78271 14.2109C6.78271 14.0713 6.83768 13.9374 6.93553 13.8387C7.03337 13.74 7.16608 13.6846 7.30445 13.6846H16.6958C16.8341 13.6846 16.9668 13.74 17.0647 13.8387C17.1625 13.9374 17.2175 14.0713 17.2175 14.2109C17.2175 14.3505 17.1625 14.4843 17.0647 14.583C16.9668 14.6818 16.8341 14.7372 16.6958 14.7372H7.30445Z" fill="#B8BAC2"/>
<path d="M7.30445 16.8417C7.16608 16.8417 7.03337 16.7862 6.93553 16.6875C6.83768 16.5888 6.78271 16.455 6.78271 16.3154C6.78271 16.1758 6.83768 16.0419 6.93553 15.9432C7.03337 15.8445 7.16608 15.7891 7.30445 15.7891H16.6958C16.8341 15.7891 16.9668 15.8445 17.0647 15.9432C17.1625 16.0419 17.2175 16.1758 17.2175 16.3154C17.2175 16.455 17.1625 16.5888 17.0647 16.6875C16.9668 16.7862 16.8341 16.8417 16.6958 16.8417H7.30445Z" fill="#B8BAC2"/>
<path d="M1.56522 20C0.702261 20 0 19.2916 0 18.4211V6.84211C0 6.77368 0.136695 0 12 0C16.9127 0 20.4209 1.12 22.4285 3.32842C23.9823 5.03895 24 6.76947 24 6.84211V18.4211C24 19.2916 23.2977 20 22.4348 20H1.56522ZM22.4348 18.9474C22.5732 18.9474 22.7059 18.8919 22.8037 18.7932C22.9016 18.6945 22.9565 18.5606 22.9565 18.4211V7.36842H1.04348V18.4211C1.04348 18.5606 1.09845 18.6945 1.19629 18.7932C1.29414 18.8919 1.42684 18.9474 1.56522 18.9474H4.17391V10C4.17391 9.86041 4.22888 9.72654 4.32673 9.62784C4.42457 9.52913 4.55728 9.47368 4.69565 9.47368H19.3043C19.4427 9.47368 19.5754 9.52913 19.6733 9.62784C19.7711 9.72654 19.8261 9.86041 19.8261 10V18.9474H22.4348ZM18.7826 18.9474V10.5263H5.21739V18.9474H18.7826ZM22.8897 6.31579C22.5736 4.76316 20.8821 1.05263 12 1.05263C3.11896 1.05263 1.42643 4.76316 1.11026 6.31579H22.8897Z" fill="#B8BAC2"/>
<path d="M10.4348 4.21083C10.2965 4.21083 10.1637 4.15538 10.0659 4.05668C9.96805 3.95798 9.91309 3.82411 9.91309 3.68452C9.91309 3.54493 9.96805 3.41106 10.0659 3.31236C10.1637 3.21365 10.2965 3.1582 10.4348 3.1582H13.5653C13.7036 3.1582 13.8363 3.21365 13.9342 3.31236C14.032 3.41106 14.087 3.54493 14.087 3.68452C14.087 3.82411 14.032 3.95798 13.9342 4.05668C13.8363 4.15538 13.7036 4.21083 13.5653 4.21083H10.4348Z" fill="#B8BAC2"/>
</svg>
