<svg width="16" height="16" viewBox="0 0 16 16" fill="none" xmlns="http://www.w3.org/2000/svg">
<path d="M5.66683 3.33201C5.57842 3.33201 5.49364 3.29689 5.43113 3.23438C5.36861 3.17187 5.3335 3.08708 5.3335 2.99868C5.3335 2.91027 5.36861 2.82549 5.43113 2.76298C5.49364 2.70046 5.57842 2.66534 5.66683 2.66534H15.6668C15.7552 2.66534 15.84 2.70046 15.9025 2.76298C15.965 2.82549 16.0002 2.91027 16.0002 2.99868C16.0002 3.08708 15.965 3.17187 15.9025 3.23438C15.84 3.29689 15.7552 3.33201 15.6668 3.33201H5.66683Z" fill="#5B5C60"/>
<path d="M5.66683 8.66539C5.57842 8.66539 5.49364 8.63027 5.43113 8.56775C5.36861 8.50524 5.3335 8.42046 5.3335 8.33205C5.3335 8.24365 5.36861 8.15886 5.43113 8.09635C5.49364 8.03384 5.57842 7.99872 5.66683 7.99872H15.6668C15.7552 7.99872 15.84 8.03384 15.9025 8.09635C15.965 8.15886 16.0002 8.24365 16.0002 8.33205C16.0002 8.42046 15.965 8.50524 15.9025 8.56775C15.84 8.63027 15.7552 8.66539 15.6668 8.66539H5.66683Z" fill="#5B5C60"/>
<path d="M5.66683 13.9987C5.57842 13.9987 5.49364 13.9636 5.43113 13.9011C5.36861 13.8386 5.3335 13.7538 5.3335 13.6654C5.3335 13.577 5.36861 13.4922 5.43113 13.4297C5.49364 13.3672 5.57842 13.332 5.66683 13.332H15.6668C15.7552 13.332 15.84 13.3672 15.9025 13.4297C15.965 13.4922 16.0002 13.577 16.0002 13.6654C16.0002 13.7538 15.965 13.8386 15.9025 13.9011C15.84 13.9636 15.7552 13.9987 15.6668 13.9987H5.66683Z" fill="#5B5C60"/>
<path d="M1 4.66536C0.448667 4.66536 0 4.2167 0 3.66536V2.33203C0 1.7807 0.448667 1.33203 1 1.33203H2.33333C2.88467 1.33203 3.33333 1.7807 3.33333 2.33203V3.66536C3.33333 4.2167 2.88467 4.66536 2.33333 4.66536H1ZM1 1.9987C0.911594 1.9987 0.82681 2.03382 0.764298 2.09633C0.701786 2.15884 0.666667 2.24363 0.666667 2.33203V3.66536C0.666667 3.75377 0.701786 3.83855 0.764298 3.90107C0.82681 3.96358 0.911594 3.9987 1 3.9987H2.33333C2.42174 3.9987 2.50652 3.96358 2.56904 3.90107C2.63155 3.83855 2.66667 3.75377 2.66667 3.66536V2.33203C2.66667 2.24363 2.63155 2.15884 2.56904 2.09633C2.50652 2.03382 2.42174 1.9987 2.33333 1.9987H1Z" fill="#5B5C60"/>
<path d="M1 9.99868C0.448667 9.99868 0 9.55001 0 8.99868V7.66534C0 7.11401 0.448667 6.66534 1 6.66534H2.33333C2.88467 6.66534 3.33333 7.11401 3.33333 7.66534V8.99868C3.33333 9.55001 2.88467 9.99868 2.33333 9.99868H1ZM1 7.33201C0.911594 7.33201 0.82681 7.36713 0.764298 7.42964C0.701786 7.49215 0.666667 7.57694 0.666667 7.66534V8.99868C0.666667 9.08708 0.701786 9.17187 0.764298 9.23438C0.82681 9.29689 0.911594 9.33201 1 9.33201H2.33333C2.42174 9.33201 2.50652 9.29689 2.56904 9.23438C2.63155 9.17187 2.66667 9.08708 2.66667 8.99868V7.66534C2.66667 7.57694 2.63155 7.49215 2.56904 7.42964C2.50652 7.36713 2.42174 7.33201 2.33333 7.33201H1Z" fill="#5B5C60"/>
<path d="M1 15.3321C0.448667 15.3321 0 14.8834 0 14.3321V12.9987C0 12.4474 0.448667 11.9987 1 11.9987H2.33333C2.88467 11.9987 3.33333 12.4474 3.33333 12.9987V14.3321C3.33333 14.8834 2.88467 15.3321 2.33333 15.3321H1ZM1 12.6654C0.911594 12.6654 0.82681 12.7005 0.764298 12.763C0.701786 12.8255 0.666667 12.9103 0.666667 12.9987V14.3321C0.666667 14.4205 0.701786 14.5052 0.764298 14.5678C0.82681 14.6303 0.911594 14.6654 1 14.6654H2.33333C2.42174 14.6654 2.50652 14.6303 2.56904 14.5678C2.63155 14.5052 2.66667 14.4205 2.66667 14.3321V12.9987C2.66667 12.9103 2.63155 12.8255 2.56904 12.763C2.50652 12.7005 2.42174 12.6654 2.33333 12.6654H1Z" fill="#5B5C60"/>
</svg>
