<svg width="21" height="24" viewBox="0 0 21 24" fill="none" xmlns="http://www.w3.org/2000/svg">
<path d="M6.5 19.645V22.445C6.50003 22.5794 6.46262 22.7111 6.39196 22.8254C6.32131 22.9397 6.22021 23.032 6.1 23.092C5.75843 23.2627 5.38183 23.3515 5 23.3515C4.61817 23.3515 4.24157 23.2627 3.9 23.092C3.77979 23.032 3.67869 22.9397 3.60804 22.8254C3.53738 22.7111 3.49997 22.5794 3.5 22.445V19.645" stroke="#005AFE" stroke-linecap="round" stroke-linejoin="round"/>
<path d="M17.5 19.645V22.445C17.5 22.5794 17.4626 22.7111 17.392 22.8254C17.3213 22.9397 17.2202 23.032 17.1 23.092C16.7584 23.2627 16.3818 23.3515 16 23.3515C15.6182 23.3515 15.2416 23.2627 14.9 23.092C14.7798 23.032 14.6787 22.9397 14.608 22.8254C14.5374 22.7111 14.5 22.5794 14.5 22.445V19.645" stroke="#005AFE" stroke-linecap="round" stroke-linejoin="round"/>
<path d="M6.5 19.645H14.5V21.645H6.5V19.645Z" stroke="#005AFE" stroke-linecap="round" stroke-linejoin="round"/>
<path d="M16.5 17.645H10.5V12.645H16C16.1326 12.645 16.2598 12.6977 16.3536 12.7915C16.4473 12.8852 16.5 13.0124 16.5 13.145V17.645Z" stroke="#005AFE" stroke-linecap="round" stroke-linejoin="round"/>
<path d="M4.5 2.64502H16.5" stroke="#005AFE" stroke-linecap="round" stroke-linejoin="round"/>
<path d="M4.5 4.64502H16.5" stroke="#005AFE" stroke-linecap="round" stroke-linejoin="round"/>
<path d="M2.5 17.645V1.64502C2.5 1.3798 2.60536 1.12545 2.79289 0.937913C2.98043 0.750376 3.23478 0.64502 3.5 0.64502H17.5C17.7652 0.64502 18.0196 0.750376 18.2071 0.937913C18.3946 1.12545 18.5 1.3798 18.5 1.64502V17.645" stroke="#005AFE" stroke-linecap="round" stroke-linejoin="round"/>
<path d="M13.5 12.645V14.645" stroke="#005AFE" stroke-linecap="round" stroke-linejoin="round"/>
<path d="M10.5 17.645H4.5V13.145C4.5 13.0124 4.55268 12.8852 4.64645 12.7915C4.74021 12.6977 4.86739 12.645 5 12.645H10.5V17.645Z" stroke="#005AFE" stroke-linecap="round" stroke-linejoin="round"/>
<path d="M7.5 12.645V14.645" stroke="#005AFE" stroke-linecap="round" stroke-linejoin="round"/>
<path d="M13.5 12.645H7.5V9.14502C7.5 9.01241 7.55268 8.88523 7.64645 8.79147C7.74021 8.6977 7.86739 8.64502 8 8.64502H13C13.1326 8.64502 13.2598 8.6977 13.3536 8.79147C13.4473 8.88523 13.5 9.01241 13.5 9.14502V12.645Z" stroke="#005AFE" stroke-linecap="round" stroke-linejoin="round"/>
<path d="M10.5 8.64502V10.645" stroke="#005AFE" stroke-linecap="round" stroke-linejoin="round"/>
<path d="M19.2761 19.092C19.1931 19.2581 19.0655 19.3978 18.9076 19.4955C18.7497 19.5931 18.5677 19.6449 18.3821 19.645H2.61807C2.4324 19.6449 2.25044 19.5931 2.09254 19.4955C1.93464 19.3978 1.80706 19.2581 1.72407 19.092L1.36207 18.369C1.32387 18.2928 1.3058 18.2081 1.30957 18.1229C1.31335 18.0377 1.33884 17.9549 1.38364 17.8823C1.42843 17.8098 1.49103 17.7499 1.56549 17.7084C1.63995 17.6668 1.7238 17.645 1.80907 17.645H19.1911C19.2763 17.645 19.3602 17.6668 19.4346 17.7084C19.5091 17.7499 19.5717 17.8098 19.6165 17.8823C19.6613 17.9549 19.6868 18.0377 19.6906 18.1229C19.6943 18.2081 19.6763 18.2928 19.6381 18.369L19.2761 19.092Z" stroke="#005AFE" stroke-linecap="round" stroke-linejoin="round"/>
</svg>
