<svg width="16" height="16" viewBox="0 0 16 16" fill="none" xmlns="http://www.w3.org/2000/svg">
<path d="M15.6667 15.9993C15.6229 15.9994 15.5795 15.9909 15.539 15.9742C15.4985 15.9574 15.4617 15.9329 15.4307 15.902L8 8.47066L0.569336 15.902C0.538387 15.933 0.501638 15.9576 0.461186 15.9744C0.420733 15.9912 0.37737 15.9998 0.333571 15.9998C0.289773 15.9999 0.246398 15.9913 0.205921 15.9746C0.165445 15.9578 0.128661 15.9333 0.097669 15.9023C0.0666771 15.8714 0.0420843 15.8346 0.0252948 15.7942C0.0085053 15.7537 -0.000152069 15.7104 -0.000183022 15.6666C-0.000213975 15.6228 0.00838209 15.5794 0.0251144 15.5389C0.0418467 15.4984 0.0663875 15.4617 0.0973357 15.4307L7.528 8L0.0980023 0.568664C0.0354113 0.506162 0.000212823 0.421355 0.000150311 0.3329C8.7799e-05 0.244445 0.0351663 0.159589 0.097669 0.0969976C0.160172 0.0344065 0.244979 -0.000791897 0.333433 -0.000854409C0.421888 -0.000916921 0.506745 0.0341616 0.569336 0.0966643L8 7.528L15.4313 0.097331C15.4623 0.066339 15.499 0.0417462 15.5395 0.0249567C15.5799 0.00816723 15.6233 -0.000490134 15.6671 -0.000521088C15.7109 -0.000552042 15.7543 0.00804402 15.7948 0.0247763C15.8352 0.0415086 15.872 0.0660494 15.903 0.0969976C15.934 0.127946 15.9586 0.164695 15.9754 0.205148C15.9922 0.2456 16.0008 0.288964 16.0009 0.332762C16.0009 0.37656 15.9923 0.419936 15.9756 0.460412C15.9588 0.500888 15.9343 0.537672 15.9033 0.568664L8.47134 7.99933L15.902 15.43C15.9487 15.4766 15.9805 15.536 15.9935 15.6006C16.0064 15.6653 15.9998 15.7324 15.9747 15.7933C15.9495 15.8543 15.9067 15.9064 15.8519 15.9431C15.7971 15.9797 15.7326 15.9993 15.6667 15.9993Z" fill="white"/>
</svg>
