<svg width="25" height="24" viewBox="0 0 25 24" fill="none" xmlns="http://www.w3.org/2000/svg">
<path d="M16.5 24C16.3674 24 16.2402 23.9474 16.1464 23.8536C16.0527 23.7598 16 23.6327 16 23.5V17.5C16 15.57 14.43 14 12.5 14C10.57 14 9 15.57 9 17.5V23.5C9 23.6327 8.94732 23.7598 8.85355 23.8536C8.75979 23.9474 8.63261 24 8.5 24H2C1.173 24 0.5 23.327 0.5 22.5V9.98704C0.5 9.52204 0.71 9.09204 1.076 8.80604L11.576 0.588043C11.839 0.382043 12.167 0.269043 12.5 0.269043C12.833 0.269043 13.161 0.382043 13.424 0.588043L23.924 8.80604C24.29 9.09204 24.5 9.52204 24.5 9.98604V22.5C24.5 23.327 23.827 24 23 24H16.5ZM23 23C23.1326 23 23.2598 22.9474 23.3536 22.8536C23.4473 22.7598 23.5 22.6327 23.5 22.5V9.98704C23.5002 9.91122 23.4829 9.83636 23.4497 9.76824C23.4164 9.70011 23.3679 9.64052 23.308 9.59404L12.808 1.37604C12.7205 1.3063 12.612 1.26823 12.5002 1.26805C12.3883 1.26787 12.2797 1.30558 12.192 1.37504L1.692 9.59304C1.63207 9.63972 1.5836 9.69949 1.55032 9.76779C1.51705 9.83608 1.49983 9.91108 1.5 9.98704V22.5C1.5 22.6327 1.55268 22.7598 1.64645 22.8536C1.74021 22.9474 1.86739 23 2 23H8V17.5C8 15.019 10.019 13 12.5 13C14.981 13 17 15.019 17 17.5V23H23Z" fill="#5B5C60"/>
</svg>
