<svg width="24" height="24" viewBox="0 0 24 24" fill="none" xmlns="http://www.w3.org/2000/svg">
<path d="M23.5 23.9991C23.4343 23.9992 23.3692 23.9863 23.3085 23.9613C23.2478 23.9362 23.1926 23.8995 23.146 23.8531L12 12.7061L0.854034 23.8531C0.807612 23.8995 0.752488 23.9364 0.691809 23.9616C0.63113 23.9868 0.566085 23.9998 0.500388 23.9998C0.43469 23.9999 0.369627 23.987 0.308913 23.9619C0.248198 23.9368 0.193022 23.9 0.146534 23.8536C0.100046 23.8071 0.0631569 23.752 0.0379727 23.6913C0.0127885 23.6307 -0.000197586 23.5656 -0.000244016 23.4999C-0.000290445 23.4342 0.0126037 23.3692 0.0377021 23.3084C0.0628005 23.2477 0.0996118 23.1925 0.146034 23.1461L11.292 12.0001L0.147034 0.853057C0.0531474 0.759303 0.000349752 0.632093 0.000255984 0.499411C0.000162216 0.366729 0.05278 0.239444 0.146534 0.145557C0.240288 0.0516708 0.367499 -0.00112681 0.50018 -0.00122058C0.632862 -0.00131435 0.760147 0.0513034 0.854034 0.145057L12 11.2921L23.147 0.146057C23.1935 0.0995695 23.2486 0.0626803 23.3093 0.0374961C23.3699 0.0123119 23.435 -0.000674165 23.5007 -0.000720596C23.5664 -0.000767027 23.6314 0.0121271 23.6922 0.0372255C23.7529 0.0623239 23.808 0.0991352 23.8545 0.145557C23.901 0.19198 23.9379 0.247104 23.9631 0.307783C23.9883 0.368461 24.0013 0.433506 24.0013 0.499204C24.0014 0.564901 23.9885 0.629965 23.9634 0.690679C23.9383 0.751393 23.9015 0.80657 23.855 0.853057L12.707 11.9991L23.853 23.1451C23.9231 23.2149 23.9708 23.304 23.9902 23.401C24.0096 23.498 23.9998 23.5986 23.962 23.6901C23.9242 23.7815 23.8601 23.8597 23.7779 23.9147C23.6957 23.9697 23.599 23.999 23.5 23.9991Z" fill="#5B5C60"/>
</svg>
