<svg width="24" height="24" viewBox="0 0 24 24" fill="none" xmlns="http://www.w3.org/2000/svg">
<path d="M18.392 0.0178909C18.4933 0.0180629 18.5922 0.0490357 18.6756 0.106705C18.7589 0.164374 18.8228 0.246015 18.8587 0.340805C18.8946 0.435595 18.9008 0.539056 18.8766 0.637474C18.8524 0.735892 18.7988 0.824619 18.723 0.891891L6.14796 12.0179L18.723 23.1429C18.8139 23.2329 18.867 23.3542 18.8713 23.4821C18.8756 23.61 18.8308 23.7346 18.7462 23.8305C18.6615 23.9265 18.5434 23.9863 18.416 23.9979C18.2886 24.0095 18.1615 23.9719 18.061 23.8929L5.48496 12.7669C5.37958 12.6729 5.29524 12.5577 5.23746 12.4288C5.17968 12.2999 5.14977 12.1603 5.14967 12.0191C5.14958 11.8779 5.17931 11.7382 5.23691 11.6093C5.29452 11.4804 5.37871 11.365 5.48396 11.2709L18.061 0.142891C18.1524 0.0622743 18.2701 0.0178224 18.392 0.0178909Z" fill="#5B5C60"/>
</svg>
