<svg width="24" height="24" viewBox="0 0 24 24" fill="none" xmlns="http://www.w3.org/2000/svg">
<path d="M16.5039 12.5H6.50391C6.22776 12.5 6.00391 12.7239 6.00391 13V20C6.00391 20.2761 6.22776 20.5 6.50391 20.5H16.5039C16.78 20.5 17.0039 20.2761 17.0039 20V13C17.0039 12.7239 16.78 12.5 16.5039 12.5Z" stroke="#5B5C60" stroke-linecap="round" stroke-linejoin="round"/>
<path d="M6.00391 14.5H17.0039" stroke="#5B5C60" stroke-linecap="round" stroke-linejoin="round"/>
<path d="M9.00391 12.5V20.5" stroke="#5B5C60" stroke-linecap="round" stroke-linejoin="round"/>
<path d="M12.0039 12.5V20.5" stroke="#5B5C60" stroke-linecap="round" stroke-linejoin="round"/>
<path d="M20 22.5C20 22.7652 19.8946 23.0196 19.7071 23.2071C19.5196 23.3946 19.2652 23.5 19 23.5H4C3.73478 23.5 3.48043 23.3946 3.29289 23.2071C3.10536 23.0196 3 22.7652 3 22.5V1.5C3 1.23478 3.10536 0.98043 3.29289 0.792893C3.48043 0.605357 3.73478 0.5 4 0.5H13L20 7.5V22.5Z" stroke="#5B5C60" stroke-linecap="round" stroke-linejoin="round"/>
<path d="M13 0.5V6.5C13 6.76522 13.1054 7.01957 13.2929 7.20711C13.4804 7.39464 13.7348 7.5 14 7.5H20" stroke="#5B5C60" stroke-linecap="round" stroke-linejoin="round"/>
<path d="M8.00391 8.5V9.5" stroke="#5B5C60" stroke-linecap="round" stroke-linejoin="round"/>
<path d="M8.00391 3.5V4.5" stroke="#5B5C60" stroke-linecap="round" stroke-linejoin="round"/>
<path d="M6 8.5H9C9.26522 8.5 9.51957 8.39464 9.70711 8.20711C9.89464 8.01957 10 7.76522 10 7.5C10 7.23478 9.89464 6.98043 9.70711 6.79289C9.51957 6.60536 9.26522 6.5 9 6.5H7C6.73478 6.5 6.48043 6.39464 6.29289 6.20711C6.10536 6.01957 6 5.76522 6 5.5C6 5.23478 6.10536 4.98043 6.29289 4.79289C6.48043 4.60536 6.73478 4.5 7 4.5H10" stroke="#5B5C60" stroke-linecap="round" stroke-linejoin="round"/>
</svg>
