<svg width="10" height="16" viewBox="0 0 10 16" fill="none" xmlns="http://www.w3.org/2000/svg">
<path d="M0.765873 16C0.6983 15.9999 0.632358 15.9793 0.576788 15.9408C0.521218 15.9024 0.478644 15.848 0.454712 15.7848C0.430779 15.7216 0.426618 15.6526 0.44278 15.587C0.458941 15.5214 0.494662 15.4622 0.545206 15.4174L8.92854 8.00004L0.545206 0.583369C0.484584 0.523378 0.449209 0.442468 0.446332 0.357229C0.443455 0.27199 0.473296 0.18888 0.529735 0.124938C0.586175 0.060996 0.664937 0.0210672 0.749873 0.013338C0.83481 0.00560889 0.919486 0.0306649 0.98654 0.0833691L9.37054 7.5007C9.44079 7.56338 9.49702 7.64018 9.53554 7.72609C9.57406 7.812 9.594 7.90507 9.59407 7.99922C9.59413 8.09337 9.57431 8.18647 9.5359 8.27243C9.4975 8.35839 9.44138 8.43527 9.37121 8.49803L0.98654 15.9167C0.925599 15.9704 0.847127 16.0001 0.765873 16Z" fill="#5B5C60"/>
</svg>
