<svg width="24" height="22" viewBox="0 0 24 22" fill="none" xmlns="http://www.w3.org/2000/svg">
<path d="M3.50004 21.5C2.67304 21.5 2.00004 20.827 2.00004 20V9.17001C1.38648 8.89932 0.868048 8.45107 0.51158 7.88304C0.155112 7.31501 -0.0230572 6.65323 3.90515e-05 5.98301V5.00001C0.000749802 4.92383 0.0181587 4.84873 0.0510391 4.78001L1.77704 1.32901C1.90067 1.07925 2.09187 0.869163 2.32891 0.722622C2.56596 0.57608 2.83936 0.498956 3.11804 0.500011H20.882C21.1608 0.499048 21.4343 0.576322 21.6714 0.723046C21.9084 0.869771 22.0995 1.08006 22.223 1.33001L23.947 4.77701C23.953 4.78801 23.958 4.80301 23.963 4.81701L23.969 4.83301C23.9893 4.88638 23.9998 4.94294 24 5.00001V5.99601C24.02 6.66409 23.8404 7.32297 23.4842 7.8885C23.128 8.45403 22.6112 8.90054 22 9.17101V20C22 20.827 21.327 21.5 20.5 21.5H3.50004ZM20.5 20.5C20.6326 20.5 20.7598 20.4473 20.8536 20.3536C20.9474 20.2598 21 20.1326 21 20V9.44101C20.917 9.45101 20.835 9.45701 20.757 9.46001L20.643 9.46201C19.8979 9.4634 19.1735 9.21677 18.584 8.76101C17.9006 9.62296 16.9285 10.2086 15.847 10.4099C14.7655 10.6111 13.6478 10.4144 12.7 9.85601C12.4508 9.70896 12.2164 9.53817 12 9.34601C11.1688 10.0848 10.0942 10.4911 8.98204 10.487C8.29583 10.4877 7.61841 10.3327 7.00074 10.0337C6.38308 9.73474 5.84125 9.2996 5.41604 8.76101C4.72881 9.29113 3.86266 9.53384 3.00004 9.43801V20C3.00004 20.1326 3.05272 20.2598 3.14649 20.3536C3.24025 20.4473 3.36743 20.5 3.50004 20.5H14V12.5C14 12.2348 14.1054 11.9804 14.2929 11.7929C14.4805 11.6054 14.7348 11.5 15 11.5H19C19.2653 11.5 19.5196 11.6054 19.7071 11.7929C19.8947 11.9804 20 12.2348 20 12.5V20.5H20.5ZM19 20.5V12.5H15V20.5H19ZM12.5 8.43801C12.8283 8.76925 13.2187 9.03235 13.649 9.2122C14.0792 9.39206 14.5407 9.48511 15.007 9.48601C15.6032 9.48872 16.1904 9.34037 16.7138 9.05482C17.2371 8.76927 17.6796 8.35581 18 7.85301V5.50001H12.5V8.43801ZM6.00004 7.85501C6.31949 8.35504 6.7598 8.7665 7.28029 9.05139C7.80078 9.33628 8.38468 9.48541 8.97804 9.48501C9.92304 9.48501 10.837 9.10401 11.499 8.43701V5.50001H6.00004V7.85501ZM19 7.79501C19.443 8.22601 20.02 8.46201 20.635 8.46201C20.664 8.46201 20.692 8.46201 20.721 8.46001C21.347 8.43759 21.9385 8.16778 22.3657 7.70978C22.793 7.25178 23.0211 6.643 23 6.01701V5.50001H19V7.79501ZM1.00004 6.00001C0.986402 6.34941 1.05015 6.6975 1.18672 7.0194C1.32329 7.34129 1.52931 7.62902 1.79004 7.86201C2.22204 8.24601 2.77804 8.45801 3.35604 8.45801C3.96883 8.45722 4.5577 8.22009 5.00004 7.79601V5.50001H1.00004V6.00001ZM22.691 4.50001L21.329 1.77701C21.2879 1.69366 21.2242 1.62351 21.1452 1.57455C21.0662 1.52558 20.975 1.49976 20.882 1.50001H18.141L18.891 4.50001H22.691ZM17.86 4.50001L17.11 1.50001H12.5V4.50001H17.86ZM11.5 4.50001V1.50001H6.89004L6.14004 4.50001H11.5ZM5.11004 4.50001L5.86004 1.50001H3.11804C3.02519 1.49967 2.9341 1.52534 2.85509 1.57412C2.77609 1.62291 2.71233 1.69284 2.67104 1.77601L1.30904 4.50001H5.11004Z" fill="#5B5C60"/>
</svg>
