<svg width="22" height="22" viewBox="0 0 22 22" fill="none" xmlns="http://www.w3.org/2000/svg">
<path d="M7.5 21.977C7.29121 21.9771 7.08764 21.9117 6.918 21.79L0.418004 17.147C0.288821 17.0541 0.183553 16.9319 0.110878 16.7903C0.0382033 16.6488 0.00020133 16.4921 4.38778e-06 16.333V1.56196C-0.000386998 1.4305 0.0254087 1.30027 0.0758863 1.17889C0.126364 1.0575 0.200512 0.947384 0.294004 0.854962C0.386474 0.761951 0.496504 0.688242 0.617702 0.638114C0.7389 0.587987 0.86885 0.562442 1 0.562962C1.211 0.562962 1.412 0.627962 1.582 0.749962L7.5 4.97696L13.918 0.393962C14.098 0.264384 14.3164 0.199214 14.538 0.208962C14.729 0.214962 14.92 0.278962 15.081 0.393962L21.581 5.03596C21.844 5.22396 22 5.52796 22 5.85096V10.593C22 10.7256 21.9473 10.8527 21.8536 10.9465C21.7598 11.0403 21.6326 11.093 21.5 11.093C21.3674 11.093 21.2402 11.0403 21.1465 10.9465C21.0527 10.8527 21 10.7256 21 10.593V5.84996L15 1.56396V10.591C15 10.7236 14.9473 10.8507 14.8536 10.9445C14.7598 11.0383 14.6326 11.091 14.5 11.091C14.3674 11.091 14.2402 11.0383 14.1465 10.9445C14.0527 10.8507 14 10.7236 14 10.591V1.56396L8 5.84896V20.62L13.209 16.899C13.2897 16.8428 13.3851 16.8115 13.4834 16.809C13.5816 16.8066 13.6785 16.833 13.7619 16.8851C13.8453 16.9372 13.9115 17.0126 13.9524 17.102C13.9933 17.1914 14.0071 17.2908 13.992 17.388C13.9814 17.4529 13.9579 17.515 13.9231 17.5708C13.8882 17.6266 13.8427 17.6749 13.789 17.713L8.082 21.79C7.91237 21.9117 7.7088 21.9771 7.5 21.977V21.977ZM1 16.333L7 20.619V5.84896L1 1.56296V16.333Z" fill="#5B5C60"/>
</svg>
