<svg width="24" height="24" viewBox="0 0 24 24" fill="none" xmlns="http://www.w3.org/2000/svg">
<path d="M16.4842 23.997C15.5562 23.997 14.6212 23.917 13.7032 23.76C13.666 23.7577 13.6291 23.7513 13.5932 23.741C7.97924 22.739 3.34824 19 1.20424 13.737C-0.428758 9.75356 -0.428758 5.28749 1.20424 1.30403C1.41324 0.785025 1.81424 0.379025 2.33024 0.160025C2.58399 0.0518169 2.85669 -0.00496208 3.13254 -0.00702194C3.40839 -0.00908181 3.68191 0.0436184 3.93724 0.148025C4.19924 0.254025 4.43324 0.409025 4.63324 0.609025L9.28424 5.26003C9.89624 5.87203 10.2332 6.68503 10.2332 7.55003C10.2332 8.41503 9.89624 9.22903 9.28524 9.84003L8.21024 10.915C7.02724 12.096 5.78824 12.695 4.52624 12.695C3.54024 12.695 2.53624 12.328 1.53224 11.604C2.24494 14.1943 3.6185 16.555 5.51828 18.4546C7.41806 20.3542 9.77886 21.7276 12.3692 22.44C10.7062 20.14 10.9382 17.9 13.0662 15.773L14.1412 14.698C14.4414 14.3963 14.7985 14.1572 15.1917 13.9944C15.585 13.8317 16.0066 13.7486 16.4322 13.75C17.2982 13.75 18.1112 14.086 18.7222 14.697L23.3732 19.348C23.7692 19.744 23.9882 20.272 23.9882 20.833C23.9882 21.394 23.7702 21.921 23.3732 22.318C23.1747 22.5166 22.9384 22.6734 22.6782 22.779C20.7124 23.5839 18.6085 23.9976 16.4842 23.997ZM13.9742 22.792C16.7842 23.2573 19.6681 22.9326 22.3042 21.854C22.5078 21.7725 22.682 21.6316 22.8044 21.4497C22.9267 21.2678 22.9915 21.0533 22.9902 20.834C22.9902 20.54 22.8752 20.264 22.6672 20.056L18.0162 15.405C17.8086 15.1966 17.5617 15.0314 17.2898 14.9189C17.0179 14.8065 16.7265 14.7491 16.4322 14.75C15.8332 14.75 15.2712 14.983 14.8492 15.405L13.7742 16.48C11.7252 18.528 11.7882 20.535 13.9742 22.792ZM1.18124 9.99903C2.33724 11.121 3.46124 11.69 4.52324 11.69C5.53024 11.69 6.50524 11.205 7.50324 10.209L8.57824 9.13403C9.00124 8.71003 9.23424 8.14803 9.23424 7.55003C9.23424 6.95203 9.00124 6.39003 8.57824 5.96703L3.92724 1.31503C3.7199 1.11023 3.44067 0.994657 3.14924 0.993025C2.93022 0.993344 2.71628 1.05898 2.53476 1.18153C2.35324 1.30409 2.2124 1.478 2.13024 1.68103C1.05303 4.31316 0.724598 7.19189 1.18124 9.99903Z" fill="#5B5C60"/>
</svg>
