<svg width="24" height="24" viewBox="0 0 24 24" fill="none" xmlns="http://www.w3.org/2000/svg">
<path d="M1 2.11763C1.00009 1.94724 1.04372 1.7797 1.12674 1.6309C1.20977 1.48211 1.32944 1.35699 1.47439 1.26744C1.61935 1.17788 1.78479 1.12684 1.95501 1.11918C2.12522 1.11151 2.29458 1.14747 2.447 1.22363L22.211 11.1056C22.3769 11.1888 22.5164 11.3164 22.6138 11.4743C22.7113 11.6322 22.7629 11.8141 22.7629 11.9996C22.7629 12.1852 22.7113 12.3671 22.6138 12.525C22.5164 12.6828 22.3769 12.8105 22.211 12.8936L2.447 22.7756C2.29458 22.8518 2.12522 22.8877 1.95501 22.8801C1.78479 22.8724 1.61935 22.8214 1.47439 22.7318C1.32944 22.6423 1.20977 22.5172 1.12674 22.3684C1.04372 22.2196 1.00009 22.052 1 21.8816V2.11763Z" stroke="#5B5C60" stroke-linecap="round" stroke-linejoin="round"/>
</svg>
