<svg width="16" height="16" viewBox="0 0 16 16" fill="none" xmlns="http://www.w3.org/2000/svg">
<path d="M1 16.001C0.448667 16.001 0 15.5523 0 15.001V2.33431C0 1.78298 0.448667 1.33431 1 1.33431H3.33333V0.33431C3.33333 0.245904 3.36845 0.16112 3.43096 0.0986076C3.49348 0.0360955 3.57826 0.000976563 3.66667 0.000976562C3.75507 0.000976563 3.83986 0.0360955 3.90237 0.0986076C3.96488 0.16112 4 0.245904 4 0.33431V1.33431H12V0.33431C12 0.245904 12.0351 0.16112 12.0976 0.0986076C12.1601 0.0360955 12.2449 0.000976563 12.3333 0.000976562C12.4217 0.000976563 12.5065 0.0360955 12.569 0.0986076C12.6315 0.16112 12.6667 0.245904 12.6667 0.33431V1.33431H15C15.5513 1.33431 16 1.78298 16 2.33431V15.001C16 15.5523 15.5513 16.001 15 16.001H1ZM0.666667 15.001C0.666667 15.0894 0.701786 15.1742 0.764298 15.2367C0.82681 15.2992 0.911595 15.3343 1 15.3343H15C15.0884 15.3343 15.1732 15.2992 15.2357 15.2367C15.2982 15.1742 15.3333 15.0894 15.3333 15.001V5.33431H0.666667V15.001ZM15.3333 4.66764V2.33431C15.3333 2.2459 15.2982 2.16112 15.2357 2.09861C15.1732 2.0361 15.0884 2.00098 15 2.00098H12.6667V3.66764C12.6667 3.75605 12.6315 3.84083 12.569 3.90335C12.5065 3.96586 12.4217 4.00098 12.3333 4.00098C12.2449 4.00098 12.1601 3.96586 12.0976 3.90335C12.0351 3.84083 12 3.75605 12 3.66764V2.00098H4V3.66764C4 3.75605 3.96488 3.84083 3.90237 3.90335C3.83986 3.96586 3.75507 4.00098 3.66667 4.00098C3.57826 4.00098 3.49348 3.96586 3.43096 3.90335C3.36845 3.84083 3.33333 3.75605 3.33333 3.66764V2.00098H1C0.911595 2.00098 0.82681 2.0361 0.764298 2.09861C0.701786 2.16112 0.666667 2.2459 0.666667 2.33431V4.66764H15.3333Z" fill="#5B5C60"/>
</svg>
