<svg width="284" height="274" viewBox="0 0 284 274" fill="none" xmlns="http://www.w3.org/2000/svg">
<g clip-path="url(#clip0_1_36534)">
<path d="M180.2 61.5908H103.863C102.123 61.5928 100.456 62.2781 99.2257 63.4963C97.9956 64.7145 97.3036 66.3661 97.3015 68.0889V236.108L96.4267 236.373L77.7001 242.052C76.8126 242.32 75.854 242.228 75.0347 241.797C74.2154 241.366 73.6024 240.63 73.3303 239.752L17.6273 59.559C17.3562 58.6801 17.4486 57.7305 17.8842 56.919C18.3197 56.1075 19.0628 55.5004 19.9501 55.2313L48.8077 46.4805L132.467 21.1205L161.324 12.3697C161.763 12.2359 162.225 12.1891 162.682 12.2321C163.14 12.2751 163.584 12.407 163.99 12.6202C164.396 12.8335 164.755 13.1239 165.048 13.4749C165.34 13.8259 165.56 14.2306 165.694 14.6657L179.933 60.7243L180.2 61.5908Z" fill="#F2F2F2"/>
<path d="M196.859 60.7257L179.698 5.2145C179.413 4.28958 178.946 3.42944 178.325 2.68323C177.703 1.93702 176.94 1.31937 176.077 0.865564C175.215 0.411761 174.27 0.130698 173.298 0.0384469C172.326 -0.0538041 171.345 0.0445646 170.411 0.327922L129.839 12.6267L46.1847 37.991L5.61272 50.2941C3.72796 50.8672 2.14983 52.1575 1.22472 53.8818C0.299605 55.6061 0.103098 57.6234 0.678337 59.4911L59.3295 249.206C59.7968 250.713 60.7397 252.033 62.0198 252.971C63.2999 253.909 64.8499 254.415 66.4423 254.417C67.1793 254.417 67.9121 254.308 68.6162 254.092L96.4283 245.662L97.3031 245.393V244.488L96.4283 244.752L68.3582 253.265C66.6945 253.767 64.8977 253.595 63.3617 252.787C61.8258 251.979 60.6762 250.601 60.165 248.954L1.51839 59.2355C1.26515 58.4197 1.1769 57.5625 1.25866 56.7129C1.34043 55.8633 1.59061 55.038 1.9949 54.2843C2.39918 53.5306 2.94963 52.8633 3.6147 52.3206C4.27977 51.7778 5.04641 51.3704 5.87073 51.1215L46.4427 38.8184L130.098 13.4584L170.67 1.15536C171.295 0.96639 171.945 0.870041 172.599 0.869437C174.001 0.872557 175.367 1.32047 176.494 2.14758C177.621 2.97469 178.451 4.13753 178.863 5.46577L195.944 60.7257L196.216 61.5921H197.126L196.859 60.7257Z" fill="#3F3D56"/>
<path d="M54.0152 55.3729C53.1721 55.3723 52.3513 55.1042 51.6734 54.6078C50.9955 54.1114 50.496 53.4129 50.2483 52.6148L44.614 34.389C44.4626 33.8995 44.41 33.3851 44.4594 32.8754C44.5087 32.3658 44.6589 31.8707 44.9015 31.4185C45.144 30.9663 45.4742 30.5659 45.873 30.2401C46.2719 29.9143 46.7316 29.6695 47.226 29.5197L124.188 6.18549C125.186 5.88378 126.265 5.98668 127.186 6.47161C128.108 6.95654 128.798 7.78388 129.105 8.77204L134.739 26.9981C135.044 27.9868 134.94 29.0548 134.45 29.9677C133.96 30.8806 133.125 31.5639 132.127 31.8676L55.1654 55.2018C54.7927 55.3151 54.405 55.3728 54.0152 55.3729Z" fill="#6C63FF"/>
<path d="M83.5299 19.4747C88.3617 19.4747 92.2786 15.5956 92.2786 10.8105C92.2786 6.02543 88.3617 2.14636 83.5299 2.14636C78.6982 2.14636 74.7812 6.02543 74.7812 10.8105C74.7812 15.5956 78.6982 19.4747 83.5299 19.4747Z" fill="#6C63FF"/>
<path d="M83.5302 16.297C86.5898 16.297 89.0701 13.8406 89.0701 10.8106C89.0701 7.78051 86.5898 5.32416 83.5302 5.32416C80.4705 5.32416 77.9902 7.78051 77.9902 10.8106C77.9902 13.8406 80.4705 16.297 83.5302 16.297Z" fill="white"/>
<path d="M263.964 252.202H116.112C115.126 252.201 114.181 251.813 113.484 251.122C112.787 250.432 112.395 249.496 112.394 248.52V73.0708C112.395 72.0945 112.787 71.1585 113.484 70.4682C114.181 69.7779 115.126 69.3896 116.112 69.3885H263.964C264.95 69.3896 265.895 69.7779 266.592 70.4682C267.289 71.1586 267.681 72.0945 267.683 73.0708V248.52C267.681 249.496 267.289 250.432 266.592 251.122C265.895 251.813 264.95 252.201 263.964 252.202Z" fill="#E6E6E6"/>
<path d="M195.943 60.7244H103.863C101.892 60.7271 100.002 61.5039 98.6079 62.8844C97.2139 64.265 96.4295 66.1365 96.4268 68.0889V244.751L97.3016 244.487V68.0889C97.3037 66.3661 97.9957 64.7145 99.2258 63.4963C100.456 62.2782 102.124 61.5929 103.863 61.5908H196.214L195.943 60.7244ZM276.212 60.7244H103.863C101.892 60.7271 100.002 61.5039 98.6079 62.8844C97.2139 64.265 96.4295 66.1365 96.4268 68.0889V266.498C96.4295 268.45 97.2139 270.322 98.6079 271.702C100.002 273.083 101.892 273.86 103.863 273.862H276.212C278.183 273.86 280.073 273.083 281.467 271.702C282.861 270.322 283.646 268.45 283.648 266.498V68.0889C283.646 66.1365 282.861 64.265 281.467 62.8844C280.073 61.5039 278.183 60.7271 276.212 60.7244ZM282.774 266.498C282.771 268.221 282.079 269.872 280.849 271.09C279.619 272.309 277.952 272.994 276.212 272.996H103.863C102.124 272.994 100.456 272.309 99.2258 271.09C97.9957 269.872 97.3037 268.221 97.3016 266.498V68.0889C97.3037 66.3661 97.9957 64.7145 99.2258 63.4963C100.456 62.2782 102.124 61.5929 103.863 61.5908H276.212C277.952 61.5929 279.619 62.2782 280.849 63.4963C282.079 64.7145 282.771 66.3661 282.774 68.0889V266.498Z" fill="#3F3D56"/>
<path d="M230.282 79.7854H149.794C148.751 79.7843 147.75 79.3731 147.012 78.6422C146.274 77.9113 145.859 76.9202 145.857 75.8866V56.8254C145.859 55.7918 146.274 54.8007 147.012 54.0698C147.75 53.3389 148.751 52.9277 149.794 52.9266H230.282C231.326 52.9277 232.327 53.3389 233.065 54.0698C233.803 54.8007 234.218 55.7918 234.219 56.8254V75.8866C234.218 76.9202 233.803 77.9113 233.065 78.6422C232.327 79.3731 231.326 79.7843 230.282 79.7854Z" fill="#6C63FF"/>
<path d="M190.038 54.2262C194.87 54.2262 198.786 50.3472 198.786 45.5621C198.786 40.777 194.87 36.8979 190.038 36.8979C185.206 36.8979 181.289 40.777 181.289 45.5621C181.289 50.3472 185.206 54.2262 190.038 54.2262Z" fill="#6C63FF"/>
<path d="M190.038 50.8393C192.981 50.8393 195.367 48.4766 195.367 45.5621C195.367 42.6475 192.981 40.2848 190.038 40.2848C187.095 40.2848 184.709 42.6475 184.709 45.5621C184.709 48.4766 187.095 50.8393 190.038 50.8393Z" fill="white"/>
</g>
<defs>
<clipPath id="clip0_1_36534">
<rect width="283.298" height="273.862" fill="white" transform="translate(0.350586)"/>
</clipPath>
</defs>
</svg>
