<svg width="16" height="10" viewBox="0 0 16 10" fill="none" xmlns="http://www.w3.org/2000/svg">
<path d="M8.02719 9.57756C7.83653 9.57756 7.65453 9.49556 7.52786 9.35356L0.111862 0.970894C0.0533372 0.904678 0.0235139 0.817926 0.0289525 0.729721C0.034391 0.641517 0.074646 0.559085 0.140862 0.500561C0.207077 0.442036 0.29383 0.412213 0.382034 0.417652C0.470239 0.42309 0.552671 0.463345 0.611195 0.529561L8.02786 8.91156L15.4452 0.529561C15.5038 0.463385 15.5862 0.423138 15.6745 0.41764C15.7627 0.412141 15.8495 0.44184 15.9159 0.500227C15.9487 0.529243 15.9754 0.564436 15.9946 0.603796C16.0138 0.643156 16.0251 0.685912 16.0277 0.729621C16.0304 0.77333 16.0244 0.817135 16.0101 0.858534C15.9959 0.899933 15.9736 0.938113 15.9445 0.970894L8.52719 9.35356C8.46432 9.42399 8.38727 9.48035 8.30111 9.51895C8.21495 9.55755 8.12161 9.57752 8.02719 9.57756Z" fill="white"/>
</svg>
