<svg width="24" height="16" viewBox="0 0 24 16" fill="none" xmlns="http://www.w3.org/2000/svg">
<path d="M17.5 16C16.122 16 15 14.878 15 13.5C15 12.122 16.122 11 17.5 11C18.878 11 20 12.122 20 13.5C20 14.878 18.878 16 17.5 16ZM17.5 12C16.673 12 16 12.673 16 13.5C16 14.327 16.673 15 17.5 15C18.327 15 19 14.327 19 13.5C19 12.673 18.327 12 17.5 12Z" fill="#5B5C60"/>
<path d="M4.5 16C3.121 16 2 14.878 2 13.5C2 12.122 3.121 11 4.5 11C5.879 11 7 12.122 7 13.5C7 14.878 5.879 16 4.5 16ZM4.5 12C3.673 12 3 12.673 3 13.5C3 14.327 3.673 15 4.5 15C5.327 15 6 14.327 6 13.5C6 12.673 5.327 12 4.5 12Z" fill="#5B5C60"/>
<path d="M9 14C8.86739 14 8.74021 13.9473 8.64645 13.8536C8.55268 13.7598 8.5 13.6326 8.5 13.5C8.5 13.3674 8.55268 13.2402 8.64645 13.1464C8.74021 13.0527 8.86739 13 9 13H13.5C13.6326 13 13.7598 13.0527 13.8536 13.1464C13.9473 13.2402 14 13.3674 14 13.5C14 13.6326 13.9473 13.7598 13.8536 13.8536C13.7598 13.9473 13.6326 14 13.5 14H9Z" fill="#5B5C60"/>
<path d="M21.5 14C21.3674 14 21.2402 13.9473 21.1464 13.8536C21.0527 13.7598 21 13.6326 21 13.5C21 13.3674 21.0527 13.2402 21.1464 13.1464C21.2402 13.0527 21.3674 13 21.5 13H22.5C22.6326 13 22.7598 12.9473 22.8536 12.8536C22.9473 12.7598 23 12.6326 23 12.5V9.118C23.0003 9.02504 22.9744 8.93388 22.9255 8.85486C22.8765 8.77585 22.8064 8.71215 22.723 8.671L20.382 7.5H15V11C15 11.1326 14.9473 11.2598 14.8536 11.3536C14.7598 11.4473 14.6326 11.5 14.5 11.5C14.3674 11.5 14.2402 11.4473 14.1464 11.3536C14.0527 11.2598 14 11.1326 14 11V10H1V11.5C1 11.6326 0.947322 11.7598 0.853553 11.8536C0.759785 11.9473 0.632608 12 0.5 12C0.367392 12 0.240215 11.9473 0.146447 11.8536C0.0526784 11.7598 0 11.6326 0 11.5V1.5C0 0.673 0.673 0 1.5 0H18C19.378 0 20.5 1.121 20.5 2.5V3C20.5005 3.15976 20.4623 3.31725 20.3886 3.45901C20.3149 3.60077 20.208 3.72257 20.077 3.814C20.124 3.902 20.16 3.993 20.187 4.087L20.92 6.651L23.17 7.777C23.682 8.032 24 8.546 24 9.117V12.5C24 13.327 23.327 14 22.5 14H21.5ZM14 9V1H1.5C1.36739 1 1.24021 1.05268 1.14645 1.14645C1.05268 1.24021 1 1.36739 1 1.5V9H14ZM19.837 6.5L19.226 4.362C19.1959 4.25785 19.1329 4.16627 19.0463 4.101C18.9598 4.03573 18.8544 4.00029 18.746 4H15V6.5H19.837ZM19.5 3V2.5C19.5 1.673 18.827 1 18 1H15V3H19.5Z" fill="#5B5C60"/>
</svg>
