<svg width="22" height="24" viewBox="0 0 22 24" fill="none" xmlns="http://www.w3.org/2000/svg">
<path d="M10.9986 23.9272C10.7642 23.9271 10.5373 23.8446 10.3576 23.6942C7.76656 21.4849 5.36824 19.0592 3.18857 16.4432C1.09757 13.9302 0.157572 10.8362 0.610572 7.95522C1.00357 5.45522 2.42757 3.31222 4.61957 1.92222C6.52193 0.714219 8.72908 0.0731999 10.9826 0.07422H11.0166C13.2736 0.07422 15.4736 0.71322 17.3796 1.92222C19.5726 3.31222 20.9966 5.45522 21.3896 7.95622C21.8416 10.8372 20.9016 13.9292 18.8116 16.4412C16.6329 19.0568 14.2356 21.4822 11.6456 23.6912C11.464 23.843 11.2352 23.9264 10.9986 23.9272ZM10.9826 1.07422C8.91557 1.07422 6.90057 1.65922 5.15557 2.76622C3.20957 4.00022 1.94657 5.89722 1.59857 8.11022C1.19057 10.7072 2.04957 13.5112 3.95657 15.8032C6.09858 18.3747 8.45577 20.759 11.0026 22.9302C13.5452 20.7564 15.8999 18.372 18.0416 15.8022C19.9486 13.5112 20.8086 10.7082 20.4006 8.11222C20.0536 5.89822 18.7896 4.00022 16.8436 2.76622C15.101 1.66022 13.0795 1.07333 11.0156 1.07422H10.9826Z" fill="#5B5C60"/>
<path d="M14.4999 16.0752C13.3969 16.0752 12.4999 15.1782 12.4999 14.0752H9.49991C9.49991 15.1782 8.60291 16.0752 7.49991 16.0752C6.39691 16.0752 5.49991 15.1782 5.49991 14.0752C5.23538 14.0741 4.98206 13.9683 4.79538 13.7809C4.60871 13.5935 4.5039 13.3397 4.50391 13.0752V7.0752C4.50391 6.5242 4.95291 6.0752 5.50391 6.0752H12.5039C13.0559 6.0752 13.5039 6.5242 13.5039 7.0752L13.5049 8.0752H14.9999C16.3779 8.0752 17.4999 9.1962 17.4999 10.5752V13.5752C17.4999 13.7078 17.4472 13.835 17.3535 13.9287C17.2597 14.0225 17.1325 14.0752 16.9999 14.0752H16.4999C16.4999 15.1782 15.6029 16.0752 14.4999 16.0752ZM13.5579 13.7562C13.5211 13.8586 13.5015 13.9664 13.4999 14.0752C13.4999 14.273 13.5586 14.4663 13.6684 14.6308C13.7783 14.7952 13.9345 14.9234 14.1172 14.9991C14.2999 15.0748 14.501 15.0946 14.695 15.056C14.889 15.0174 15.0672 14.9222 15.207 14.7823C15.3469 14.6424 15.4421 14.4643 15.4807 14.2703C15.5193 14.0763 15.4995 13.8752 15.4238 13.6925C15.3481 13.5098 15.2199 13.3536 15.0555 13.2437C14.891 13.1338 14.6977 13.0752 14.4999 13.0752C14.2915 13.0764 14.0887 13.1427 13.9198 13.2648C13.7509 13.3869 13.6244 13.5587 13.5579 13.7562ZM7.49991 13.0752C7.24243 13.0867 6.99931 13.1971 6.82118 13.3834C6.64305 13.5697 6.54364 13.8175 6.54364 14.0752C6.54364 14.3329 6.64305 14.5807 6.82118 14.767C6.99931 14.9533 7.24243 15.0637 7.49991 15.0752C7.75739 15.0637 8.0005 14.9533 8.17863 14.767C8.35676 14.5807 8.45617 14.3329 8.45617 14.0752C8.45617 13.8175 8.35676 13.5697 8.17863 13.3834C8.0005 13.1971 7.75739 13.0867 7.49991 13.0752ZM16.4999 13.0752V10.5752C16.4999 9.7482 15.8269 9.0752 14.9999 9.0752H13.5069L13.5119 12.3362C13.8099 12.1662 14.1479 12.0752 14.4999 12.0752C15.2109 12.0752 15.8739 12.4632 16.2289 13.0752H16.4999ZM12.5099 13.0752L12.5059 8.6352C12.4986 8.59654 12.4986 8.55686 12.5059 8.5182L12.5039 7.0762L5.50391 7.0752V13.0752H5.77091C6.12691 12.4632 6.78891 12.0752 7.49991 12.0752C8.21091 12.0752 8.87391 12.4632 9.22891 13.0752H12.5099Z" fill="#5B5C60"/>
</svg>
