<svg width="22" height="24" viewBox="0 0 22 24" fill="none" xmlns="http://www.w3.org/2000/svg">
<path d="M1.5 24C0.673 24 0 23.327 0 22.5V3.5C0 2.673 0.673 2 1.5 2H3V0.5C3 0.367392 3.05268 0.240215 3.14645 0.146447C3.24021 0.0526784 3.36739 0 3.5 0C3.63261 0 3.75979 0.0526784 3.85355 0.146447C3.94732 0.240215 4 0.367392 4 0.5V2H8V0.5C8 0.367392 8.05268 0.240215 8.14645 0.146447C8.24021 0.0526784 8.36739 0 8.5 0C8.63261 0 8.75979 0.0526784 8.85355 0.146447C8.94732 0.240215 9 0.367392 9 0.5V2H13V0.5C13 0.367392 13.0527 0.240215 13.1464 0.146447C13.2402 0.0526784 13.3674 0 13.5 0C13.6326 0 13.7598 0.0526784 13.8536 0.146447C13.9473 0.240215 14 0.367392 14 0.5V2H18V0.5C18 0.367392 18.0527 0.240215 18.1464 0.146447C18.2402 0.0526784 18.3674 0 18.5 0C18.6326 0 18.7598 0.0526784 18.8536 0.146447C18.9473 0.240215 19 0.367392 19 0.5V2H20.5C21.327 2 22 2.673 22 3.5V17.5C22 17.566 21.987 17.63 21.961 17.691C21.9363 17.7523 21.8992 17.8078 21.852 17.854L15.853 23.853C15.8068 23.8996 15.7518 23.9367 15.6912 23.9619C15.6306 23.9871 15.5656 24.0001 15.5 24H1.5ZM1.5 3C1.36739 3 1.24021 3.05268 1.14645 3.14645C1.05268 3.24021 1 3.36739 1 3.5V22.5C1 22.6326 1.05268 22.7598 1.14645 22.8536C1.24021 22.9473 1.36739 23 1.5 23H15V18.5C15 17.673 15.673 17 16.5 17H21V3.5C21 3.36739 20.9473 3.24021 20.8536 3.14645C20.7598 3.05268 20.6326 3 20.5 3H19V5C19 5.13261 18.9473 5.25979 18.8536 5.35355C18.7598 5.44732 18.6326 5.5 18.5 5.5C18.3674 5.5 18.2402 5.44732 18.1464 5.35355C18.0527 5.25979 18 5.13261 18 5V3H14V5C14 5.13261 13.9473 5.25979 13.8536 5.35355C13.7598 5.44732 13.6326 5.5 13.5 5.5C13.3674 5.5 13.2402 5.44732 13.1464 5.35355C13.0527 5.25979 13 5.13261 13 5V3H9V5C9 5.13261 8.94732 5.25979 8.85355 5.35355C8.75979 5.44732 8.63261 5.5 8.5 5.5C8.36739 5.5 8.24021 5.44732 8.14645 5.35355C8.05268 5.25979 8 5.13261 8 5V3H4V5C4 5.13261 3.94732 5.25979 3.85355 5.35355C3.75979 5.44732 3.63261 5.5 3.5 5.5C3.36739 5.5 3.24021 5.44732 3.14645 5.35355C3.05268 5.25979 3 5.13261 3 5V3H1.5ZM16.5 18C16.3674 18 16.2402 18.0527 16.1464 18.1464C16.0527 18.2402 16 18.3674 16 18.5V22.293L20.293 18H16.5Z" fill="#5B5C60"/>
<path d="M5.49992 10.9998C5.43421 10.9999 5.36913 10.9871 5.30839 10.962C5.24765 10.937 5.19244 10.9002 5.14592 10.8538L3.64592 9.35378C3.57581 9.28385 3.52805 9.19468 3.50868 9.09757C3.48931 9.00046 3.49922 8.89979 3.53713 8.80831C3.57505 8.71684 3.63928 8.63869 3.72167 8.58376C3.80405 8.52883 3.9009 8.4996 3.99992 8.49978C4.06562 8.49966 4.13071 8.5125 4.19145 8.53755C4.25219 8.5626 4.3074 8.59938 4.35392 8.64578L5.49992 9.79278L8.14592 7.14678C8.19234 7.10029 8.24746 7.0634 8.30814 7.03822C8.36882 7.01303 8.43387 7.00005 8.49956 7C8.56526 6.99995 8.63032 7.01285 8.69104 7.03795C8.75175 7.06304 8.80693 7.09986 8.85342 7.14628C8.89991 7.1927 8.93679 7.24782 8.96198 7.3085C8.98716 7.36918 9.00015 7.43423 9.0002 7.49992C9.00024 7.56562 8.98735 7.63069 8.96225 7.6914C8.93715 7.75211 8.90034 7.80729 8.85392 7.85378L5.85392 10.8538C5.8074 10.9002 5.75219 10.937 5.69145 10.962C5.63071 10.9871 5.56562 10.9999 5.49992 10.9998Z" fill="#5B5C60"/>
<path d="M5.49992 16.4998C5.43421 16.4999 5.36913 16.4871 5.30839 16.462C5.24765 16.437 5.19244 16.4002 5.14592 16.3538L3.64592 14.8538C3.57581 14.7838 3.52805 14.6947 3.50868 14.5976C3.48931 14.5005 3.49922 14.3998 3.53713 14.3083C3.57505 14.2168 3.63928 14.1387 3.72167 14.0838C3.80405 14.0288 3.9009 13.9996 3.99992 13.9998C4.06562 13.9997 4.13071 14.0125 4.19145 14.0375C4.25219 14.0626 4.3074 14.0994 4.35392 14.1458L5.49992 15.2928L8.14592 12.6468C8.19234 12.6003 8.24746 12.5634 8.30814 12.5382C8.36882 12.513 8.43387 12.5 8.49956 12.5C8.56526 12.5 8.63032 12.5128 8.69104 12.5379C8.75175 12.563 8.80693 12.5999 8.85342 12.6463C8.89991 12.6927 8.93679 12.7478 8.96198 12.8085C8.98716 12.8692 9.00015 12.9342 9.0002 12.9999C9.00024 13.0656 8.98735 13.1307 8.96225 13.1914C8.93715 13.2521 8.90034 13.3073 8.85392 13.3538L5.85392 16.3538C5.8074 16.4002 5.75219 16.437 5.69145 16.462C5.63071 16.4871 5.56562 16.4999 5.49992 16.4998V16.4998Z" fill="#5B5C60"/>
<path d="M10.5 10C10.3674 10 10.2402 9.94732 10.1464 9.85355C10.0527 9.75979 10 9.63261 10 9.5C10 9.36739 10.0527 9.24021 10.1464 9.14645C10.2402 9.05268 10.3674 9 10.5 9H17C17.1326 9 17.2598 9.05268 17.3536 9.14645C17.4473 9.24021 17.5 9.36739 17.5 9.5C17.5 9.63261 17.4473 9.75979 17.3536 9.85355C17.2598 9.94732 17.1326 10 17 10H10.5Z" fill="#5B5C60"/>
<path d="M10.5 15C10.3674 15 10.2402 14.9473 10.1464 14.8536C10.0527 14.7598 10 14.6326 10 14.5C10 14.3674 10.0527 14.2402 10.1464 14.1464C10.2402 14.0527 10.3674 14 10.5 14H17C17.1326 14 17.2598 14.0527 17.3536 14.1464C17.4473 14.2402 17.5 14.3674 17.5 14.5C17.5 14.6326 17.4473 14.7598 17.3536 14.8536C17.2598 14.9473 17.1326 15 17 15H10.5Z" fill="#5B5C60"/>
</svg>
