<svg width="74" height="74" viewBox="0 0 74 74" fill="none" xmlns="http://www.w3.org/2000/svg">
<g filter="url(#filter0_dd_1_2218)">
<rect x="6" y="3" width="62" height="62" rx="12" fill="white"/>
</g>
<g clip-path="url(#clip0_1_2218)">
<path d="M38.1991 34.9082L34.206 41.0809L30.3957 42.7114C28.1507 40.1394 25.7531 37.0879 24.6196 33.2298L26.901 28.9867L30.5702 27.2793C30.5049 27.6716 30.4612 28.064 30.4612 28.4781C30.4612 32.0745 33.4037 35.0172 37.0003 35.0172C37.4144 35.0172 37.8067 34.9735 38.1991 34.9082Z" fill="#FFDA2D"/>
<path d="M43.4309 29.6703C43.4963 29.2802 43.5392 28.89 43.5392 28.478C43.5392 24.8845 40.6009 21.9433 37.0081 21.939H37.0001C36.586 21.939 36.1936 21.9826 35.8013 22.048L41.5992 16.25C45.1085 17.5578 47.9203 20.3696 49.2281 23.8789L43.4302 29.6769C43.4302 29.6747 43.4309 29.6725 43.4309 29.6703Z" fill="#80AEF8"/>
<path d="M49.2278 23.8789L47.2443 27.7515L43.4299 29.6769C43.4299 29.6747 43.4306 29.6725 43.4306 29.6703C43.496 29.2802 43.5388 28.89 43.5388 28.478C43.5388 24.8845 40.6006 21.9433 37.0078 21.939H37.002V20.847L38.3076 17.9429L41.5989 16.25C45.1082 17.5578 47.92 20.3696 49.2278 23.8789Z" fill="#4086F4"/>
<path d="M49.2282 23.8789L43.4302 29.6768C42.9288 32.3143 40.8364 34.4067 38.1989 34.9081H38.1988L31.887 41.2198L30.3955 42.7113C30.7661 43.1254 31.093 43.4961 31.4418 43.8884C33.8396 46.613 35.9103 49.1123 35.9103 51.5101C35.9103 52.1203 36.3897 52.5999 37.0001 52.5999C37.6105 52.5999 38.0899 52.1203 38.0899 51.5101C38.0899 49.1123 40.1607 46.613 42.5583 43.8884C45.9151 40.1175 50.0782 35.4095 50.0782 28.478C50.0782 26.8651 49.7949 25.3175 49.2282 23.8789Z" fill="#59C36A"/>
<path d="M49.2282 23.8789L43.4303 29.6767V29.6768C42.9289 32.3143 40.8365 34.4067 38.199 34.9081C38.1989 34.9081 38.1989 34.9081 38.1989 34.9081L37.0024 36.1045V52.5995C37.6117 52.5982 38.09 52.1195 38.09 51.5101C38.09 49.1123 40.1607 46.613 42.5584 43.8884C45.9152 40.1175 50.0783 35.4095 50.0783 28.478C50.0783 26.8651 49.7949 25.3175 49.2282 23.8789Z" fill="#00A66C"/>
<path d="M37.0024 36.1048L38.199 34.9082C37.8075 34.9734 37.4159 35.0166 37.0024 35.0169V36.1048Z" fill="#FDBF00"/>
<path d="M41.5993 16.25L35.8013 22.0479C34.4717 22.3095 33.2946 22.9415 32.3792 23.8572L29.008 22.4476L27.7583 19.2362C30.1124 16.8602 33.382 15.3999 37.0002 15.3999C38.6131 15.3999 40.1607 15.6833 41.5993 16.25Z" fill="#4086F4"/>
<path d="M37.0024 20.8469L41.5993 16.25C40.1615 15.6835 38.6146 15.4004 37.0025 15.4001V20.8469H37.0024Z" fill="#4175DF"/>
<path d="M32.3791 23.8573C31.4637 24.7727 30.8314 25.9497 30.5699 27.2794L24.6194 33.2299C24.1834 31.7696 23.9219 30.2002 23.9219 28.4782C23.9219 24.8598 25.3822 21.5903 27.7581 19.2363L32.3791 23.8573Z" fill="#F03800"/>
</g>
<defs>
<filter id="filter0_dd_1_2218" x="0" y="0" width="74" height="74" filterUnits="userSpaceOnUse" color-interpolation-filters="sRGB">
<feFlood flood-opacity="0" result="BackgroundImageFix"/>
<feColorMatrix in="SourceAlpha" type="matrix" values="0 0 0 0 0 0 0 0 0 0 0 0 0 0 0 0 0 0 127 0" result="hardAlpha"/>
<feOffset dy="3"/>
<feGaussianBlur stdDeviation="3"/>
<feColorMatrix type="matrix" values="0 0 0 0 0.376471 0 0 0 0 0.380392 0 0 0 0 0.439216 0 0 0 0.08 0"/>
<feBlend mode="normal" in2="BackgroundImageFix" result="effect1_dropShadow_1_2218"/>
<feColorMatrix in="SourceAlpha" type="matrix" values="0 0 0 0 0 0 0 0 0 0 0 0 0 0 0 0 0 0 127 0" result="hardAlpha"/>
<feOffset/>
<feGaussianBlur stdDeviation="0.5"/>
<feColorMatrix type="matrix" values="0 0 0 0 0.156863 0 0 0 0 0.160784 0 0 0 0 0.239216 0 0 0 0.04 0"/>
<feBlend mode="normal" in2="effect1_dropShadow_1_2218" result="effect2_dropShadow_1_2218"/>
<feBlend mode="normal" in="SourceGraphic" in2="effect2_dropShadow_1_2218" result="shape"/>
</filter>
<clipPath id="clip0_1_2218">
<rect x="18.3999" y="15.3999" width="37.2" height="37.2" rx="12" fill="white"/>
</clipPath>
</defs>
</svg>
