<svg width="11" height="6" viewBox="0 0 11 6" fill="none" xmlns="http://www.w3.org/2000/svg">
<path d="M0.555686 6.00053C0.512766 6.00062 0.470738 5.98828 0.434682 5.965C0.398626 5.94171 0.370083 5.90849 0.352504 5.86933C0.334924 5.83018 0.329059 5.78677 0.335618 5.74435C0.342177 5.70194 0.360879 5.66233 0.389464 5.63031L3.64991 1.96364C3.76781 1.83283 3.93154 1.75242 4.10714 1.7391C4.28274 1.72577 4.45673 1.78056 4.59302 1.89209L6.5788 3.54676C6.62643 3.5852 6.687 3.60391 6.74803 3.59904C6.80905 3.59416 6.86587 3.56606 6.9068 3.52053L9.61924 0.445421H7.02813C6.96919 0.445421 6.91267 0.422008 6.871 0.380334C6.82932 0.338659 6.80591 0.282136 6.80591 0.223199C6.80591 0.164262 6.82932 0.107739 6.871 0.066064C6.91267 0.0243892 6.96919 0.000976563 7.02813 0.000976562H10.1117C10.1219 0.000976562 10.1419 0.00408768 10.1517 0.00675435C10.1648 0.00805823 10.1776 0.0110459 10.1899 0.0156432C10.2047 0.0215847 10.2187 0.0291895 10.2317 0.03831C10.2326 0.03831 10.2459 0.0449765 10.2592 0.0569765L10.2708 0.0689765C10.2794 0.0782339 10.287 0.0883631 10.2935 0.0991989C10.2988 0.10631 10.3068 0.116977 10.3139 0.132088C10.321 0.147643 10.3237 0.161421 10.3255 0.168977C10.3302 0.186866 10.3332 0.205175 10.3344 0.223643V2.88098C10.3344 2.93991 10.3109 2.99644 10.2693 3.03811C10.2276 3.07979 10.1711 3.1032 10.1121 3.1032C10.0532 3.1032 9.99667 3.07979 9.955 3.03811C9.91332 2.99644 9.88991 2.93991 9.88991 2.88098V0.810755L7.23969 3.81564C7.17548 3.88748 7.09686 3.94498 7.00895 3.98442C6.92104 4.02386 6.82581 4.04434 6.72946 4.04453C6.57258 4.04453 6.4188 3.98942 6.29658 3.88942L4.31124 2.23476C4.26343 2.19612 4.20262 2.1773 4.14135 2.18218C4.08007 2.18706 4.023 2.21526 3.98191 2.26098L0.722797 5.92587C0.701716 5.94931 0.67595 5.96807 0.647164 5.98093C0.618378 5.99379 0.587214 6.00047 0.555686 6.00053Z" fill="#D22630"/>
</svg>
