<svg width="11" height="6" viewBox="0 0 11 6" fill="none" xmlns="http://www.w3.org/2000/svg">
<path d="M7.02728 6.00005C6.96834 6.00005 6.91181 5.97663 6.87014 5.93496C6.82847 5.89328 6.80505 5.83676 6.80505 5.77782C6.80505 5.71889 6.82847 5.66236 6.87014 5.62069C6.91181 5.57901 6.96834 5.5556 7.02728 5.5556H9.61972L6.90505 2.47916C6.86395 2.43376 6.80694 2.40594 6.74586 2.40147C6.68478 2.39701 6.62433 2.41623 6.57705 2.45516L4.59439 4.10716C4.47159 4.20797 4.31771 4.26324 4.15883 4.2636C3.96594 4.2636 3.78061 4.18138 3.65083 4.03827L0.389052 0.369823C0.369675 0.347994 0.354787 0.322562 0.345238 0.29498C0.335689 0.267398 0.331667 0.238205 0.3334 0.209068C0.336901 0.150223 0.363634 0.095179 0.407719 0.0560448C0.451804 0.0169106 0.509629 -0.00310806 0.568474 0.000392621C0.597611 0.00212598 0.626121 0.00958142 0.652377 0.0223331C0.678632 0.0350847 0.702119 0.052883 0.721497 0.0747116L3.98194 3.74138C4.02328 3.78693 4.08061 3.81476 4.14197 3.81906C4.20333 3.82337 4.26398 3.80382 4.31128 3.76449L6.2935 2.11249C6.42951 2.00038 6.60359 1.94518 6.77935 1.95843C6.95511 1.97169 7.11895 2.05236 7.23661 2.1836L9.88816 5.18893V3.12049C9.88816 3.06155 9.91158 3.00503 9.95325 2.96335C9.99493 2.92168 10.0514 2.89827 10.1104 2.89827C10.1693 2.89827 10.2258 2.92168 10.2675 2.96335C10.3092 3.00503 10.3326 3.06155 10.3326 3.12049V5.77782C10.3326 5.78449 10.3322 5.79116 10.3308 5.79782C10.3295 5.80849 10.3273 5.81649 10.3264 5.82093C10.3235 5.83806 10.3186 5.85477 10.3117 5.87071L10.3051 5.88316C10.2863 5.91837 10.2583 5.94783 10.2241 5.96841C10.1899 5.989 10.1507 5.99993 10.1108 6.00005H7.02728Z" fill="#003087"/>
</svg>
