<svg width="24" height="24" viewBox="0 0 24 24" fill="none" xmlns="http://www.w3.org/2000/svg">
<path d="M11.4996 10.9836C8.47563 10.9836 6.01562 8.52363 6.01562 5.49963C6.01562 2.47563 8.47563 0.015625 11.4996 0.015625C14.5236 0.015625 16.9836 2.47563 16.9836 5.49963C16.9836 8.52363 14.5236 10.9836 11.4996 10.9836ZM11.4996 1.01562C9.02663 1.01562 7.01562 3.02663 7.01562 5.49963C7.01562 7.97263 9.02663 9.98363 11.4996 9.98363C13.9716 9.98363 15.9836 7.97263 15.9836 5.49963C15.9836 3.02663 13.9716 1.01562 11.4996 1.01562Z" fill="#5B5C60"/>
<path d="M11.5 6.48371C11.4095 6.48406 11.3206 6.45979 11.2428 6.4135C11.165 6.36721 11.1013 6.30064 11.0585 6.22092C11.0156 6.14119 10.9953 6.05132 10.9996 5.96092C11.0039 5.87051 11.0327 5.78299 11.083 5.70771L12.767 3.15371C12.8404 3.04336 12.9544 2.96651 13.0842 2.93991C13.214 2.91331 13.3491 2.93912 13.46 3.01171C13.5148 3.04787 13.562 3.09448 13.5988 3.14889C13.6356 3.2033 13.6614 3.26442 13.6746 3.32878C13.6878 3.39314 13.6881 3.45947 13.6757 3.52397C13.6632 3.58847 13.6382 3.64989 13.602 3.70471L11.918 6.25871C11.8724 6.32791 11.8103 6.3847 11.7374 6.42398C11.6644 6.46325 11.5828 6.48378 11.5 6.48371Z" fill="#5B5C60"/>
<path d="M8 18.9834C7.86739 18.9834 7.74021 18.9307 7.64645 18.837C7.55268 18.7432 7.5 18.616 7.5 18.4834C7.5 18.3508 7.55268 18.2236 7.64645 18.1298C7.74021 18.0361 7.86739 17.9834 8 17.9834H15C15.1326 17.9834 15.2598 18.0361 15.3536 18.1298C15.4473 18.2236 15.5 18.3508 15.5 18.4834C15.5 18.616 15.4473 18.7432 15.3536 18.837C15.2598 18.9307 15.1326 18.9834 15 18.9834H8Z" fill="#5B5C60"/>
<path d="M8 20.9834C7.86739 20.9834 7.74021 20.9307 7.64645 20.837C7.55268 20.7432 7.5 20.616 7.5 20.4834C7.5 20.3508 7.55268 20.2236 7.64645 20.1298C7.74021 20.0361 7.86739 19.9834 8 19.9834H15C15.1326 19.9834 15.2598 20.0361 15.3536 20.1298C15.4473 20.2236 15.5 20.3508 15.5 20.4834C15.5 20.616 15.4473 20.7432 15.3536 20.837C15.2598 20.9307 15.1326 20.9834 15 20.9834H8Z" fill="#5B5C60"/>
<path d="M1 23.9834C0.867392 23.9834 0.740215 23.9307 0.646447 23.837C0.552678 23.7432 0.5 23.616 0.5 23.4834C0.5 23.3508 0.552678 23.2236 0.646447 23.1298C0.740215 23.0361 0.867392 22.9834 1 22.9834H5.632C5.22179 22.4923 4.99799 21.8723 5 21.2324V17.7324C5.00132 17.0034 5.29165 16.3046 5.80733 15.7893C6.32301 15.274 7.02198 14.9842 7.751 14.9834H8V14.4834C8 13.1054 9.121 11.9834 10.5 11.9834H12.5C13.878 11.9834 15 13.1054 15 14.4834V14.9834H15.251C15.98 14.9845 16.6789 15.2745 17.1944 15.79C17.7099 16.3055 17.9999 17.0044 18.001 17.7334V21.2334C18.001 21.8844 17.776 22.4964 17.369 22.9834H23C23.1326 22.9834 23.2598 23.0361 23.3536 23.1298C23.4473 23.2236 23.5 23.3508 23.5 23.4834C23.5 23.616 23.4473 23.7432 23.3536 23.837C23.2598 23.9307 23.1326 23.9834 23 23.9834H1ZM7.751 15.9834C6.786 15.9834 6.001 16.7684 6 17.7334V21.2334C6 22.1984 6.785 22.9834 7.75 22.9834H15.252C16.216 22.9834 17.001 22.1984 17.001 21.2344V17.7344C17.001 16.7694 16.216 15.9844 15.251 15.9844H7.751V15.9834ZM14 14.9834V14.4834C14 13.6564 13.327 12.9834 12.5 12.9834H10.5C9.673 12.9834 9 13.6564 9 14.4834V14.9834H14Z" fill="#5B5C60"/>
</svg>
