<svg width="16" height="16" viewBox="0 0 16 16" fill="none" xmlns="http://www.w3.org/2000/svg">
<path d="M1.5 16C1.10228 15.9996 0.720958 15.8415 0.43973 15.5603C0.158502 15.279 0.000353055 14.8977 0 14.5L0 1.5C0.000353055 1.10228 0.158502 0.720958 0.43973 0.43973C0.720958 0.158502 1.10228 0.000353055 1.5 0H14.5C14.8977 0.000353055 15.279 0.158502 15.5603 0.43973C15.8415 0.720958 15.9996 1.10228 16 1.5V14.5C15.9996 14.8977 15.8415 15.279 15.5603 15.5603C15.279 15.8415 14.8977 15.9996 14.5 16H1.5ZM1.5 1C1.36739 1 1.24021 1.05268 1.14645 1.14645C1.05268 1.24021 1 1.36739 1 1.5V14.5C1 14.776 1.224 15 1.5 15H14.5C14.6326 15 14.7598 14.9473 14.8536 14.8536C14.9473 14.7598 15 14.6326 15 14.5V1.5C15 1.36739 14.9473 1.24021 14.8536 1.14645C14.7598 1.05268 14.6326 1 14.5 1H1.5Z" fill="#5B5C60"/>
<path d="M3.5 7.00067C3.36739 7.00067 3.24021 6.94799 3.14645 6.85422C3.05268 6.76046 3 6.63328 3 6.50067V3.50067C3 3.36806 3.05268 3.24089 3.14645 3.14712C3.24021 3.05335 3.36739 3.00067 3.5 3.00067H6.5C6.63261 3.00067 6.75979 3.05335 6.85355 3.14712C6.94732 3.24089 7 3.36806 7 3.50067V6.50067C7 6.63328 6.94732 6.76046 6.85355 6.85422C6.75979 6.94799 6.63261 7.00067 6.5 7.00067H3.5ZM6 6.00067V4.00067H4V6.00067H6Z" fill="#5B5C60"/>
<path d="M9.5 7.00067C9.36739 7.00067 9.24021 6.94799 9.14645 6.85422C9.05268 6.76046 9 6.63328 9 6.50067V3.50067C9 3.36806 9.05268 3.24089 9.14645 3.14712C9.24021 3.05335 9.36739 3.00067 9.5 3.00067H12.5C12.6326 3.00067 12.7598 3.05335 12.8536 3.14712C12.9473 3.24089 13 3.36806 13 3.50067V6.50067C13 6.63328 12.9473 6.76046 12.8536 6.85422C12.7598 6.94799 12.6326 7.00067 12.5 7.00067H9.5ZM12 6.00067V4.00067H10V6.00067H12Z" fill="#5B5C60"/>
<path d="M3.5 13.0007C3.36739 13.0007 3.24021 12.948 3.14645 12.8542C3.05268 12.7605 3 12.6333 3 12.5007V9.50067C3 9.36806 3.05268 9.24089 3.14645 9.14712C3.24021 9.05335 3.36739 9.00067 3.5 9.00067H6.5C6.63261 9.00067 6.75979 9.05335 6.85355 9.14712C6.94732 9.24089 7 9.36806 7 9.50067V12.5007C7 12.6333 6.94732 12.7605 6.85355 12.8542C6.75979 12.948 6.63261 13.0007 6.5 13.0007H3.5ZM6 12.0007V10.0007H4V12.0007H6Z" fill="#5B5C60"/>
<path d="M9.5 13.0007C9.36739 13.0007 9.24021 12.948 9.14645 12.8542C9.05268 12.7605 9 12.6333 9 12.5007V9.50067C9 9.36806 9.05268 9.24089 9.14645 9.14712C9.24021 9.05335 9.36739 9.00067 9.5 9.00067H12.5C12.6326 9.00067 12.7598 9.05335 12.8536 9.14712C12.9473 9.24089 13 9.36806 13 9.50067V12.5007C13 12.6333 12.9473 12.7605 12.8536 12.8542C12.7598 12.948 12.6326 13.0007 12.5 13.0007H9.5ZM12 12.0007V10.0007H10V12.0007H12Z" fill="#5B5C60"/>
</svg>
