<svg width="24" height="24" viewBox="0 0 24 24" fill="none" xmlns="http://www.w3.org/2000/svg">
<g clip-path="url(#clip0_1_86008)">
<path d="M7.5 21.977C7.29121 21.9771 7.08764 21.9117 6.918 21.79L0.418004 17.147C0.288821 17.0541 0.183553 16.9319 0.110878 16.7903C0.0382033 16.6488 0.00020133 16.4921 4.38778e-06 16.333V1.56196C-0.000386998 1.4305 0.0254087 1.30027 0.0758863 1.17889C0.126364 1.0575 0.200512 0.947384 0.294004 0.854962C0.386474 0.761951 0.496504 0.688242 0.617702 0.638114C0.7389 0.587987 0.86885 0.562442 1 0.562962C1.211 0.562962 1.412 0.627962 1.582 0.749962L7.5 4.97696L13.918 0.393962C14.098 0.264384 14.3164 0.199214 14.538 0.208962C14.729 0.214962 14.92 0.278962 15.081 0.393962L21.581 5.03596C21.844 5.22396 22 5.52796 22 5.85096V10.593C22 10.7256 21.9473 10.8527 21.8536 10.9465C21.7598 11.0403 21.6326 11.093 21.5 11.093C21.3674 11.093 21.2402 11.0403 21.1465 10.9465C21.0527 10.8527 21 10.7256 21 10.593V5.84996L15 1.56396V10.591C15 10.7236 14.9473 10.8507 14.8536 10.9445C14.7598 11.0383 14.6326 11.091 14.5 11.091C14.3674 11.091 14.2402 11.0383 14.1465 10.9445C14.0527 10.8507 14 10.7236 14 10.591V1.56396L8 5.84896V20.62L13.209 16.899C13.2897 16.8428 13.3851 16.8115 13.4834 16.809C13.5816 16.8066 13.6785 16.833 13.7619 16.8851C13.8453 16.9372 13.9115 17.0126 13.9524 17.102C13.9933 17.1914 14.0071 17.2908 13.992 17.388C13.9814 17.4529 13.9579 17.515 13.9231 17.5708C13.8882 17.6266 13.8427 17.6749 13.789 17.713L8.082 21.79C7.91237 21.9117 7.7088 21.9771 7.5 21.977ZM1 16.333L7 20.619V5.84896L1 1.56296V16.333Z" fill="#5B5C60"/>
<path d="M19.499 23.7948C19.3487 23.7955 19.2003 23.7619 19.0649 23.6966C18.9296 23.6313 18.8109 23.5359 18.718 23.4178C17.329 21.6618 15 18.4418 15 16.5908C15 14.1098 17.019 12.0908 19.5 12.0908C21.981 12.0908 24 14.1098 24 16.5908C24 18.4418 21.672 21.6608 20.284 23.4148C20.1905 23.5336 20.0713 23.6295 19.9353 23.6953C19.7993 23.7611 19.6501 23.7952 19.499 23.7948ZM19.5 13.0908C17.57 13.0908 16 14.6608 16 16.5908C16 17.9018 17.808 20.6558 19.5 22.7948C21.192 20.6558 23 17.9028 23 16.5908C23 14.6608 21.43 13.0908 19.5 13.0908Z" fill="#5B5C60"/>
<path d="M19.5 18.5908C18.397 18.5908 17.5 17.6938 17.5 16.5908C17.5 15.4878 18.397 14.5908 19.5 14.5908C20.603 14.5908 21.5 15.4878 21.5 16.5908C21.5 17.6938 20.603 18.5908 19.5 18.5908ZM19.5 15.5908C19.2348 15.5908 18.9804 15.6962 18.7929 15.8837C18.6054 16.0713 18.5 16.3256 18.5 16.5908C18.5 16.856 18.6054 17.1104 18.7929 17.2979C18.9804 17.4855 19.2348 17.5908 19.5 17.5908C19.7652 17.5908 20.0196 17.4855 20.2071 17.2979C20.3946 17.1104 20.5 16.856 20.5 16.5908C20.5 16.3256 20.3946 16.0713 20.2071 15.8837C20.0196 15.6962 19.7652 15.5908 19.5 15.5908Z" fill="#5B5C60"/>
</g>
<defs>
<clipPath id="clip0_1_86008">
<rect width="24" height="24" fill="white"/>
</clipPath>
</defs>
</svg>
