<svg width="24" height="24" viewBox="0 0 24 24" fill="none" xmlns="http://www.w3.org/2000/svg">
<g clip-path="url(#clip0_1_38280)">
<path d="M11.97 23.8092C9.71673 23.8098 7.50916 23.1733 5.60205 21.9732L1.40705 23.3072C1.31893 23.3353 1.22473 23.3383 1.13501 23.3158C1.04528 23.2934 0.963578 23.2464 0.899047 23.1802C0.833478 23.1148 0.787635 23.0323 0.766767 22.9421C0.745898 22.8519 0.750847 22.7577 0.781048 22.6702L2.13505 18.6752C0.739154 16.6931 -0.00685749 14.3265 4.75043e-05 11.9022C0.0330475 5.33516 5.40105 -0.00683594 11.966 -0.00683594H12.031C18.598 -0.00683594 23.967 5.33516 24 11.9002C23.9821 14.2086 23.2985 16.4627 22.031 18.3922C20.9372 20.0607 19.4444 21.43 17.6877 22.3759C15.9311 23.3218 13.9662 23.8144 11.971 23.8092H11.97ZM5.67405 20.9262C5.77205 20.9262 5.86705 20.9542 5.94805 21.0082C7.73668 22.1849 9.83105 22.8114 11.972 22.8102C15.706 22.8102 19.154 20.9532 21.195 17.8432C22.3557 16.0762 22.9824 14.0121 23 11.8982C22.969 5.88716 18.05 0.993164 12.033 0.993164H11.967C5.95005 0.993164 1.03005 5.88816 1.00005 11.9042C0.99372 14.2047 1.72791 16.4462 3.09405 18.2972C3.14149 18.362 3.1727 18.4372 3.18505 18.5165C3.19741 18.5959 3.19055 18.677 3.16505 18.7532L2.04605 22.0542L5.52205 20.9492C5.57132 20.9341 5.62253 20.9264 5.67405 20.9262Z" fill="#5B5C60"/>
<path d="M15.701 18.8124C15.237 18.8124 14.464 18.6954 12.247 17.8294C10.124 16.9994 8.033 15.1874 6.361 12.7264L6.304 12.6434C4.386 10.1174 4.327 7.74738 6.134 5.78638C6.478 5.41438 7.04 5.19238 7.638 5.19238C7.775 5.19238 7.913 5.20438 8.046 5.22738C8.625 5.33038 9.065 5.64838 9.254 6.10038C9.36 6.35238 9.524 6.74638 9.69 7.14838C9.923 7.71038 10.23 8.45138 10.273 8.53838C10.451 8.82338 10.466 9.22338 10.301 9.56038C10.0727 10.0484 9.74979 10.4862 9.351 10.8484L9.298 10.9034C9.77639 11.7157 10.3733 12.4522 11.069 13.0884C11.821 13.7506 12.6825 14.2768 13.615 14.6434C13.699 14.6844 13.746 14.7014 13.77 14.7084L13.784 14.6914C13.987 14.4644 14.607 13.7394 14.803 13.4464C15.013 13.1334 15.286 12.9744 15.615 12.9744C15.826 12.9744 16.009 13.0404 16.143 13.0884C16.473 13.2074 18.013 13.9604 18.477 14.1884L18.652 14.2724C18.93 14.4054 19.152 14.5114 19.3 14.7184C19.3145 14.7366 19.3278 14.7556 19.34 14.7754C19.628 15.2554 19.577 15.9834 19.202 16.7204C18.777 17.5564 17.814 18.5744 16.497 18.6934C16.429 18.6994 16.367 18.7144 16.289 18.7334C16.132 18.7704 15.956 18.8124 15.701 18.8124ZM7.644 6.19238C7.33 6.19238 7.019 6.30138 6.869 6.46338C5.413 8.04338 5.491 9.91838 7.1 12.0374C7.116 12.0584 7.145 12.1004 7.188 12.1634C8.749 14.4584 10.675 16.1394 12.612 16.8964C14.201 17.5174 15.184 17.8064 15.707 17.8064C15.8243 17.8061 15.941 17.79 16.054 17.7584C16.156 17.7344 16.268 17.7074 16.408 17.6944C17.319 17.6124 18.003 16.8734 18.312 16.2644C18.536 15.8244 18.564 15.4704 18.497 15.3134C18.442 15.2774 18.3 15.2094 18.221 15.1714L18.047 15.0874C17.301 14.7204 16.034 14.1084 15.806 14.0264C15.7553 14.0076 15.7039 13.9906 15.652 13.9754L15.635 13.9994C15.39 14.3654 14.739 15.1204 14.53 15.3544C14.318 15.5914 14.07 15.7114 13.793 15.7114C13.557 15.7114 13.347 15.6214 13.21 15.5534C12.1805 15.1464 11.23 14.563 10.401 13.8294C9.62928 13.1242 8.96701 12.3079 8.436 11.4074C8.034 10.7404 8.491 10.2894 8.663 10.1204C8.979 9.83138 9.225 9.49938 9.399 9.12638C9.418 9.08638 9.417 9.04938 9.398 9.01738C9.322 8.87138 9.109 8.35738 8.766 7.53038C8.62226 7.18233 8.4776 6.83466 8.332 6.48738C8.277 6.35638 8.105 6.25338 7.871 6.21238C7.79606 6.19906 7.7201 6.19237 7.644 6.19238Z" fill="#5B5C60"/>
</g>
<defs>
<clipPath id="clip0_1_38280">
<rect width="24" height="24" fill="white"/>
</clipPath>
</defs>
</svg>
