<svg width="16" height="24" viewBox="0 0 16 24" fill="none" xmlns="http://www.w3.org/2000/svg">
<path d="M10.921 10.1801C10.8345 10.1152 10.7292 10.0801 10.621 10.0801H5.39C5.28182 10.0801 5.17655 10.1152 5.09 10.1801C2.923 11.8341 0.5 15.0361 0.5 17.5771C0.5 21.1681 2.5 23.0771 8 23.0771C13.5 23.0771 15.5 21.1681 15.5 17.5771C15.5 15.0361 13.087 11.8341 10.921 10.1801V10.1801Z" stroke="#5B5C60" stroke-linecap="round" stroke-linejoin="round"/>
<path d="M4.50391 8.07715H11.5039" stroke="#5B5C60" stroke-linecap="round" stroke-linejoin="round"/>
<path d="M11.7393 2.37391C11.7897 2.28252 11.8102 2.17767 11.798 2.07404C11.7857 1.97042 11.7414 1.8732 11.6712 1.79603C11.601 1.71886 11.5084 1.66559 11.4063 1.64369C11.3043 1.62179 11.198 1.63235 11.1023 1.67391L9.00228 2.57391L8.46728 1.23391C8.43026 1.14096 8.3662 1.06126 8.28339 1.00511C8.20058 0.948961 8.10283 0.918945 8.00278 0.918945C7.90273 0.918945 7.80498 0.948961 7.72218 1.00511C7.63937 1.06126 7.57531 1.14096 7.53828 1.23391L7.00028 2.57691L4.90028 1.67691C4.80457 1.63535 4.69825 1.62479 4.59623 1.64669C4.49421 1.66859 4.4016 1.72186 4.33137 1.79903C4.26114 1.8762 4.21682 1.97342 4.20461 2.07704C4.1924 2.18067 4.21291 2.28552 4.26328 2.37691C4.8484 3.38818 5.2585 4.49103 5.47628 5.63891C5.49147 5.7605 5.55079 5.87228 5.64296 5.95302C5.73513 6.03377 5.85375 6.07785 5.97628 6.07691H10.0413C10.1638 6.07785 10.2824 6.03377 10.3746 5.95302C10.4668 5.87228 10.5261 5.7605 10.5413 5.63891C10.7531 4.49067 11.1582 3.38668 11.7393 2.37391V2.37391Z" stroke="#5B5C60" stroke-linecap="round" stroke-linejoin="round"/>
<path d="M8.50391 13.5771V12.5771" stroke="#5B5C60" stroke-linecap="round" stroke-linejoin="round"/>
<path d="M10.0002 13.5772H7.97125C7.65902 13.5762 7.35623 13.6841 7.11509 13.8825C6.87396 14.0808 6.70959 14.3571 6.65034 14.6637C6.5911 14.9702 6.64067 15.2879 6.79053 15.5618C6.94039 15.8357 7.18114 16.0487 7.47125 16.1642L9.53425 16.9902C9.8233 17.1065 10.0629 17.3197 10.2119 17.5933C10.3609 17.867 10.4101 18.1839 10.3509 18.4898C10.2918 18.7957 10.1281 19.0715 9.88784 19.2699C9.6476 19.4683 9.34582 19.5769 9.03425 19.5772H7.00025" stroke="#5B5C60" stroke-linecap="round" stroke-linejoin="round"/>
<path d="M8.50391 20.5771V19.5771" stroke="#5B5C60" stroke-linecap="round" stroke-linejoin="round"/>
</svg>
