<svg width="16" height="16" viewBox="0 0 16 16" fill="none" xmlns="http://www.w3.org/2000/svg">
<path d="M1.5 16C1.10228 15.9996 0.720958 15.8415 0.43973 15.5603C0.158502 15.279 0.000353055 14.8977 0 14.5L0 2.5C0.000353055 2.10228 0.158502 1.72096 0.43973 1.43973C0.720958 1.1585 1.10228 1.00035 1.5 1H3V0.5C3 0.367392 3.05268 0.240215 3.14645 0.146447C3.24021 0.0526784 3.36739 0 3.5 0C3.63261 0 3.75979 0.0526784 3.85355 0.146447C3.94732 0.240215 4 0.367392 4 0.5V1H12V0.5C12 0.367392 12.0527 0.240215 12.1464 0.146447C12.2402 0.0526784 12.3674 0 12.5 0C12.6326 0 12.7598 0.0526784 12.8536 0.146447C12.9473 0.240215 13 0.367392 13 0.5V1H14.5C14.8977 1.00035 15.279 1.1585 15.5603 1.43973C15.8415 1.72096 15.9996 2.10228 16 2.5V9.086C16 9.29733 15.956 9.50267 15.8693 9.69667L15.862 9.712C15.7884 9.8732 15.6866 10.0199 15.5613 10.1453L10.146 15.56C10.0135 15.6924 9.85719 15.7987 9.68533 15.8733C9.50267 15.956 9.29733 16 9.086 16H1.5ZM1.5 2C1.36739 2 1.24021 2.05268 1.14645 2.14645C1.05268 2.24021 1 2.36739 1 2.5V14.5C1 14.776 1.224 15 1.5 15H9V10.5C9.00035 10.1023 9.1585 9.72096 9.43973 9.43973C9.72096 9.1585 10.1023 9.00035 10.5 9H15V2.5C15 2.36739 14.9473 2.24021 14.8536 2.14645C14.7598 2.05268 14.6326 2 14.5 2H13V2.5C13 2.63261 12.9473 2.75979 12.8536 2.85355C12.7598 2.94732 12.6326 3 12.5 3C12.3674 3 12.2402 2.94732 12.1464 2.85355C12.0527 2.75979 12 2.63261 12 2.5V2H4V2.5C4 2.63261 3.94732 2.75979 3.85355 2.85355C3.75979 2.94732 3.63261 3 3.5 3C3.36739 3 3.24021 2.94732 3.14645 2.85355C3.05268 2.75979 3 2.63261 3 2.5V2H1.5ZM10.5 10C10.3674 10 10.2402 10.0527 10.1464 10.1464C10.0527 10.2402 10 10.3674 10 10.5V14.2927L14.2927 10H10.5Z" fill="#5B5C60"/>
<path d="M3.5 6C3.36739 6 3.24021 5.94732 3.14645 5.85355C3.05268 5.75978 3 5.63261 3 5.5C3 5.36739 3.05268 5.24021 3.14645 5.14645C3.24021 5.05268 3.36739 5 3.5 5H11.5C11.6326 5 11.7598 5.05268 11.8536 5.14645C11.9473 5.24021 12 5.36739 12 5.5C12 5.63261 11.9473 5.75978 11.8536 5.85355C11.7598 5.94732 11.6326 6 11.5 6H3.5Z" fill="#5B5C60"/>
<path d="M3.5 9C3.36739 9 3.24021 8.94732 3.14645 8.85355C3.05268 8.75978 3 8.63261 3 8.5C3 8.36739 3.05268 8.24022 3.14645 8.14645C3.24021 8.05268 3.36739 8 3.5 8H7C7.13261 8 7.25979 8.05268 7.35355 8.14645C7.44732 8.24022 7.5 8.36739 7.5 8.5C7.5 8.63261 7.44732 8.75978 7.35355 8.85355C7.25979 8.94732 7.13261 9 7 9H3.5Z" fill="#5B5C60"/>
</svg>
