<svg width="24" height="24" viewBox="0 0 24 24" fill="none" xmlns="http://www.w3.org/2000/svg">
<path d="M7.04004 8.71997H17.12" stroke="#5B5C60" stroke-linecap="round" stroke-linejoin="round"/>
<path d="M7.04004 12.92H17.12" stroke="#5B5C60" stroke-linecap="round" stroke-linejoin="round"/>
<path d="M7.04004 17.12H17.12" stroke="#5B5C60" stroke-linecap="round" stroke-linejoin="round"/>
<path d="M7.04 2H20.48C20.9256 2 21.3529 2.177 21.6679 2.49206C21.983 2.80712 22.16 3.23444 22.16 3.68V21.32C22.16 21.7656 21.983 22.1929 21.6679 22.5079C21.3529 22.823 20.9256 23 20.48 23H3.68C3.23444 23 2.80712 22.823 2.49206 22.5079C2.177 22.1929 2 21.7656 2 21.32V3.68C2 3.23444 2.177 2.80712 2.49206 2.49206C2.80712 2.177 3.23444 2 3.68 2H7.88" stroke="#5B5C60" stroke-linecap="round" stroke-linejoin="round"/>
</svg>
