<svg width="16" height="13" viewBox="0 0 16 13" fill="none" xmlns="http://www.w3.org/2000/svg">
<path d="M5.3335 12.5C4.23083 12.5 3.3335 11.6027 3.3335 10.5C3.3335 9.39733 4.23083 8.5 5.3335 8.5C6.43616 8.5 7.3335 9.39733 7.3335 10.5C7.3335 11.6027 6.43616 12.5 5.3335 12.5ZM5.3335 9.16667C4.59816 9.16667 4.00016 9.76467 4.00016 10.5C4.00016 11.2353 4.59816 11.8333 5.3335 11.8333C6.06883 11.8333 6.66683 11.2353 6.66683 10.5C6.66683 9.76467 6.06883 9.16667 5.3335 9.16667Z" fill="#5B5C60"/>
<path d="M12.6665 12.5C11.5638 12.5 10.6665 11.6027 10.6665 10.5C10.6665 9.39733 11.5638 8.5 12.6665 8.5C13.7692 8.5 14.6665 9.39733 14.6665 10.5C14.6665 11.6027 13.7692 12.5 12.6665 12.5ZM12.6665 9.16667C11.9312 9.16667 11.3332 9.76467 11.3332 10.5C11.3332 11.2353 11.9312 11.8333 12.6665 11.8333C13.4018 11.8333 13.9998 11.2353 13.9998 10.5C13.9998 9.76467 13.4018 9.16667 12.6665 9.16667Z" fill="#5B5C60"/>
<path d="M1 11.1667C0.448667 11.1667 0 10.718 0 10.1667V6.16667C0.00437313 5.3726 0.321665 4.61227 0.883041 4.05065C1.44442 3.48902 2.2046 3.17139 2.99867 3.16667H5.33333V1.5C5.33333 0.948667 5.782 0.5 6.33333 0.5H15C15.5513 0.5 16 0.948667 16 1.5V10.1667C16 10.2551 15.9649 10.3399 15.9024 10.4024C15.8399 10.4649 15.7551 10.5 15.6667 10.5C15.5783 10.5 15.4935 10.4649 15.431 10.4024C15.3685 10.3399 15.3333 10.2551 15.3333 10.1667V1.5C15.3333 1.41159 15.2982 1.32681 15.2357 1.2643C15.1732 1.20179 15.0884 1.16667 15 1.16667H6.33333C6.24493 1.16667 6.16014 1.20179 6.09763 1.2643C6.03512 1.32681 6 1.41159 6 1.5V7.5C6 7.58841 5.96488 7.67319 5.90237 7.7357C5.83986 7.79821 5.75507 7.83333 5.66667 7.83333C5.57826 7.83333 5.49348 7.79821 5.43096 7.7357C5.36845 7.67319 5.33333 7.58841 5.33333 7.5V7.16667H0.666667V9.16667H2.66667C2.75507 9.16667 2.83986 9.20179 2.90237 9.2643C2.96488 9.32681 3 9.41159 3 9.5C3 9.58841 2.96488 9.67319 2.90237 9.7357C2.83986 9.79821 2.75507 9.83333 2.66667 9.83333H0.666667V10.1667C0.666667 10.2551 0.701786 10.3399 0.764298 10.4024C0.82681 10.4649 0.911595 10.5 1 10.5H2.33333C2.42174 10.5 2.50652 10.5351 2.56904 10.5976C2.63155 10.6601 2.66667 10.7449 2.66667 10.8333C2.66667 10.9217 2.63155 11.0065 2.56904 11.069C2.50652 11.1315 2.42174 11.1667 2.33333 11.1667H1ZM5.33333 6.5V3.83333H3.00067C2.38262 3.83684 1.79089 4.08395 1.35391 4.52105C0.916942 4.95815 0.669992 5.54995 0.666667 6.168V6.5H5.33333Z" fill="#5B5C60"/>
<path d="M8.33333 10.5C8.24493 10.5 8.16014 10.4649 8.09763 10.4024C8.03512 10.3399 8 10.2551 8 10.1667C8 10.0783 8.03512 9.99352 8.09763 9.931C8.16014 9.86849 8.24493 9.83337 8.33333 9.83337H9.66667C9.75507 9.83337 9.83986 9.86849 9.90237 9.931C9.96488 9.99352 10 10.0783 10 10.1667C10 10.2551 9.96488 10.3399 9.90237 10.4024C9.83986 10.4649 9.75507 10.5 9.66667 10.5H8.33333Z" fill="#5B5C60"/>
</svg>
