<svg width="16" height="16" viewBox="0 0 16 16" fill="none" xmlns="http://www.w3.org/2000/svg">
<path d="M8 16C3.58898 16 0 12.411 0 8C0 3.58898 3.58898 0 8 0C12.411 0 16 3.58898 16 8C16 12.411 12.411 16 8 16ZM8 1.06667C4.17707 1.06667 1.06667 4.17707 1.06667 8C1.06667 11.8229 4.17707 14.9333 8 14.9333C11.8229 14.9333 14.9333 11.8229 14.9333 8C14.9333 4.17707 11.8229 1.06667 8 1.06667Z" fill="#5B5C60"/>
<path d="M11.3329 11.867C11.2628 11.8672 11.1934 11.8535 11.1287 11.8266C11.064 11.7998 11.0053 11.7603 10.956 11.7106L7.62302 8.37688C7.57311 8.32715 7.53369 8.2679 7.50711 8.20265L7.50071 8.18488C7.47852 8.12576 7.4672 8.06313 7.46729 7.99999V5.33332C7.46729 5.19187 7.52348 5.05622 7.62349 4.9562C7.72351 4.85618 7.85917 4.79999 8.00062 4.79999C8.14207 4.79999 8.27772 4.85618 8.37774 4.9562C8.47776 5.05622 8.53395 5.19187 8.53395 5.33332V7.77883L11.7105 10.9561C11.7605 11.0053 11.8001 11.064 11.8272 11.1287C11.8543 11.1934 11.8682 11.2628 11.8682 11.333C11.8682 11.4031 11.8543 11.4726 11.8272 11.5373C11.8001 11.602 11.7605 11.6606 11.7105 11.7099C11.6104 11.8102 11.4746 11.8667 11.3329 11.867Z" fill="#5B5C60"/>
</svg>
