<svg width="16" height="16" viewBox="0 0 16 16" fill="none" xmlns="http://www.w3.org/2000/svg">
<path d="M15.6669 15.9992C15.623 15.9993 15.5797 15.9907 15.5392 15.974C15.4987 15.9573 15.4619 15.9328 15.4309 15.9019L8.00019 8.47054L0.569519 15.9019C0.538571 15.9329 0.501821 15.9575 0.461369 15.9742C0.420916 15.991 0.377553 15.9997 0.333755 15.9997C0.289956 15.9998 0.246581 15.9912 0.206104 15.9744C0.165628 15.9577 0.128844 15.9332 0.0978521 15.9022C0.0668602 15.8713 0.0422674 15.8345 0.0254779 15.7941C0.0086884 15.7536 3.10362e-05 15.7102 8.32946e-08 15.6664C-3.08696e-05 15.6226 0.0085652 15.5793 0.0252975 15.5388C0.0420298 15.4983 0.0665706 15.4615 0.0975188 15.4305L7.52819 7.99988L0.0981854 0.568542C0.0355944 0.50604 0.000395929 0.421233 0.000333417 0.332778C0.000270905 0.244323 0.0353494 0.159467 0.0978521 0.0968756C0.160355 0.0342845 0.245162 -0.000913967 0.333616 -0.000976479C0.422071 -0.00103899 0.506928 0.0340395 0.569519 0.0965422L8.00019 7.52787L15.4315 0.0972089C15.4625 0.0662169 15.4992 0.0416241 15.5397 0.0248346C15.5801 0.00804516 15.6235 -0.000612204 15.6673 -0.000643158C15.7111 -0.000674112 15.7545 0.00792195 15.7949 0.0246542C15.8354 0.0413865 15.8722 0.0659273 15.9032 0.0968755C15.9342 0.127824 15.9588 0.164573 15.9756 0.205026C15.9924 0.245478 16.001 0.288842 16.001 0.33264C16.0011 0.376438 15.9925 0.419814 15.9757 0.46029C15.959 0.500766 15.9345 0.53755 15.9035 0.568542L8.47152 7.99921L15.9022 15.4299C15.9489 15.4765 15.9807 15.5358 15.9936 15.6005C16.0066 15.6652 16 15.7323 15.9748 15.7932C15.9496 15.8542 15.9069 15.9063 15.8521 15.9429C15.7973 15.9796 15.7328 15.9992 15.6669 15.9992Z" fill="white"/>
</svg>
