<svg width="16" height="16" viewBox="0 0 16 16" fill="none" xmlns="http://www.w3.org/2000/svg">
<path d="M7.33348 11.3322C7.25795 11.332 7.18468 11.3064 7.12548 11.2595L3.79215 8.59284C3.72849 8.53597 3.68902 8.45688 3.68184 8.37181C3.67467 8.28675 3.70035 8.20216 3.75359 8.13544C3.80684 8.06871 3.88361 8.0249 3.96815 8.01301C4.05268 8.00112 4.13856 8.02206 4.20815 8.07151L7.27082 10.5215L11.7321 4.46751C11.7582 4.43227 11.7908 4.4025 11.8283 4.37989C11.8659 4.35729 11.9074 4.34229 11.9507 4.33576C11.9941 4.32923 12.0382 4.33129 12.0807 4.34183C12.1232 4.35237 12.1632 4.37117 12.1985 4.39717C12.2337 4.42318 12.2635 4.45586 12.2861 4.49337C12.3087 4.53088 12.3237 4.57247 12.3302 4.61577C12.3368 4.65908 12.3347 4.70324 12.3242 4.74575C12.3136 4.78826 12.2948 4.82827 12.2688 4.86351L7.60215 11.1968C7.57115 11.2389 7.53066 11.2731 7.48399 11.2966C7.43731 11.3201 7.38575 11.3323 7.33348 11.3322Z" fill="white"/>
<path d="M8 15.999C3.58867 15.999 0 12.4104 0 7.99902C0 3.58769 3.58867 -0.000976562 8 -0.000976562C12.4113 -0.000976562 16 3.58769 16 7.99902C16 12.4104 12.4113 15.999 8 15.999ZM8 0.66569C3.95667 0.66569 0.666667 3.95569 0.666667 7.99902C0.666667 12.0424 3.95667 15.3324 8 15.3324C12.0433 15.3324 15.3333 12.0424 15.3333 7.99902C15.3333 3.95569 12.0433 0.66569 8 0.66569Z" fill="white"/>
</svg>
