<svg width="24" height="24" viewBox="0 0 24 24" fill="none" xmlns="http://www.w3.org/2000/svg">
<path d="M23.5003 23.9988C23.4346 23.9989 23.3695 23.9861 23.3087 23.961C23.248 23.936 23.1928 23.8992 23.1463 23.8528L12.0003 12.7058L0.854278 23.8528C0.807856 23.8993 0.752732 23.9362 0.692053 23.9614C0.631374 23.9866 0.566329 23.9995 0.500632 23.9996C0.434934 23.9996 0.369871 23.9867 0.309157 23.9616C0.248442 23.9365 0.193266 23.8997 0.146778 23.8533C0.10029 23.8069 0.063401 23.7518 0.0382168 23.6911C0.0130326 23.6304 4.65542e-05 23.5654 1.24942e-07 23.4997C-4.63044e-05 23.434 0.0128478 23.3689 0.0379462 23.3082C0.0630447 23.2475 0.0998559 23.1923 0.146278 23.1458L11.2923 11.9998L0.147278 0.852813C0.0533915 0.759059 0.000593893 0.631849 0.000500125 0.499167C0.000406357 0.366485 0.0530242 0.2392 0.146778 0.145313C0.240532 0.0514267 0.367743 -0.00137095 0.500425 -0.00146472C0.633107 -0.00155849 0.760392 0.0510593 0.854278 0.144813L12.0003 11.2918L23.1473 0.145813C23.1937 0.0993254 23.2488 0.0624362 23.3095 0.037252C23.3702 0.0120677 23.4352 -0.000918306 23.5009 -0.000964737C23.5666 -0.00101117 23.6317 0.0118829 23.6924 0.0369814C23.7531 0.0620798 23.8083 0.098891 23.8548 0.145313C23.9013 0.191736 23.9382 0.24686 23.9633 0.307539C23.9885 0.368217 24.0015 0.433262 24.0016 0.49896C24.0016 0.564657 23.9887 0.629721 23.9636 0.690435C23.9385 0.751149 23.9017 0.806325 23.8553 0.852813L12.7073 11.9988L23.8533 23.1448C23.9233 23.2147 23.9711 23.3038 23.9905 23.4008C24.0099 23.4978 24 23.5984 23.9623 23.6898C23.9245 23.7812 23.8604 23.8594 23.7782 23.9144C23.6959 23.9694 23.5992 23.9988 23.5003 23.9988V23.9988Z" fill="#5B5C60"/>
</svg>
