<svg width="15" height="16" viewBox="0 0 15 16" fill="none" xmlns="http://www.w3.org/2000/svg">
<path d="M6.8253 16C6.27397 16 5.8253 15.5513 5.8253 15V8.50467L0.68597 1.59933C0.575217 1.45059 0.507949 1.274 0.491662 1.08927C0.475376 0.904532 0.510712 0.718904 0.593731 0.553073C0.67675 0.387241 0.804191 0.247723 0.961849 0.150069C1.11951 0.0524143 1.30119 0.000461172 1.48664 0L13.4993 0C13.6848 0.000461172 13.8664 0.0524143 14.0241 0.150069C14.1817 0.247723 14.3092 0.387241 14.3922 0.553073C14.4752 0.718904 14.5106 0.904532 14.4943 1.08927C14.478 1.274 14.4107 1.45059 14.3 1.59933L9.15864 8.50333V14C9.15864 14.3127 9.0093 14.612 8.75864 14.8L7.4253 15.8C7.2533 15.9293 7.03997 16 6.8253 16ZM1.48664 0.666667C1.42473 0.666667 1.36405 0.683905 1.31139 0.71645C1.25873 0.748995 1.21618 0.79556 1.18849 0.850929C1.16081 0.906297 1.14909 0.968281 1.15465 1.02994C1.16021 1.09159 1.18283 1.15048 1.21997 1.2L6.42597 8.19533C6.46882 8.25271 6.49197 8.32239 6.49197 8.394V15C6.49197 15.0619 6.50921 15.1226 6.54175 15.1752C6.5743 15.2279 6.62086 15.2705 6.67623 15.2981C6.7316 15.3258 6.79358 15.3375 6.85524 15.332C6.91689 15.3264 6.97578 15.3038 7.0253 15.2667L8.35864 14.2667C8.39988 14.2355 8.43337 14.1952 8.4565 14.1489C8.47963 14.1027 8.49177 14.0517 8.49197 14V8.39333C8.49197 8.322 8.5153 8.25133 8.55797 8.194L13.766 1.2C13.8029 1.15041 13.8253 1.09156 13.8307 1.03C13.8361 0.968434 13.8244 0.906572 13.7967 0.851295C13.7691 0.796017 13.7266 0.749492 13.6741 0.716896C13.6216 0.684301 13.5611 0.666912 13.4993 0.666667H1.48664Z" fill="#5B5C60"/>
</svg>
