<svg width="15" height="16" viewBox="0 0 15 16" fill="none" xmlns="http://www.w3.org/2000/svg">
<path d="M11.8512 15.498C11.7093 15.4983 11.571 15.4533 11.4565 15.3694L7.50052 12.4667L3.54252 15.3694C3.42852 15.4521 3.29124 15.4967 3.15036 15.4966C3.00949 15.4965 2.87227 15.4518 2.75839 15.3688C2.64451 15.2859 2.55983 15.169 2.51649 15.035C2.47316 14.9009 2.4734 14.7566 2.51718 14.6227L4.11252 9.83071L0.305184 6.67471C0.200594 6.58666 0.125605 6.46858 0.090379 6.33648C0.0551533 6.20438 0.0613949 6.06464 0.108258 5.9362C0.155121 5.80776 0.240339 5.69684 0.352363 5.61847C0.464387 5.54009 0.597799 5.49805 0.734518 5.49805H5.26452L6.87452 0.936047C6.97385 0.67138 7.22518 0.498047 7.50118 0.498047C7.63663 0.498369 7.76878 0.539858 7.8801 0.617011C7.99143 0.694164 8.07667 0.803335 8.12452 0.930047L9.73585 5.49805H14.2652C14.4013 5.4984 14.5341 5.54037 14.6456 5.61833C14.7572 5.69629 14.8423 5.8065 14.8894 5.93418C14.9366 6.06187 14.9436 6.20092 14.9095 6.33269C14.8753 6.46446 14.8017 6.58264 14.6985 6.67138L10.8885 9.83071L12.4832 14.6214C12.5158 14.7215 12.5243 14.8279 12.5081 14.9319C12.4919 15.036 12.4513 15.1347 12.3897 15.2201C12.3282 15.3056 12.2473 15.3753 12.1537 15.4235C12.0601 15.4718 11.9565 15.4974 11.8512 15.498ZM4.71318 9.46271C4.81852 9.54938 4.85985 9.69538 4.81652 9.82471L3.14985 14.8314L7.30318 11.784C7.36027 11.7417 7.42945 11.7189 7.50052 11.7189C7.57158 11.7189 7.64076 11.7417 7.69785 11.784L11.8512 14.8314L10.1845 9.82471C10.1637 9.76089 10.1625 9.69229 10.181 9.62777C10.1996 9.56325 10.237 9.50576 10.2885 9.46271L14.2705 6.16138L9.50118 6.16471C9.43233 6.16467 9.36517 6.14331 9.30894 6.10356C9.25272 6.06381 9.21018 6.00762 9.18719 5.94271L7.49985 1.15871L5.81452 5.94271C5.79152 6.00762 5.74898 6.06381 5.69276 6.10356C5.63653 6.14331 5.56938 6.16467 5.50052 6.16471H0.734518L4.71318 9.46271Z" fill="#5B5C60"/>
</svg>
