<svg width="25" height="24" viewBox="0 0 25 24" fill="none" xmlns="http://www.w3.org/2000/svg">
<path d="M8.5 19.645V22.445C8.50003 22.5794 8.46262 22.7111 8.39196 22.8254C8.32131 22.9396 8.22021 23.032 8.1 23.092C7.75843 23.2627 7.38183 23.3515 7 23.3515C6.61817 23.3515 6.24157 23.2627 5.9 23.092C5.77979 23.032 5.67869 22.9396 5.60804 22.8254C5.53738 22.7111 5.49997 22.5794 5.5 22.445V19.645" stroke="#5B5C60" stroke-linecap="round" stroke-linejoin="round"/>
<path d="M19.5 19.645V22.445C19.5 22.5794 19.4626 22.7111 19.392 22.8254C19.3213 22.9396 19.2202 23.032 19.1 23.092C18.7584 23.2627 18.3818 23.3515 18 23.3515C17.6182 23.3515 17.2416 23.2627 16.9 23.092C16.7798 23.032 16.6787 22.9396 16.608 22.8254C16.5374 22.7111 16.5 22.5794 16.5 22.445V19.645" stroke="#5B5C60" stroke-linecap="round" stroke-linejoin="round"/>
<path d="M8.5 19.645H16.5V21.645H8.5V19.645Z" stroke="#5B5C60" stroke-linecap="round" stroke-linejoin="round"/>
<path d="M18.5 17.645H12.5V12.645H18C18.1326 12.645 18.2598 12.6977 18.3536 12.7915C18.4473 12.8852 18.5 13.0124 18.5 13.145V17.645Z" stroke="#5B5C60" stroke-linecap="round" stroke-linejoin="round"/>
<path d="M6.5 2.645H18.5" stroke="#5B5C60" stroke-linecap="round" stroke-linejoin="round"/>
<path d="M6.5 4.645H18.5" stroke="#5B5C60" stroke-linecap="round" stroke-linejoin="round"/>
<path d="M4.5 17.645V1.645C4.5 1.37979 4.60536 1.12543 4.79289 0.937898C4.98043 0.750361 5.23478 0.645004 5.5 0.645004H19.5C19.7652 0.645004 20.0196 0.750361 20.2071 0.937898C20.3946 1.12543 20.5 1.37979 20.5 1.645V17.645" stroke="#5B5C60" stroke-linecap="round" stroke-linejoin="round"/>
<path d="M15.5 12.645V14.645" stroke="#5B5C60" stroke-linecap="round" stroke-linejoin="round"/>
<path d="M12.5 17.645H6.5V13.145C6.5 13.0124 6.55268 12.8852 6.64645 12.7915C6.74021 12.6977 6.86739 12.645 7 12.645H12.5V17.645Z" stroke="#5B5C60" stroke-linecap="round" stroke-linejoin="round"/>
<path d="M9.5 12.645V14.645" stroke="#5B5C60" stroke-linecap="round" stroke-linejoin="round"/>
<path d="M15.5 12.645H9.5V9.145C9.5 9.0124 9.55268 8.88522 9.64645 8.79145C9.74021 8.69768 9.86739 8.645 10 8.645H15C15.1326 8.645 15.2598 8.69768 15.3536 8.79145C15.4473 8.88522 15.5 9.0124 15.5 9.145V12.645Z" stroke="#5B5C60" stroke-linecap="round" stroke-linejoin="round"/>
<path d="M12.5 8.645V10.645" stroke="#5B5C60" stroke-linecap="round" stroke-linejoin="round"/>
<path d="M21.2761 19.092C21.1931 19.2581 21.0655 19.3978 20.9076 19.4955C20.7497 19.5931 20.5677 19.6449 20.3821 19.645H4.61807C4.4324 19.6449 4.25044 19.5931 4.09254 19.4955C3.93464 19.3978 3.80706 19.2581 3.72407 19.092L3.36207 18.369C3.32387 18.2928 3.3058 18.208 3.30957 18.1229C3.31335 18.0377 3.33884 17.9549 3.38364 17.8823C3.42843 17.8098 3.49103 17.7499 3.56549 17.7084C3.63995 17.6668 3.7238 17.645 3.80907 17.645H21.1911C21.2763 17.645 21.3602 17.6668 21.4346 17.7084C21.5091 17.7499 21.5717 17.8098 21.6165 17.8823C21.6613 17.9549 21.6868 18.0377 21.6906 18.1229C21.6943 18.208 21.6763 18.2928 21.6381 18.369L21.2761 19.092Z" stroke="#5B5C60" stroke-linecap="round" stroke-linejoin="round"/>
</svg>
