<svg width="16" height="16" viewBox="0 0 16 16" fill="none" xmlns="http://www.w3.org/2000/svg">
<path d="M11.9678 14.4873C11.9064 14.4875 11.8462 14.4706 11.7938 14.4386C11.7415 14.4066 11.699 14.3607 11.6711 14.306L8.30112 7.72197L4.93113 14.306C4.91142 14.3451 4.88416 14.3799 4.85092 14.4084C4.81767 14.4369 4.77911 14.4586 4.73744 14.4721C4.69578 14.4856 4.65186 14.4907 4.6082 14.4872C4.56455 14.4836 4.52204 14.4714 4.48312 14.4513C4.40445 14.411 4.34498 14.3411 4.31774 14.257C4.2905 14.1729 4.29771 14.0814 4.33779 14.0026L7.92646 6.99131L7.55646 6.26931L3.37712 8.76597C3.22979 8.85397 3.08979 8.89864 2.96046 8.89864C2.84979 8.90059 2.74187 8.86407 2.65512 8.79531C2.56912 8.72597 2.38379 8.51797 2.52846 8.08397L3.19979 6.06997L1.21712 5.64598C0.783125 5.55331 0.688458 5.31131 0.670458 5.17597C0.652458 5.03997 0.681125 4.78198 1.07579 4.57931L5.52379 2.29531L5.37113 1.99797C5.34469 1.94721 5.33182 1.89046 5.33379 1.83326C5.33575 1.77605 5.35247 1.72032 5.38232 1.67148C5.41218 1.62264 5.45415 1.58235 5.50417 1.55452C5.55419 1.52669 5.61055 1.51226 5.66779 1.51264C5.79379 1.51264 5.90712 1.58197 5.96446 1.69397L6.26112 2.27331C6.26687 2.2824 6.27178 2.292 6.27579 2.30197L8.30112 6.25864L10.3265 2.30197C10.3283 2.29748 10.3303 2.29303 10.3325 2.28864L10.3411 2.27331L10.6371 1.69464C10.6571 1.65564 10.6845 1.62095 10.7179 1.59255C10.7513 1.56416 10.7899 1.54262 10.8316 1.52915C10.8733 1.51569 10.9172 1.51057 10.9609 1.51408C11.0046 1.5176 11.0471 1.52968 11.0861 1.54964C11.1251 1.5696 11.1598 1.59705 11.1882 1.63042C11.2166 1.66378 11.2382 1.70242 11.2516 1.74411C11.2651 1.7858 11.2702 1.82974 11.2667 1.87341C11.2632 1.91709 11.2511 1.95964 11.2311 1.99864L11.0785 2.29597L15.5265 4.57997C15.9205 4.78264 15.9498 5.04064 15.9318 5.17597C15.9138 5.31198 15.8191 5.55331 15.3851 5.64664L13.4018 6.06931L14.0731 8.08331C14.2178 8.51797 14.0325 8.72597 13.9465 8.79531C13.8597 8.86407 13.7518 8.90059 13.6411 8.89864C13.5125 8.89864 13.3718 8.85397 13.2245 8.76597L9.04446 6.26931L8.67513 6.99131L12.2645 14.0026C12.2901 14.0535 12.3024 14.11 12.3001 14.1669C12.2978 14.2238 12.281 14.2791 12.2512 14.3277C12.2215 14.3762 12.1799 14.4164 12.1303 14.4443C12.0807 14.4723 12.0247 14.4871 11.9678 14.4873ZM3.70379 5.49464C3.74955 5.50462 3.7927 5.52409 3.83046 5.5518C3.86822 5.57951 3.89974 5.61483 3.92299 5.65548C3.94624 5.69614 3.9607 5.74122 3.96543 5.78782C3.97016 5.83441 3.96506 5.88148 3.95046 5.92597L3.23446 8.07331L7.25246 5.67331L5.82712 2.88864L1.61912 5.04997L3.70379 5.49464ZM13.3678 8.07331L12.6518 5.92597C12.6369 5.88149 12.6315 5.83435 12.636 5.78764C12.6406 5.74093 12.6549 5.69571 12.6781 5.65493C12.7013 5.61415 12.7329 5.57873 12.7708 5.551C12.8086 5.52326 12.8519 5.50383 12.8978 5.49398L14.9831 5.04931L10.7745 2.88797L9.34979 5.67331L13.3678 8.07331Z" fill="#5B5C60"/>
</svg>
