<svg width="13" height="24" viewBox="0 0 13 24" fill="none" xmlns="http://www.w3.org/2000/svg">
<path d="M5.50492 24.0019C4.71432 24.0013 3.93771 23.7933 3.25265 23.3987C2.56759 23.004 1.99806 22.4366 1.60092 21.7529C1.30389 21.2417 1.11117 20.6767 1.03393 20.0905C0.956691 19.5043 0.996453 18.9087 1.15092 18.3379C1.43188 17.2825 2.08871 16.3661 2.99792 15.7609V2.49695C2.99792 1.11795 4.11892 -0.00305176 5.49792 -0.00305176C6.87692 -0.00305176 7.99792 1.11795 7.99792 2.49695V15.7609C8.57154 16.1445 9.04948 16.6546 9.39492 17.2519C9.69184 17.7632 9.8844 18.3283 9.96147 18.9145C10.0385 19.5007 9.99859 20.0963 9.84392 20.6669C9.69241 21.2384 9.42905 21.7741 9.0691 22.243C8.70914 22.712 8.25975 23.1049 7.74692 23.3989C7.06565 23.7937 6.29229 24.0017 5.50492 24.0019ZM5.49792 0.996948C4.67092 0.996948 3.99792 1.66995 3.99792 2.49695V16.0379C3.99772 16.1257 3.97453 16.2118 3.93066 16.2878C3.8868 16.3638 3.82379 16.4269 3.74792 16.4709C3.34898 16.6996 2.9994 17.0052 2.71943 17.37C2.43946 17.7347 2.23466 18.1515 2.11692 18.5959C1.99662 19.0398 1.96561 19.5031 2.02569 19.959C2.08577 20.415 2.23574 20.8544 2.46692 21.2519C2.7759 21.7837 3.21897 22.225 3.7519 22.5319C4.28482 22.8389 4.88894 23.0006 5.50392 23.0009C6.27437 23.0009 7.02323 22.7464 7.63425 22.2771C8.24527 21.8078 8.68425 21.1499 8.88305 20.4055C9.08185 19.6612 9.02934 18.872 8.73368 18.1606C8.43801 17.4491 7.91573 16.8552 7.24792 16.4709C7.17205 16.4269 7.10904 16.3638 7.06518 16.2878C7.02131 16.2118 6.99812 16.1257 6.99792 16.0379V2.49695C6.99792 1.66995 6.32492 0.996948 5.49792 0.996948Z" fill="#FFCC19"/>
<path d="M5.49805 20.9969C4.67105 20.9969 3.99805 20.3239 3.99805 19.4969C3.99805 18.8569 4.40805 18.2919 4.99805 18.0829V7.49695C4.99805 7.36434 5.05072 7.23716 5.14449 7.14339C5.23826 7.04963 5.36544 6.99695 5.49805 6.99695C5.63066 6.99695 5.75783 7.04963 5.8516 7.14339C5.94537 7.23716 5.99805 7.36434 5.99805 7.49695V18.0829C6.33034 18.202 6.61004 18.4344 6.78799 18.7392C6.96594 19.0441 7.03077 19.4019 6.97107 19.7498C6.91138 20.0977 6.73098 20.4134 6.46159 20.6415C6.19219 20.8696 5.85103 20.9955 5.49805 20.9969ZM5.49805 18.9969C5.36544 18.9969 5.23826 19.0496 5.14449 19.1434C5.05072 19.2372 4.99805 19.3643 4.99805 19.4969C4.99805 19.6296 5.05072 19.7567 5.14449 19.8505C5.23826 19.9443 5.36544 19.9969 5.49805 19.9969C5.63066 19.9969 5.75783 19.9443 5.8516 19.8505C5.94537 19.7567 5.99805 19.6296 5.99805 19.4969C5.99805 19.3643 5.94537 19.2372 5.8516 19.1434C5.75783 19.0496 5.63066 18.9969 5.49805 18.9969Z" fill="#FFCC19"/>
<path d="M9.49805 2.99695C9.36544 2.99695 9.23826 2.94427 9.14449 2.8505C9.05072 2.75673 8.99805 2.62956 8.99805 2.49695C8.99805 2.36434 9.05072 2.23716 9.14449 2.14339C9.23826 2.04963 9.36544 1.99695 9.49805 1.99695H10.498C10.6307 1.99695 10.7578 2.04963 10.8516 2.14339C10.9454 2.23716 10.998 2.36434 10.998 2.49695C10.998 2.62956 10.9454 2.75673 10.8516 2.8505C10.7578 2.94427 10.6307 2.99695 10.498 2.99695H9.49805Z" fill="#FFCC19"/>
<path d="M9.49805 7.99695C9.36544 7.99695 9.23826 7.94427 9.14449 7.8505C9.05072 7.75673 8.99805 7.62956 8.99805 7.49695C8.99805 7.36434 9.05072 7.23716 9.14449 7.14339C9.23826 7.04963 9.36544 6.99695 9.49805 6.99695H12.498C12.6307 6.99695 12.7578 7.04963 12.8516 7.14339C12.9454 7.23716 12.998 7.36434 12.998 7.49695C12.998 7.62956 12.9454 7.75673 12.8516 7.8505C12.7578 7.94427 12.6307 7.99695 12.498 7.99695H9.49805Z" fill="#FFCC19"/>
<path d="M9.49805 12.9969C9.36544 12.9969 9.23826 12.9443 9.14449 12.8505C9.05072 12.7567 8.99805 12.6296 8.99805 12.4969C8.99805 12.3643 9.05072 12.2372 9.14449 12.1434C9.23826 12.0496 9.36544 11.9969 9.49805 11.9969H10.498C10.6307 11.9969 10.7578 12.0496 10.8516 12.1434C10.9454 12.2372 10.998 12.3643 10.998 12.4969C10.998 12.6296 10.9454 12.7567 10.8516 12.8505C10.7578 12.9443 10.6307 12.9969 10.498 12.9969H9.49805Z" fill="#FFCC19"/>
</svg>
