<svg width="24" height="24" viewBox="0 0 24 24" fill="none" xmlns="http://www.w3.org/2000/svg">
<path d="M11.999 24.001C5.38202 24.001 -0.000976562 18.618 -0.000976562 12.001C-0.000976562 5.38398 5.38202 0.000976562 11.999 0.000976562C18.616 0.000976562 23.999 5.38398 23.999 12.001C23.999 18.618 18.616 24.001 11.999 24.001ZM11.999 1.00098C5.93402 1.00098 0.999023 5.93598 0.999023 12.001C0.999023 18.066 5.93402 23.001 11.999 23.001C18.064 23.001 22.999 18.066 22.999 12.001C22.999 5.93598 18.064 1.00098 11.999 1.00098Z" fill="#B8BAC2"/>
<path d="M18 18.001C17.875 18.0007 17.7545 17.9541 17.662 17.87L11.662 12.37C11.6109 12.323 11.5701 12.266 11.5423 12.2025C11.5144 12.139 11.5 12.0703 11.5 12.001V6.50098C11.5 6.36837 11.5527 6.24119 11.6464 6.14742C11.7402 6.05366 11.8674 6.00098 12 6.00098C12.1326 6.00098 12.2598 6.05366 12.3536 6.14742C12.4473 6.24119 12.5 6.36837 12.5 6.50098V11.781L18.338 17.132C18.4135 17.1996 18.4666 17.2886 18.4902 17.3871C18.5137 17.4857 18.5067 17.5891 18.47 17.6835C18.4332 17.778 18.3686 17.859 18.2846 17.9157C18.2006 17.9724 18.1013 18.0022 18 18.001Z" fill="#B8BAC2"/>
</svg>
