<svg width="24" height="21" viewBox="0 0 24 21" fill="none" xmlns="http://www.w3.org/2000/svg">
<path d="M19.816 17.69C19.7831 17.6902 19.7505 17.6838 19.7202 17.6712C19.6898 17.6587 19.6622 17.6403 19.639 17.617L19.285 17.264C19.238 17.217 19.212 17.154 19.212 17.087C19.212 17.02 19.238 16.957 19.285 16.91C20.3096 15.8908 21.122 14.6785 21.6751 13.3433C22.2281 12.008 22.5109 10.5763 22.507 9.13105C22.5107 7.68595 22.2279 6.25446 21.6749 4.91938C21.1218 3.5843 20.3095 2.37214 19.285 1.35305C19.1912 1.25916 19.1386 1.13187 19.1387 0.999192C19.1388 0.86651 19.1916 0.7393 19.2855 0.645546C19.3793 0.551792 19.5066 0.499174 19.6393 0.499268C19.772 0.499361 19.8992 0.552159 19.993 0.646046C21.1109 1.75762 21.9972 3.07992 22.6005 4.53639C23.2039 5.99286 23.5123 7.55455 23.5079 9.13105C23.5079 12.336 22.26 15.35 19.993 17.616C19.9698 17.6395 19.9423 17.6581 19.9119 17.6709C19.8815 17.6836 19.8489 17.6901 19.816 17.69Z" fill="#4F9E52"/>
<path d="M16.807 14.9341C16.708 14.9342 16.6112 14.905 16.5288 14.8501C16.4464 14.7952 16.3822 14.717 16.3443 14.6255C16.3063 14.5341 16.2964 14.4334 16.3158 14.3363C16.3352 14.2392 16.3829 14.15 16.453 14.0801C17.1051 13.4315 17.622 12.6601 17.9739 11.8104C18.3258 10.9608 18.5056 10.0497 18.503 9.13007C18.503 7.26007 17.775 5.50207 16.453 4.18007C16.4066 4.13358 16.3697 4.07839 16.3445 4.01765C16.3194 3.95692 16.3064 3.89182 16.3064 3.82607C16.3064 3.76033 16.3194 3.69523 16.3445 3.63449C16.3697 3.57375 16.4066 3.51856 16.453 3.47207C16.4995 3.42558 16.5547 3.38871 16.6155 3.36355C16.6762 3.33839 16.7413 3.32544 16.807 3.32544C16.8728 3.32544 16.9379 3.33839 16.9986 3.36355C17.0594 3.38871 17.1146 3.42558 17.161 3.47207C17.9062 4.21325 18.497 5.09487 18.8992 6.06589C19.3013 7.03691 19.5069 8.07806 19.504 9.12907C19.5069 10.1801 19.3013 11.2212 18.8992 12.1923C18.497 13.1633 17.9062 14.0449 17.161 14.7861C17.1149 14.8331 17.0598 14.8704 16.999 14.8958C16.9382 14.9212 16.8729 14.9342 16.807 14.9341Z" fill="#4F9E52"/>
<path d="M4.37381 17.764C4.30192 17.764 4.23087 17.7486 4.16547 17.7188C4.10008 17.6889 4.04187 17.6453 3.99481 17.591C1.74981 15.347 0.507808 12.337 0.509808 9.13C0.505623 7.55419 0.813749 5.99317 1.41638 4.53714C2.01901 3.08111 2.9042 1.75893 4.02081 0.647001C4.11656 0.564603 4.23991 0.52142 4.36615 0.526101C4.4924 0.530782 4.61221 0.582982 4.7016 0.672246C4.79099 0.76151 4.84336 0.881249 4.84822 1.00748C4.85308 1.13372 4.81007 1.25713 4.72781 1.353C3.70311 2.372 2.89071 3.58414 2.33765 4.91924C1.78459 6.25434 1.50185 7.68589 1.50581 9.131C1.50581 12.067 2.64881 14.828 4.72381 16.905C4.79491 16.9746 4.84367 17.0638 4.86388 17.1612C4.88409 17.2587 4.87484 17.3599 4.83729 17.452C4.79975 17.5442 4.73562 17.6231 4.65307 17.6786C4.57053 17.7342 4.47331 17.7639 4.37381 17.764Z" fill="#4F9E52"/>
<path d="M7.20574 14.934C7.14004 14.9341 7.07495 14.9213 7.01421 14.8962C6.95347 14.8712 6.89826 14.8344 6.85174 14.788C6.10716 14.0466 5.51704 13.1649 5.11554 12.1938C4.71405 11.2228 4.50916 10.1818 4.51274 9.13101C4.51274 6.99201 5.34374 4.98301 6.85274 3.47401C6.89903 3.42736 6.9541 3.39033 7.01477 3.36506C7.07545 3.33979 7.14052 3.32678 7.20624 3.32678C7.27196 3.32678 7.33704 3.33979 7.39771 3.36506C7.45838 3.39033 7.51345 3.42736 7.55974 3.47401C7.60651 3.52023 7.64365 3.57528 7.66899 3.63596C7.69434 3.69664 7.70739 3.76175 7.70739 3.82751C7.70739 3.89327 7.69434 3.95838 7.66899 4.01906C7.64365 4.07974 7.60651 4.13478 7.55974 4.18101C6.9077 4.82955 6.39078 5.60099 6.03889 6.45066C5.68701 7.30033 5.50715 8.21136 5.50974 9.13101C5.50974 11.001 6.23774 12.759 7.55974 14.081C7.6295 14.151 7.67697 14.2401 7.69614 14.337C7.71531 14.434 7.70532 14.5344 7.66745 14.6257C7.62957 14.7169 7.5655 14.7949 7.48332 14.8498C7.40115 14.9047 7.30456 14.934 7.20574 14.934Z" fill="#4F9E52"/>
<path d="M12.0059 20.998C11.8733 20.998 11.7461 20.9454 11.6523 20.8516C11.5585 20.7578 11.5059 20.6307 11.5059 20.498V12.459C9.80586 12.214 8.50586 10.736 8.50586 8.99805C8.50586 7.06805 10.0759 5.49805 12.0059 5.49805C13.9359 5.49805 15.5059 7.06805 15.5059 8.99805C15.5059 10.736 14.2059 12.214 12.5059 12.459V20.498C12.5059 20.6307 12.4532 20.7578 12.3594 20.8516C12.2656 20.9454 12.1385 20.998 12.0059 20.998ZM12.0059 6.49805C10.6269 6.49805 9.50586 7.61905 9.50586 8.99805C9.50586 10.377 10.6269 11.498 12.0059 11.498C13.3839 11.498 14.5059 10.377 14.5059 8.99805C14.5059 7.61905 13.3849 6.49805 12.0059 6.49805Z" fill="#4F9E52"/>
</svg>
