<svg width="16" height="16" viewBox="0 0 16 16" fill="none" xmlns="http://www.w3.org/2000/svg">
<path d="M0.666504 1.41198C0.666565 1.29838 0.69565 1.18669 0.751 1.08749C0.80635 0.988295 0.886129 0.904887 0.982767 0.845181C1.0794 0.785475 1.1897 0.751453 1.30317 0.746342C1.41665 0.741231 1.52956 0.765201 1.63117 0.815977L14.8072 7.40398C14.9178 7.4594 15.0107 7.5445 15.0757 7.64976C15.1407 7.75502 15.1751 7.87628 15.1751 7.99998C15.1751 8.12368 15.1407 8.24494 15.0757 8.35019C15.0107 8.45545 14.9178 8.54055 14.8072 8.59598L1.63117 15.184C1.52956 15.2348 1.41665 15.2587 1.30317 15.2536C1.1897 15.2485 1.0794 15.2145 0.982767 15.1548C0.886129 15.0951 0.80635 15.0117 0.751 14.9125C0.69565 14.8133 0.666565 14.7016 0.666504 14.588V1.41198Z" stroke="#5B5C60" stroke-width="0.666667" stroke-linecap="round" stroke-linejoin="round"/>
</svg>
