<svg width="240" height="187" viewBox="0 0 240 187" fill="none" xmlns="http://www.w3.org/2000/svg">
<g clip-path="url(#clip0_1_1781)">
<path opacity="0.1" d="M84.1879 183.378C107.309 183.378 126.052 179.842 126.052 175.481C126.052 171.119 107.309 167.583 84.1879 167.583C61.0667 167.583 42.3232 171.119 42.3232 175.481C42.3232 179.842 61.0667 183.378 84.1879 183.378Z" fill="#003087"/>
<path opacity="0.1" d="M139.441 26.3725C124.055 25.8422 109.401 20.8946 95.408 15.4829C81.4151 10.0713 67.5553 4.07728 52.5378 1.21048C42.8787 -0.633647 31.8313 -0.896417 24.0504 4.25483C16.5594 9.22615 14.1393 17.7839 12.8389 25.731C11.8595 31.7108 11.2842 38.0054 13.9658 43.6041C15.8296 47.4912 19.1341 50.758 21.4211 54.4818C29.3779 67.4357 23.7532 83.4102 15.133 96.0587C11.0916 101.991 6.39639 107.658 3.27497 113.967C0.15355 120.276 -1.28948 127.53 1.44206 133.983C4.14745 140.375 10.5971 145.166 17.5841 148.539C31.7743 155.393 48.4892 157.353 64.8 158.465C100.895 160.923 137.18 159.86 173.37 158.792C186.764 158.399 200.215 157.999 213.39 155.937C220.707 154.791 228.26 152.973 233.573 148.584C240.315 143.014 241.986 133.583 237.467 126.599C229.888 114.881 208.939 111.972 203.636 99.3989C200.721 92.477 203.714 84.769 207.953 78.3513C217.044 64.5807 232.28 52.5004 233.081 36.7626C233.633 25.9535 226.308 15.1278 214.982 10.0121C203.113 4.65017 186.65 5.32485 177.896 14.1998C168.874 23.3282 153.027 26.8436 139.441 26.3725Z" fill="#003087"/>
<path d="M127.215 85.6345L119.934 80.746L123.607 75.3012L104.374 73.7743L97.4632 79.096L88.8121 74.2667L81.5969 75.1308L81.5113 73.2369C81.422 71.2626 81.2228 69.2947 80.9146 67.3424C80.9455 66.7505 80.9669 66.0711 80.9645 65.3325C80.9645 62.2195 80.5414 58.0933 78.6823 55.3425L79.1102 51.5122L75.6393 47.4286C76.1967 46.323 76.8323 45.2582 77.5412 44.2423C77.6601 44.0718 77.7789 43.9061 77.9073 43.7451C82.4123 43.4208 85.9664 39.7326 85.9664 35.2229C85.9664 35.0145 85.9664 34.8062 85.9426 34.6003C85.9426 34.5174 85.926 34.4322 85.9165 34.3493C86.3563 34.586 86.8009 34.8228 87.2454 35.0595C87.3286 35.1779 87.4237 35.2962 87.5283 35.4359L87.5497 35.4619L87.6828 35.6253L87.7256 35.675C87.7732 35.7318 87.8231 35.7863 87.873 35.8431L87.9063 35.881C88.0323 36.0206 88.1654 36.1627 88.3081 36.3023C88.3251 36.3161 88.341 36.3311 88.3556 36.3473L88.5339 36.513L88.5839 36.558C88.736 36.6929 88.8977 36.8231 89.0593 36.9462L89.1116 36.9841L89.3161 37.1238L89.3826 37.1664C89.4611 37.2137 89.5419 37.2635 89.6204 37.3084L89.6489 37.325C89.7416 37.3747 89.8367 37.4221 89.9318 37.4671L89.9793 37.486C90.0602 37.5207 90.1394 37.5539 90.2171 37.5854L90.2908 37.6115C90.374 37.6399 90.4548 37.6659 90.5404 37.6896L90.5927 37.7038C90.6973 37.7298 90.8019 37.7511 90.9089 37.7677H90.9208C91.0215 37.7839 91.1231 37.7942 91.2251 37.7985H91.294C91.3851 37.8032 91.4763 37.8032 91.5674 37.7985H91.6268C91.7409 37.7919 91.8544 37.7785 91.9668 37.7582C92.4987 37.6886 93.0094 37.5061 93.4645 37.2232C93.5804 37.1461 93.6831 37.051 93.7688 36.9415C94.2443 36.3213 93.7212 35.6419 93.7212 35.6419C93.5358 35.2015 92.3329 34.8914 92.3329 34.8914C92.3329 34.8914 88.5292 33.3101 88.5292 32.0507C88.5292 30.7913 87.5782 24.2575 77.7623 22.7638C77.7623 22.7638 71.3768 22.4063 69.5819 25.8105L69.5439 26.2082C69.0161 26.5372 68.5787 27.1977 68.0581 27.3918C67.8331 27.4399 67.6162 27.5196 67.4138 27.6286V27.5836C67.3537 27.6359 67.3045 27.6995 67.2688 27.7706C67.157 27.9922 67.0899 28.2335 67.0715 28.4808C67.0179 28.7829 66.9126 29.0736 66.76 29.3401C66.7175 29.4159 66.6699 29.4886 66.6174 29.5579L66.577 29.6218C66.853 29.6432 67.1301 29.5986 67.3853 29.4916C67.3451 29.8157 67.2652 30.1337 67.1476 30.4385C67.2987 30.4434 67.448 30.4049 67.5778 30.3277C67.7076 30.2505 67.8124 30.1378 67.8798 30.003V29.984L67.9107 29.9414C67.9705 29.8318 68.0198 29.7169 68.0581 29.5981L68.0319 29.6266C68.0795 29.4727 68.1223 29.3164 68.1746 29.1649C68.1985 29.0796 68.238 28.9994 68.291 28.9282C68.3545 28.8645 68.4321 28.8165 68.5176 28.7882C68.603 28.7598 68.694 28.7518 68.7832 28.7649L68.6857 30.8173H68.7285C68.6712 30.9666 68.6012 31.1107 68.5193 31.2482C68.1817 31.7926 67.5683 32.1643 67.3425 32.7609C67.2451 33.0486 67.2079 33.3531 67.2331 33.6557C67.2331 33.8332 67.2545 34.0132 67.2688 34.1907V34.1765C67.3021 34.65 67.3116 35.0998 67.0548 35.4809C66.8789 35.7413 66.596 35.9378 66.4985 36.2337C66.4716 36.3161 66.4595 36.4027 66.4629 36.4894C66.482 36.7488 66.5363 37.0044 66.6245 37.2493C66.6256 37.2446 66.6256 37.2397 66.6245 37.2351C66.6838 37.4152 66.6977 37.607 66.665 37.7937C66.558 38.2672 65.9803 38.6625 66.0088 39.1147C66.0072 39.1742 66.016 39.2334 66.035 39.2899C66.1461 39.5107 66.3386 39.6803 66.5722 39.7633C66.9388 39.9709 67.3597 40.0633 67.7799 40.0285C67.9374 40.0001 68.0897 39.9483 68.2316 39.8746C68.0652 40.2557 67.894 40.6321 67.7205 40.9896C67.6943 41.0464 67.6658 41.1032 67.6373 41.16C67.6373 41.16 66.1681 40.1823 65.3337 42.1756C65.0901 42.5898 64.9158 43.0408 64.8178 43.5108C64.776 43.6988 64.7171 43.8826 64.6419 44.06C64.2714 44.6845 63.717 45.1804 63.0538 45.4804C61.3516 46.2568 54.4764 54.7957 54.3552 57.0067C54.2957 57.8698 54.1491 58.7248 53.9178 59.5587C53.3766 61.5224 53.2375 63.5746 53.5089 65.5929C53.5938 66.2452 53.7346 66.8891 53.9296 67.5175C54.6595 69.7262 55.1468 73.8477 55.1468 73.8477L55.9361 81.0017C55.9068 81.9891 55.9497 82.9773 56.0645 83.9584C55.2586 84.8746 52.023 88.693 53.2592 89.7323C54.2102 90.5514 55.8743 90.4164 56.8086 90.2483C56.0217 92.1872 54.7831 95.5582 54.6191 97.8734C54.3813 101.299 55.0256 105.837 56.0455 107.579C57.0653 109.322 60.4649 113.791 60.4649 113.791C60.4649 113.791 60.3056 119.922 61.5204 122.15C62.7352 124.378 63.225 128.999 63.225 128.999C63.225 128.999 64.359 132.9 63.7908 134.335C63.2226 135.769 64.8439 136.962 63.1418 137.916C61.4396 138.87 59.262 160.372 59.262 160.372C59.262 160.372 58.3848 174.465 59.262 175.182C59.3089 175.216 59.3591 175.246 59.4118 175.27V180.004C59.4118 180.004 58.8032 180.999 61.2779 181.2C62.973 181.335 67.7775 181.64 70.628 181.818L72.8365 181.955C72.8365 181.955 78.0666 182.992 80.3773 181.955C82.6881 180.918 86.7842 180.942 86.1756 178.203C86.0949 177.83 85.9869 177.464 85.8523 177.107C85.1843 175.407 84.0503 175.213 81.9606 174.74C81.8394 174.714 81.7229 174.69 81.6159 174.671C79.4145 174.29 78.6918 175.31 77.458 173.982C76.3858 172.834 72.972 171.548 71.8095 171.141C71.838 171.056 71.8737 170.973 71.9022 170.886C71.573 170.83 71.2668 170.681 71.0202 170.457L74.1702 170.656L76.0459 170.772C76.0459 170.772 80.4915 171.655 82.4646 170.772C84.4378 169.889 87.9087 169.913 87.3904 167.586C87.3222 167.269 87.2308 166.957 87.117 166.653C86.5489 165.209 85.5837 165.05 83.8078 164.65C83.7056 164.629 83.6105 164.608 83.5154 164.591C81.6445 164.267 81.0311 165.133 79.9827 164.006C79.0841 163.045 76.2479 161.968 75.2281 161.601C75.2281 161.076 74.5149 160.327 74.0656 159.577C73.5378 158.701 74.5125 155.635 74.5125 155.635L75.0688 142.916C75.2806 142.822 75.5047 142.758 75.7344 142.727C75.7344 142.727 78.2496 140.336 77.6815 137.788C77.5657 137.018 77.5053 136.24 77.5008 135.461C78.3281 134.697 79.4668 133.568 79.7901 132.872C80.3179 131.738 79.7901 126.243 79.7901 126.243V105.233L83.998 105.657L87.816 106.048L88.9785 106.166L92.7965 106.55L101.571 107.433L109.478 105.941L112.899 105.297L119.934 103.972V86.8323L127.215 85.6345ZM69.3014 28.8406L68.8117 28.7885C68.9733 28.7956 69.1445 28.8264 69.3014 28.8406Z" fill="url(#paint0_linear_1_1781)"/>
<path d="M110.148 96.7633C107.771 100.151 99.2247 98.3565 99.2247 98.3565L92.6015 92.185L91.71 91.3493L93.2053 88.1866C93.2053 88.1866 93.6808 88.3168 94.4962 88.5488C98.7777 89.7869 112.155 93.9155 110.148 96.7633Z" fill="#EFB7B9"/>
<path opacity="0.1" d="M94.4914 88.5488C94.199 89.562 93.3979 91.0794 92.6015 92.185L91.71 91.3493L93.2053 88.1866C93.2053 88.1866 93.6855 88.3168 94.4914 88.5488Z" fill="black"/>
<path d="M71.776 52.8832C71.776 52.8832 65.6711 55.5795 65.9706 62.2008C66.1862 66.4666 66.6529 70.7161 67.3685 74.9274C67.3685 74.9274 66.1204 84.8914 71.3172 87.4599C76.514 90.0285 81.3234 92.1401 81.3234 92.1401C81.3234 92.1401 89.4538 93.0112 90.4642 93.3711C91.4745 93.7309 94.6316 88.2293 94.0492 87.3723C93.4667 86.5154 86.0043 84.7186 85.0534 83.2887C84.1025 81.8589 81.9034 80.9759 81.9034 80.9759C81.9034 80.9759 79.6331 79.6076 79.4786 78.3719C79.324 77.1361 79.9231 76.2153 80.0753 75.6731C80.2274 75.131 80.6126 69.8969 80.6126 69.8969C80.6126 69.8969 83.1753 51.2663 71.776 52.8832Z" fill="#DCE6F2"/>
<path opacity="0.1" d="M75.8059 74.6553C75.8059 74.6553 67.4306 76.052 68.2413 78.9708C68.2413 78.9708 71.2819 75.82 75.8059 74.6553Z" fill="black"/>
<path opacity="0.1" d="M75.8701 75.8363C75.8701 75.8363 71.2652 79.579 72.1662 79.7708C73.0672 79.9625 75.8701 75.8363 75.8701 75.8363Z" fill="black"/>
<path opacity="0.1" d="M78.0832 77.1409C78.0832 77.1409 76.8494 79.6574 77.6078 79.4869C78.3661 79.3165 78.0832 77.1409 78.0832 77.1409Z" fill="black"/>
<path opacity="0.1" d="M94.8002 88.8162L94.2914 88.6718C94.4365 88.1983 94.4769 87.8148 94.358 87.6373C93.7756 86.7803 86.3179 84.9859 85.3694 83.5537C84.4208 82.1215 82.2194 81.2408 82.2194 81.2408C82.2194 81.2408 79.9491 79.8725 79.7945 78.6368C79.64 77.4011 80.2391 76.4802 80.3913 75.9381C80.5434 75.396 80.9285 70.1595 80.9285 70.1595C80.9285 70.1595 83.4842 51.5313 72.0849 53.1481C72.0849 53.1481 65.9799 55.8468 66.2771 62.4682C66.4927 66.7341 66.9603 70.9836 67.6774 75.1948C67.6774 75.1948 66.4293 85.1587 71.6261 87.7272C76.8229 90.2958 81.6322 92.4074 81.6322 92.4074C81.6322 92.4074 89.7603 93.2762 90.773 93.6384C91.1558 93.7757 91.8476 93.0679 92.5251 92.0949L92.9102 92.4524L99.5334 98.6216C99.5334 98.6216 108.08 100.418 110.457 97.0307C112.466 94.1805 99.0913 90.0519 94.8002 88.8162Z" fill="black"/>
<path d="M68.2622 28.0311C68.0295 28.0764 67.8066 28.1622 67.6037 28.2844C67.366 28.4809 67.366 28.8171 67.3065 29.1106C67.2367 29.519 67.0741 29.906 66.8311 30.2422C67.1016 30.2619 67.3729 30.2173 67.6227 30.112C67.582 30.436 67.5022 30.7539 67.385 31.0589C67.5331 31.0627 67.6792 31.0238 67.8057 30.9469C67.9322 30.8701 68.0337 30.7586 68.0982 30.6257C68.224 30.3589 68.3235 30.0807 68.3953 29.7948C68.4177 29.7093 68.4564 29.6289 68.5095 29.558C68.7282 29.3 69.1347 29.416 69.4723 29.4491C69.7532 29.4727 70.0354 29.4211 70.2895 29.2995C70.5437 29.178 70.7605 28.991 70.9177 28.7579C71.2767 28.2158 71.2981 26.8285 70.4422 26.6818C69.5483 26.535 68.992 27.7613 68.2622 28.0311Z" fill="#965D7B"/>
<g opacity="0.1">
<path opacity="0.1" d="M67.5797 28.5755C67.6011 28.4595 67.6154 28.3388 67.6415 28.2228C67.4157 28.4193 67.4038 28.7531 67.3444 29.049C67.3144 29.2197 67.2674 29.387 67.2041 29.5485C67.3913 29.2514 67.5189 28.921 67.5797 28.5755Z" fill="black"/>
<path opacity="0.1" d="M67.656 30.5309C67.7744 30.2263 67.8542 29.9082 67.8937 29.584C67.6557 29.6838 67.398 29.7283 67.1401 29.7142C67.065 29.8807 66.9734 30.0393 66.8667 30.1876C67.1363 30.2084 67.4069 30.1646 67.656 30.0598C67.6165 30.384 67.5366 30.7021 67.4182 31.0067C67.5663 31.0102 67.7123 30.9712 67.8387 30.8944C67.9651 30.8176 68.0668 30.7062 68.1314 30.5735C68.1907 30.4659 68.2385 30.3525 68.2741 30.235C68.2043 30.3321 68.1111 30.4101 68.0031 30.4618C67.8951 30.5135 67.7757 30.5373 67.656 30.5309Z" fill="black"/>
<path opacity="0.1" d="M69.7433 28.9211C69.4057 28.888 68.9968 28.772 68.7781 29.03C68.726 29.1014 68.6874 29.1816 68.664 29.2668C68.6426 29.3283 68.6236 29.3922 68.6069 29.4561C68.8328 29.2786 69.1989 29.3733 69.5056 29.4041C69.7864 29.4269 70.0683 29.3749 70.3223 29.2534C70.5763 29.1319 70.7933 28.9454 70.951 28.7128C71.023 28.5978 71.0768 28.4725 71.1102 28.3411C70.9474 28.5418 70.7377 28.6996 70.4993 28.8007C70.261 28.9018 70.0014 28.9432 69.7433 28.9211Z" fill="black"/>
</g>
<path d="M75.418 47.5827L79.0434 51.9243L78.5704 56.3062L74.189 49.4765L75.418 47.5827Z" fill="#DCE6F2"/>
<path opacity="0.1" d="M79.0411 51.9243L78.5965 56.0458L78.568 56.3062L74.6145 50.1417L74.189 49.4765L74.3126 49.2848L75.4157 47.5827L75.6605 47.8762L79.0411 51.9243Z" fill="black"/>
<path d="M80.9239 41.7045C79.6972 42.0549 78.5252 43.2575 77.5053 44.7181C76.816 45.7259 76.1995 46.7812 75.6605 47.8761C75.3253 48.5436 75.0305 49.1852 74.7857 49.7439L74.6145 50.1416C74.2008 51.1145 73.9702 51.7655 73.9702 51.7655C73.9702 51.7655 64.5798 44.7347 66.0657 44.2612C66.5649 44.1026 67.221 43.0373 67.87 41.695L67.9509 41.5246C68.3621 40.6629 68.7663 39.7018 69.1253 38.7975C69.8599 36.9391 70.4043 35.3246 70.4043 35.3246C70.4043 35.3246 84.6682 40.6392 80.9239 41.7045Z" fill="#EFB7B9"/>
<path d="M86.5415 34.9296C86.5415 34.9296 88.7096 38.8357 91.6218 38.303C94.5341 37.7704 93.3359 36.2056 93.3359 36.2056L86.5415 34.9296Z" fill="#444053"/>
<path d="M82.3412 170.138C80.4203 171.011 76.0769 170.138 76.0769 170.138L74.2464 170.024C71.8691 169.873 67.8894 169.617 66.4821 169.503C64.4281 169.335 64.9321 168.497 64.9321 168.497V163.434L74.8978 160.92C74.8978 160.92 78.837 162.262 79.9163 163.434C80.9409 164.551 81.54 163.692 83.3682 164.014C83.4585 164.03 83.5536 164.049 83.6535 164.073C85.3889 164.468 86.3303 164.624 86.8866 166.057C86.9984 166.358 87.0882 166.666 87.1553 166.98C87.6688 169.286 84.2597 169.269 82.3412 170.138Z" fill="#A36468"/>
<path opacity="0.1" d="M86.8866 166.056C86.5295 166.279 86.1541 166.47 85.7645 166.629C84.457 167.223 83.2136 167.948 81.8919 168.509C80.5701 169.07 79.1461 169.47 77.7149 169.364C76.9661 169.309 76.2006 169.127 75.485 169.34C75.0424 169.51 74.6256 169.74 74.2464 170.024C71.8691 169.872 67.8894 169.617 66.4821 169.503C64.4281 169.335 64.9321 168.497 64.9321 168.497V167.905C65.0058 167.905 65.089 167.884 65.1841 167.877C65.676 167.869 66.166 167.942 66.6342 168.092C67.666 168.372 68.693 168.646 69.7247 168.921C69.8096 168.602 69.9587 168.304 70.1631 168.044C70.3674 167.784 70.6227 167.569 70.9134 167.411C71.5023 167.099 72.1632 166.948 72.8295 166.973C74.4294 166.994 75.9438 167.749 77.5414 167.825C77.988 167.866 78.4377 167.791 78.8465 167.607C79.0652 167.498 79.2578 167.339 79.4717 167.219C79.8142 167.054 80.1759 166.932 80.5487 166.857C81.5963 166.597 82.6249 166.266 83.6273 165.867C83.9126 165.756 84.2454 165.555 84.2074 165.252C84.1574 164.849 83.5227 164.802 83.3563 164.432C83.3269 164.366 83.3134 164.293 83.3167 164.221C83.32 164.148 83.34 164.077 83.3753 164.013C83.4656 164.03 83.5607 164.049 83.6606 164.073C85.3889 164.468 86.3303 164.624 86.8866 166.056Z" fill="black"/>
<path d="M80.3108 181.217C78.0524 182.244 72.9411 181.217 72.9411 181.217L70.7896 181.091C68.0034 180.914 63.3106 180.618 61.6536 180.478C59.2359 180.279 59.8302 179.294 59.8302 179.294V173.327L71.5575 170.367C71.5575 170.367 76.1933 171.946 77.4628 173.327C78.6681 174.64 79.3646 173.63 81.5256 174.008C81.6326 174.027 81.7443 174.051 81.8608 174.077C83.903 174.55 85.0108 174.728 85.6646 176.413C85.7969 176.767 85.9026 177.131 85.9807 177.5C86.5703 180.213 82.5693 180.192 80.3108 181.217Z" fill="#A36468"/>
<path opacity="0.1" d="M85.6598 176.413C85.2397 176.675 84.7984 176.9 84.3404 177.088C82.8022 177.786 81.3378 178.639 79.783 179.299C78.2283 179.96 76.5523 180.428 74.8667 180.305C73.9871 180.241 73.0861 180.021 72.2517 180.277C71.7288 180.48 71.2368 180.754 70.7896 181.091C68.0034 180.914 63.3106 180.618 61.6536 180.478C59.2359 180.279 59.8302 179.294 59.8302 179.294V178.598C59.9286 178.582 60.0278 178.571 60.1274 178.565C60.7065 178.555 61.2834 178.64 61.8343 178.819L65.4692 179.794C65.5705 179.418 65.7477 179.066 65.9901 178.76C66.2325 178.455 66.5349 178.201 66.8789 178.016C67.5719 177.648 68.3504 177.47 69.135 177.5C71.0179 177.526 72.7985 178.414 74.6789 178.504C75.2026 178.551 75.7298 178.464 76.2099 178.25C76.4691 178.12 76.6854 177.933 76.9469 177.793C77.349 177.597 77.7749 177.454 78.214 177.367C79.44 177.059 80.644 176.67 81.818 176.203C82.1532 176.07 82.5455 175.833 82.5003 175.478C82.4409 175.005 81.6944 174.948 81.4971 174.512C81.4638 174.434 81.4487 174.349 81.4528 174.264C81.4569 174.178 81.4802 174.095 81.5209 174.02C81.6279 174.039 81.7396 174.063 81.8561 174.089C83.8982 174.543 85.006 174.728 85.6598 176.413Z" fill="black"/>
<path d="M75.1992 140.265L74.5644 155.139C74.5644 155.139 73.6135 158.176 74.1294 159.045C74.6452 159.914 75.5153 160.78 75.1992 161.294C74.883 161.807 71.0793 167.361 69.8502 165.23C68.6211 163.1 67.4087 153.867 67.4087 153.867L68.5427 142.464L75.1992 140.265Z" fill="#444053"/>
<path d="M77.9522 103.207L79.7162 105.555V125.98C79.7162 125.98 80.2321 131.425 79.7162 132.55C79.2003 133.674 76.5853 135.923 76.5853 135.923L74.3862 124.678L74.8617 112.783L77.9522 103.207Z" fill="#444053"/>
<path opacity="0.1" d="M75.1992 140.265L74.5644 155.139C74.5644 155.139 73.6135 158.176 74.1294 159.045C74.6452 159.914 75.5153 160.78 75.1992 161.294C74.883 161.807 71.0793 167.361 69.8502 165.23C68.6211 163.1 67.4087 153.867 67.4087 153.867L68.5427 142.464L75.1992 140.265Z" fill="black"/>
<path opacity="0.1" d="M77.9522 103.207L79.7162 105.555V125.98C79.7162 125.98 80.2321 131.425 79.7162 132.55C79.2003 133.674 76.5853 135.923 76.5853 135.923L74.3862 124.678L74.8617 112.783L77.9522 103.207Z" fill="black"/>
<path d="M79.7162 94.4955V105.544L77.7359 114.144C77.7359 114.144 77.1012 134.898 77.6551 137.422C78.209 139.945 75.7532 142.315 75.7532 142.315C75.7532 142.315 74.3268 142.474 74.3268 143.577C74.3268 144.68 71.9495 147.838 71.9495 147.838L72.0279 153.993C72.0279 153.993 73.0597 165.514 71.474 167.723C69.8884 169.932 72.0279 170.249 72.0279 170.249C70.0476 176.719 60.5384 175.22 59.6801 174.51C58.8219 173.8 59.6801 159.833 59.6801 159.833C59.6801 159.833 61.8055 138.527 63.4696 137.58C65.1337 136.633 63.5504 135.45 64.1043 134.029C64.6583 132.609 63.5504 128.743 63.5504 128.743C63.5504 128.743 63.075 124.165 61.8863 121.956C60.6976 119.748 60.8545 113.671 60.8545 113.671C60.8545 113.671 57.5263 109.251 56.5373 107.516C55.5484 105.78 54.9112 101.283 55.149 97.8879C55.3106 95.594 56.5207 92.2537 57.2886 90.3315C57.657 89.4106 57.9233 88.814 57.9233 88.814L58.1491 88.8732L71.1341 92.2584L79.7162 94.4955Z" fill="#444053"/>
<path opacity="0.1" d="M80.9241 41.7047C79.6974 42.0551 78.5254 43.2577 77.5055 44.7183H77.2392C75.7443 44.7194 74.2756 44.3274 72.9816 43.5821C71.6876 42.8368 70.614 41.7646 69.8695 40.4737C69.5584 39.9389 69.308 39.3712 69.123 38.7811C69.8576 36.9228 70.402 35.3083 70.402 35.3083C70.402 35.3083 84.6683 40.6395 80.9241 41.7047Z" fill="black"/>
<path d="M85.7381 35.7864C85.7402 37.0817 85.4437 38.3602 84.8714 39.5234C84.2991 40.6866 83.4664 41.7035 82.4373 42.4957C81.4081 43.2879 80.2101 43.8344 78.9355 44.0929C77.6609 44.3515 76.3438 44.3152 75.0854 43.987C73.8271 43.6587 72.6613 43.0472 71.6776 42.1996C70.694 41.352 69.9189 40.2909 69.4121 39.098C68.9052 37.9051 68.68 36.6123 68.754 35.3191C68.8279 34.0259 69.199 32.7668 69.8385 31.6389C70.0962 31.1806 70.3971 30.7478 70.7372 30.3464C71.2978 29.6813 71.9567 29.105 72.6913 28.6372C73.9322 27.852 75.3563 27.4007 76.8247 27.3275C78.293 27.2543 79.7554 27.5617 81.0687 28.2195C82.3821 28.8774 83.5017 29.8633 84.318 31.0809C85.1344 32.2984 85.6195 33.7061 85.7262 35.1662C85.7309 35.3745 85.7381 35.5805 85.7381 35.7864Z" fill="#EFB7B9"/>
<path opacity="0.1" d="M78.5965 56.0457L78.568 56.3061L74.6145 50.1511C74.2008 51.1241 73.9702 51.7751 73.9702 51.7751C73.9702 51.7751 64.5798 44.7348 66.0657 44.2613C66.5649 44.1027 67.221 43.0374 67.87 41.6952L67.9509 41.5247C68.6403 43.5701 72.6461 47.6584 74.3126 49.2966C74.5051 49.4859 74.6644 49.6422 74.788 49.7558L75.0424 49.9925L75.1755 50.1251C75.7818 50.7477 78.3397 53.4938 78.5965 56.0457Z" fill="black"/>
<path d="M81.5516 76.9299L81.119 90.7952L81.0429 93.2643C81.0429 93.2643 75.9174 92.7908 71.1342 92.27C67.283 91.851 63.6528 91.3988 63.0941 91.1337C62.3809 90.7999 60.8523 90.5419 59.647 90.3785C58.7151 90.253 57.9829 90.1868 57.9829 90.1868C57.9829 90.1868 57.7095 90.2673 57.2887 90.343C56.3711 90.5087 54.7592 90.6437 53.8202 89.8317C52.6197 88.7924 55.7744 85.0166 56.5612 84.1099L56.7348 83.9134L56.4376 81.1792L55.665 74.0891C55.665 74.0891 55.1895 70.0055 54.4763 67.8158C54.2857 67.1932 54.1481 66.5557 54.0651 65.9101C53.8001 63.9102 53.9358 61.8777 54.4645 59.9303C54.6903 59.1028 54.8336 58.2552 54.8924 57.3997C55.0112 55.2099 61.7272 46.7468 63.3913 45.9775C64.1399 45.6299 64.7423 45.0317 65.0934 44.2872C65.2094 44.0531 65.2964 43.8059 65.3526 43.551C66.0658 40.4735 67.8702 41.695 67.8702 41.695C68.3052 44.1026 75.0401 50.4753 75.0401 50.4753L75.1733 50.6079C75.8413 51.2897 78.8177 54.4903 78.6061 57.2221C78.5638 58.2389 78.7163 59.2544 79.0554 60.2144C80.4254 64.5098 81.2129 68.9682 81.3971 73.4713L81.5516 76.9299Z" fill="#DCE6F2"/>
<path opacity="0.1" d="M72.0092 60.4656C72.0092 60.4656 70.3451 64.49 69.097 65.141C67.8489 65.792 72.6035 66.514 72.0092 60.4656Z" fill="black"/>
<path opacity="0.1" d="M73.2573 67.9818C73.2573 67.9818 69.4536 68.4552 69.4536 69.1654C69.4536 69.8756 73.2573 67.9818 73.2573 67.9818Z" fill="black"/>
<path opacity="0.1" d="M77.239 72.598C77.239 72.598 71.7117 84.3161 70.1664 84.6712C68.6212 85.0263 77.239 72.598 77.239 72.598Z" fill="black"/>
<path opacity="0.1" d="M74.9355 51.0698L70.3639 53.0488L64.8462 44.7491C64.9621 44.515 65.0491 44.2678 65.1053 44.0128C65.8185 40.9354 67.6229 42.1569 67.6229 42.1569C68.0579 44.5644 74.7929 50.9372 74.7929 50.9372L74.9355 51.0698Z" fill="black"/>
<path d="M75.1733 50.5964L70.6017 52.5754L65.084 44.2757C65.1999 44.0416 65.2869 43.7944 65.3431 43.5395C66.0563 40.462 67.8607 41.6835 67.8607 41.6835C68.2957 44.091 75.0307 50.4638 75.0307 50.4638L75.1733 50.5964Z" fill="#DCE6F2"/>
<path opacity="0.1" d="M81.0429 93.2646C81.0429 93.2646 75.9174 92.7911 71.1342 92.2703L79.7163 94.5074V97.1114C79.3407 97.45 79.015 97.6251 78.8034 97.5352C77.8145 97.1209 69.7435 95.8189 69.7435 95.8189C69.7435 95.8189 65.0554 93.4516 59.9965 90.6108C59.8737 90.5431 59.7546 90.4688 59.6399 90.3883C59.05 89.9895 58.5417 89.4826 58.1422 88.8946C57.2079 87.5476 56.7514 85.8171 56.5541 84.1197C56.4432 83.147 56.4019 82.1676 56.4305 81.189C56.455 80.0794 56.5567 78.9728 56.7348 77.8772C56.2455 73.6336 56.0074 69.3651 56.0216 65.0937C56.081 58.4653 62.3215 56.098 62.3215 56.098C73.7921 55.0919 70.2356 73.5568 70.2356 73.5568C70.2356 73.5568 69.5723 78.7649 69.3916 79.2975C69.211 79.8302 68.562 80.7179 68.6499 81.9607C68.7379 83.2036 70.9298 84.6902 70.9298 84.6902C70.9298 84.6902 73.0694 85.6892 73.9513 87.1688C74.5932 88.2601 78.763 89.7397 81.119 90.7955L81.0429 93.2646Z" fill="black"/>
<path opacity="0.1" d="M84.8844 30.5309C84.8887 30.9208 84.8076 31.307 84.6466 31.6625C84.5247 31.9526 84.3834 32.2341 84.2235 32.5052C83.9733 33.004 83.6181 33.4432 83.1822 33.7931C82.633 34.1837 81.9389 34.2926 81.2803 34.4512C80.6218 34.6098 79.9371 34.8631 79.5615 35.4218C79.358 35.7809 79.2218 36.174 79.1598 36.5817C79.0968 36.9891 78.9334 37.3746 78.6843 37.7038C78.5546 37.8645 78.3749 37.9778 78.1735 38.0258C77.9721 38.0738 77.7604 38.0538 77.5717 37.969C77.3729 37.8355 77.2221 37.6422 77.1414 37.4174C76.8704 36.809 76.8015 36.1343 76.6921 35.4786C76.5827 34.8228 76.4282 34.1481 76.0241 33.6202C75.6199 33.0923 74.9044 32.7443 74.2696 32.9503C74.0572 33.0317 73.8634 33.1551 73.7 33.3129C73.5366 33.4707 73.4069 33.6598 73.3187 33.8688C73.143 34.2872 73.0224 34.7264 72.9597 35.1756C72.6649 36.7822 72.317 38.3793 71.9161 39.967C71.9038 40.032 71.877 40.0935 71.8376 40.1469C71.7744 40.2096 71.6891 40.2453 71.5999 40.2463C71.0674 40.3173 70.5562 39.9457 70.019 39.9859C69.9636 39.9896 69.9087 39.9983 69.8549 40.0119C68.9863 38.5086 68.6027 36.7757 68.7562 35.048C68.9097 33.3204 69.5929 31.6815 70.7131 30.3534L70.7559 30.3415C71.1133 30.2152 71.4381 30.0114 71.7069 29.745C72.05 29.403 72.3678 29.0367 72.6578 28.6489L72.848 28.4122C73.3944 27.7567 74.0168 27.1678 74.7023 26.658C74.8894 26.5054 75.104 26.3897 75.3347 26.3171C75.532 26.2788 75.7343 26.2724 75.9337 26.2982C76.7547 26.3963 77.5824 26.4272 78.4085 26.3905C78.9841 26.3004 79.5643 26.2419 80.1463 26.2153C81.6512 26.2579 82.9349 27.3161 83.8859 28.4761C84.397 29.0703 84.8534 29.7544 84.8844 30.5309Z" fill="black"/>
<path d="M68.7282 31.8638C68.3978 32.4036 67.8011 32.7705 67.5776 33.3623C67.2495 34.2217 67.8035 35.2917 67.2947 36.0587C67.1259 36.3167 66.8478 36.5085 66.7527 36.8044C66.591 37.3039 67.0332 37.8365 66.9191 38.3502C66.805 38.8639 66.1251 39.2972 66.3058 39.799C66.4125 40.0179 66.5998 40.1875 66.8288 40.2725C67.189 40.4783 67.6036 40.5699 68.0174 40.5353C68.6664 40.4287 69.149 39.7943 69.8075 39.747C70.3424 39.7091 70.8536 40.0784 71.3861 40.0097C71.4753 40.0066 71.5602 39.9703 71.6238 39.9079C71.6642 39.8552 71.6911 39.7934 71.7023 39.728C72.1017 38.1419 72.4503 36.5448 72.7483 34.9366C72.809 34.4873 72.9289 34.0479 73.1049 33.6298C73.1938 33.4213 73.3238 33.2326 73.4871 33.0748C73.6504 32.9171 73.8438 32.7935 74.0558 32.7113C74.6906 32.5078 75.4038 32.8534 75.8103 33.3813C76.2168 33.9092 76.3713 34.5839 76.4807 35.2396C76.59 35.8954 76.659 36.57 76.9276 37.1784C77.0092 37.4041 77.1608 37.5981 77.3603 37.7324C77.7169 37.9383 78.1971 37.775 78.4705 37.4672C78.721 37.1379 78.8844 36.7513 78.946 36.3428C79.008 35.9358 79.1441 35.5435 79.3477 35.1852C79.7233 34.6265 80.4104 34.3732 81.0665 34.2146C81.7227 34.056 82.4145 33.9447 82.9684 33.5541C83.4037 33.2046 83.7588 32.7663 84.0097 32.2687C84.3615 31.6579 84.6896 30.995 84.661 30.292C84.6301 29.525 84.1737 28.8408 83.6863 28.2442C82.7354 27.0843 81.4493 26.0261 79.9444 25.9858C79.3622 26.0101 78.7819 26.0686 78.2066 26.161C77.3805 26.198 76.5527 26.1663 75.7318 26.0663C75.5322 26.0426 75.3301 26.0497 75.1327 26.0876C74.9018 26.1579 74.6875 26.2738 74.5028 26.4285C73.8166 26.9375 73.1934 27.5255 72.6461 28.1803C72.2931 28.6463 71.9104 29.0891 71.5002 29.506C71.2313 29.7729 70.9066 29.9774 70.5493 30.1049C70.3115 30.1712 70.0738 30.1239 69.848 30.1973C69.1466 30.4174 69.0539 31.3288 68.7282 31.8638Z" fill="#965D7B"/>
<path opacity="0.1" d="M91.6218 38.3007C89.72 38.6487 88.1438 37.117 87.2713 35.9996C87.0034 35.6603 86.7595 35.3028 86.5415 34.9296L93.0696 36.1559L93.3335 36.2056C93.3335 36.2056 94.534 37.7704 91.6218 38.3007Z" fill="black"/>
<g opacity="0.1">
<path opacity="0.1" d="M66.9207 37.673C66.9476 37.3634 66.8999 37.0519 66.7816 36.7639C66.7816 36.7876 66.76 36.8113 66.7528 36.8349C66.6497 37.1522 66.7888 37.4812 66.8775 37.8103C66.8966 37.766 66.9111 37.72 66.9207 37.673Z" fill="black"/>
<path opacity="0.1" d="M67.4849 33.798C67.4602 34.1253 67.4667 34.4542 67.5041 34.7804C67.5287 34.4531 67.5223 34.1241 67.4849 33.798Z" fill="black"/>
<path opacity="0.1" d="M83.9953 31.5843C83.745 32.0831 83.3899 32.5223 82.954 32.8722C82.4048 33.2628 81.713 33.3717 81.0521 33.5303C80.3912 33.6889 79.7089 33.9422 79.3333 34.5009C79.1301 34.8602 78.994 35.2532 78.9316 35.6608C78.8696 36.0693 78.7062 36.4558 78.4561 36.7853C78.1827 37.0931 77.7025 37.2588 77.3459 37.0504C77.1463 36.9161 76.9948 36.7221 76.9132 36.4965C76.6446 35.8881 76.5733 35.2158 76.4663 34.5577C76.3593 33.8996 76.2 33.2272 75.7959 32.6993C75.3917 32.1714 74.6762 31.8234 74.0414 32.0294C73.8292 32.1112 73.6356 32.2347 73.4722 32.3925C73.3089 32.5502 73.179 32.7391 73.0905 32.9479C72.9145 33.366 72.7946 33.8054 72.7339 34.2547C72.4375 35.8628 72.0888 37.46 71.6879 39.0461C71.6767 39.1115 71.6498 39.1732 71.6094 39.226C71.5458 39.2884 71.4609 39.3247 71.3717 39.3278C70.8392 39.3964 70.328 39.0271 69.7931 39.065C69.1346 39.1124 68.652 39.7468 68.003 39.851C67.589 39.8879 67.1737 39.7961 66.8143 39.5882C66.6491 39.5174 66.5008 39.4125 66.3793 39.2804C66.3237 39.3598 66.2869 39.4506 66.2716 39.5462C66.2564 39.6417 66.2631 39.7394 66.2913 39.832C66.396 40.0524 66.5841 40.2226 66.8143 40.3055C67.1737 40.5134 67.589 40.6052 68.003 40.5682C68.652 40.4641 69.1346 39.8296 69.7931 39.7823C70.328 39.7444 70.8392 40.1137 71.3717 40.0451C71.4609 40.042 71.5458 40.0057 71.6094 39.9433C71.6498 39.8905 71.6767 39.8288 71.6879 39.7634C72.0872 38.1852 72.4359 36.588 72.7339 34.9719C72.7946 34.5227 72.9145 34.0833 73.0905 33.6652C73.179 33.4564 73.3089 33.2675 73.4722 33.1097C73.6356 32.952 73.8292 32.8285 74.0414 32.7467C74.6762 32.5407 75.3893 32.8887 75.7959 33.4166C76.2024 33.9445 76.3569 34.6192 76.4663 35.275C76.5756 35.9307 76.6446 36.6054 76.9132 37.2138C76.9948 37.4394 77.1463 37.6334 77.3459 37.7677C77.7025 37.9737 78.1827 37.8103 78.4561 37.5026C78.7062 37.1731 78.8696 36.7865 78.9316 36.3781C78.994 35.9705 79.1301 35.5774 79.3333 35.2181C79.7089 34.6595 80.396 34.4085 81.0521 34.2476C81.7083 34.0866 82.4001 33.9801 82.954 33.5894C83.3899 33.2396 83.745 32.8004 83.9953 32.3016C84.3471 31.6932 84.6752 31.0304 84.6466 30.3273C84.642 30.2369 84.6324 30.1468 84.6181 30.0574C84.5034 30.5993 84.2925 31.1163 83.9953 31.5843Z" fill="black"/>
</g>
<path opacity="0.1" d="M84.6565 31.6554C85.2662 32.7348 85.6275 33.9355 85.7144 35.1709C83.5962 33.9872 81.604 32.6876 80.5984 32.2354C78.8464 31.4471 72.2944 31.5655 69.8315 31.6389C70.0892 31.1806 70.3901 30.7478 70.7302 30.3463C71.293 29.6807 71.9543 29.1044 72.6915 28.6371C73.6677 28.0202 74.76 27.608 75.9017 27.4257C77.0433 27.2434 78.2103 27.2948 79.3313 27.5769C80.4523 27.8589 81.5038 28.3657 82.4214 29.0661C83.3391 29.7666 84.1037 30.646 84.6684 31.6507L84.6565 31.6554Z" fill="black"/>
<path opacity="0.1" d="M92.2162 37.2969C91.0727 37.6473 89.2065 36.9702 87.2713 35.9997C87.0034 35.6603 86.7595 35.3028 86.5415 34.9296L93.0696 36.1559C93.5023 36.4494 93.6117 36.8685 92.2162 37.2969Z" fill="black"/>
<path d="M77.7454 23.4479C77.7454 23.4479 71.5049 23.0928 69.7504 26.4662L69.4675 29.4561L68.9921 29.404L68.897 31.4375C68.897 31.4375 78.4348 31.0232 80.6053 31.9986C82.7758 32.9739 89.5202 37.8884 92.2232 37.0598C94.9262 36.2313 91.9855 35.4619 91.9855 35.4619C91.9855 35.4619 88.265 33.8924 88.265 32.6614C88.265 31.4304 87.3426 24.9274 77.7454 23.4479Z" fill="#444053"/>
<path opacity="0.1" d="M65.709 134.285C65.709 134.285 69.691 138.132 71.4146 137.836C71.4146 137.836 66.541 137.422 65.709 134.285Z" fill="black"/>
<path opacity="0.1" d="M64.877 136.068C64.877 136.068 65.2336 138.047 66.1845 137.853C67.1354 137.659 64.877 136.068 64.877 136.068Z" fill="black"/>
<path opacity="0.1" d="M71.1174 169.143C71.1174 169.143 65.4641 173.523 66.4174 173.641C67.3707 173.76 71.1174 169.143 71.1174 169.143Z" fill="black"/>
<path d="M78.6797 82.2235L96.985 79.2573V96.5149L79.5926 95.6082L78.6797 82.2235Z" fill="#003087"/>
<path opacity="0.05" d="M78.6797 82.2235L96.985 79.2573V96.5149L79.5926 95.6082L78.6797 82.2235Z" fill="black"/>
<path d="M96.9854 79.2573L118.938 80.8931L117.723 95.9112L96.9854 96.5149V79.2573Z" fill="#003087"/>
<path opacity="0.1" d="M96.9854 79.2573L118.938 80.8931L117.723 95.9112L96.9854 96.5149V79.2573Z" fill="black"/>
<path d="M103.735 73.9901L96.9854 79.2573L118.938 80.8931L122.525 75.5028L103.735 73.9901Z" fill="#003087"/>
<path d="M72.0518 76.471L88.5313 74.473L96.9851 79.2573L78.6797 82.2235L72.0518 76.471Z" fill="#003087"/>
<path d="M100.998 83.7384V107.333L92.423 106.457L88.693 106.079L87.5566 105.96L83.829 105.579L78.6797 105.054V82.2233L96.9827 83.4638L100.998 83.7384Z" fill="#003087"/>
<path d="M118.937 80.8929V103.903L112.064 105.217L108.722 105.856L100.998 107.333V83.7384L118.937 80.8929Z" fill="#003087"/>
<path opacity="0.05" d="M118.937 80.8929V103.903L112.064 105.217L108.722 105.856L100.998 107.333V83.7384L118.937 80.8929Z" fill="black"/>
<path d="M72.0518 87.1899L78.6797 82.2233L100.998 83.7384L97.7126 89.2495L72.0518 87.1899Z" fill="#003087"/>
<path opacity="0.1" d="M72.0518 87.1899L78.6797 82.2233L100.998 83.7384L97.7126 89.2495L72.0518 87.1899Z" fill="white"/>
<path d="M118.937 80.8929L100.998 83.7384L106.837 88.9465L126.053 85.7364L118.937 80.8929Z" fill="#003087"/>
<path opacity="0.1" d="M118.937 80.8929L100.998 83.7384L106.837 88.9465L126.053 85.7364L118.937 80.8929Z" fill="white"/>
<path opacity="0.1" d="M112.065 105.217L108.722 105.856V100.939L111.853 100.153L112.065 105.217Z" fill="white"/>
<path opacity="0.1" d="M92.4229 103.205V106.457L88.6929 106.079V103.205H92.4229Z" fill="white"/>
<path opacity="0.1" d="M87.5567 104.23V105.96L83.8291 105.579V104.23H87.5567Z" fill="white"/>
<path opacity="0.1" d="M98.7538 101.479C96.1982 104.734 87.7587 102.485 87.7587 102.485L81.4873 95.9703L80.6362 95.0873L82.3004 92.0098C82.3004 92.0098 82.7758 92.1661 83.5698 92.4407C87.7729 93.9037 100.905 98.7401 98.7538 101.479Z" fill="black"/>
<path d="M98.516 101.006C95.9604 104.261 87.5209 102.012 87.5209 102.012L81.2495 95.4969L80.3984 94.6139L82.0626 91.5364C82.0626 91.5364 82.538 91.6926 83.3321 91.9672C87.5352 93.4302 100.667 98.2666 98.516 101.006Z" fill="#EFB7B9"/>
<path opacity="0.1" d="M83.3228 91.9672C82.9757 92.9615 82.0937 94.4339 81.2402 95.4969L80.3892 94.6139L82.0533 91.5364C82.0533 91.5364 82.5311 91.6926 83.3228 91.9672Z" fill="black"/>
<path d="M62.5593 55.1509C62.5593 55.1509 56.3188 57.5182 56.2594 64.1466C56.2452 68.418 56.4833 72.6865 56.9726 76.93C56.9726 76.93 55.1896 86.8135 60.2414 89.6542C65.2932 92.495 69.9884 94.8623 69.9884 94.8623C69.9884 94.8623 78.0594 96.1643 79.0508 96.5786C80.0421 96.9928 83.4868 91.6664 82.9519 90.7787C82.417 89.8909 75.0687 87.7012 74.1963 86.2216C73.3238 84.7421 71.1747 83.7454 71.1747 83.7454C71.1747 83.7454 68.9828 82.2564 68.8948 81.0136C68.8069 79.7708 69.4535 78.883 69.6366 78.3504C69.8196 77.8177 70.4829 72.6097 70.4829 72.6097C70.4829 72.6097 74.0299 54.1329 62.5593 55.1509Z" fill="#DCE6F2"/>
<path opacity="0.1" d="M65.4121 77.0959C65.4121 77.0959 56.9727 78.0428 57.6264 81.0019C57.6264 81.0019 60.8334 78.0168 65.4121 77.0959Z" fill="black"/>
<path opacity="0.1" d="M65.4121 78.2795C65.4121 78.2795 60.6218 81.7713 61.5014 82.008C62.381 82.2448 65.4121 78.2795 65.4121 78.2795Z" fill="black"/>
<path opacity="0.1" d="M67.5516 79.6999C67.5516 79.6999 66.1847 82.1477 66.9573 82.0198C67.7299 81.892 67.5516 79.6999 67.5516 79.6999Z" fill="black"/>
<path d="M155.422 26.606C155.422 26.606 146.388 26.0639 147.444 32.3751C147.444 32.3751 147.232 33.4901 148.247 33.9967C148.247 33.9967 148.264 33.5233 149.174 33.6866C149.499 33.7409 149.828 33.7568 150.156 33.7339C150.601 33.7044 151.023 33.5306 151.359 33.2392C151.359 33.2392 153.901 32.1952 154.889 28.0572C154.889 28.0572 155.622 27.1529 155.603 26.9209L154.076 27.5719C154.076 27.5719 154.597 28.6679 154.186 29.5793C154.186 29.5793 154.138 27.6121 153.843 27.6571C153.784 27.6571 153.052 28.0382 153.052 28.0382C153.052 28.0382 153.948 29.9463 153.271 31.3359C153.271 31.3359 153.527 28.9828 152.771 28.1755L151.697 28.8005C151.697 28.8005 152.745 30.7725 152.034 32.3822C152.034 32.3822 152.217 29.9131 151.471 28.952L150.496 29.7072C150.496 29.7072 151.483 31.6531 150.881 32.9882C150.881 32.9882 150.803 30.1143 150.285 29.8966C150.285 29.8966 149.434 30.6446 149.305 30.9524C149.305 30.9524 149.978 32.3727 149.56 33.109C149.56 33.109 149.303 31.1938 149.084 31.1844C149.084 31.1844 148.235 32.4532 148.147 33.3149C148.188 32.5116 148.44 31.733 148.877 31.0565C148.388 31.1487 147.937 31.3816 147.579 31.7265C147.579 31.7265 147.71 30.8293 149.086 30.7511C149.086 30.7511 149.8 29.7877 149.976 29.7285C149.976 29.7285 148.606 29.6148 147.777 29.9818C147.777 29.9818 148.506 29.1367 150.228 29.5083L151.178 28.7271C151.178 28.7271 149.376 28.4904 148.611 28.7532C148.611 28.7532 149.491 28.0051 151.438 28.5496L152.484 27.927C152.484 27.927 150.948 27.5955 150.033 27.7163C150.033 27.7163 150.998 27.1978 152.79 27.7589L153.539 27.4251C153.539 27.4251 152.412 27.2049 152.084 27.1694C151.756 27.1339 151.737 27.044 151.737 27.044C152.45 26.9258 153.182 27.0078 153.851 27.2807C153.851 27.2807 155.455 26.7054 155.422 26.606Z" fill="#003087"/>
<path opacity="0.1" d="M182.871 58.1717C182.871 58.1717 173.837 57.6296 174.892 63.9408C174.892 63.9408 174.681 65.0558 175.696 65.5624C175.696 65.5624 175.713 65.0889 176.625 65.2523C176.95 65.3066 177.279 65.3225 177.607 65.2996C178.047 65.2679 178.464 65.0951 178.796 64.8072C178.796 64.8072 181.34 63.7609 182.329 59.6228C182.329 59.6228 183.059 58.7209 183.03 58.4889L181.504 59.1375C181.504 59.1375 182.024 60.2336 181.615 61.145C181.615 61.145 181.566 59.1778 181.273 59.2228C181.214 59.2228 180.479 59.6039 180.479 59.6039C180.479 59.6039 181.378 61.5143 180.7 62.9015C180.7 62.9015 180.957 60.5485 180.199 59.7412L179.136 60.3591C179.136 60.3591 180.184 62.331 179.474 63.9408C179.474 63.9408 179.657 61.4717 178.91 60.5106L177.938 61.2681C177.938 61.2681 178.922 63.2117 178.323 64.5468C178.323 64.5468 178.244 61.6729 177.726 61.4551C177.726 61.4551 176.875 62.2032 176.744 62.5109C176.744 62.5109 177.42 63.9313 177.001 64.6676C177.001 64.6676 176.744 62.7524 176.526 62.7429C176.526 62.7429 175.677 64.0118 175.589 64.8735C175.631 64.0701 175.884 63.2916 176.321 62.6151C175.831 62.7075 175.379 62.9403 175.021 63.285C175.021 63.285 175.154 62.3878 176.53 62.3097C176.53 62.3097 177.232 61.3462 177.42 61.2871C177.42 61.2871 176.05 61.1734 175.22 61.5403C175.22 61.5403 175.95 60.6952 177.669 61.0787L178.62 60.2975C178.62 60.2975 176.816 60.0608 176.053 60.3236C176.053 60.3236 176.932 59.5755 178.879 60.12L179.925 59.4974C179.925 59.4974 178.387 59.1683 177.472 59.2867C177.472 59.2867 178.439 58.7682 180.232 59.3293L180.981 58.9955C180.981 58.9955 179.854 58.7753 179.523 58.7398C179.193 58.7043 179.176 58.6144 179.176 58.6144C179.89 58.4961 180.623 58.5781 181.292 58.8511C181.292 58.8511 182.899 58.2711 182.871 58.1717Z" fill="#003087"/>
<path opacity="0.1" d="M127.99 52.5682C127.99 52.5682 130.07 43.7879 123.642 43.7571C123.642 43.7571 122.575 43.3594 121.902 44.2685C121.902 44.2685 122.361 44.3655 122.049 45.232C121.941 45.5384 121.87 45.8561 121.835 46.1789C121.789 46.6189 121.888 47.0619 122.118 47.4407C122.118 47.4407 122.72 50.1157 126.635 51.7918C126.635 51.7918 127.405 52.6629 127.638 52.6724L127.258 51.065C127.258 51.065 126.084 51.3893 125.251 50.8283C125.251 50.8283 127.208 51.1147 127.21 50.8283C127.21 50.7691 126.973 49.9855 126.973 49.9855C126.973 49.9855 124.93 50.5395 123.671 49.6375C123.671 49.6375 125.955 50.2909 126.885 49.6872L126.457 48.5225C126.457 48.5225 124.317 49.2161 122.853 48.2432C122.853 48.2432 125.266 48.8445 126.345 48.2763L125.763 47.1921C125.763 47.1921 123.671 47.8265 122.451 47.0098C122.451 47.0098 125.304 47.4217 125.613 46.953C125.613 46.953 125.018 45.9895 124.736 45.8096C124.736 45.8096 123.224 46.231 122.558 45.6936C122.558 45.6936 124.495 45.767 124.541 45.5634C124.541 45.5634 123.43 44.5147 122.584 44.278C123.373 44.4568 124.101 44.837 124.698 45.3811C124.689 44.885 124.535 44.4021 124.255 43.9915C124.255 43.9915 125.121 44.2756 124.969 45.6486C124.969 45.6486 125.801 46.5008 125.827 46.695C125.827 46.695 126.171 45.3716 125.95 44.4934C125.95 44.4934 126.664 45.3551 125.991 46.9767L126.599 48.0538C126.599 48.0538 127.151 46.3257 127.011 45.5303C127.011 45.5303 127.603 46.5198 126.73 48.3379L127.17 49.4718C127.17 49.4718 127.757 48.0183 127.795 47.1045C127.795 47.1045 128.145 48.1414 127.282 49.8056L127.486 50.5963C127.486 50.5963 127.895 49.5286 127.985 49.2114C128.076 48.8942 128.168 48.8918 128.168 48.8918C128.165 49.612 127.96 50.317 127.576 50.9277C127.576 50.9277 127.888 52.5801 127.99 52.5682Z" fill="#003087"/>
<path opacity="0.1" d="M108.206 55.5605C108.206 55.5605 100.951 50.1559 98.357 56.0102C98.357 56.0102 97.5653 56.827 98.1335 57.8046C98.1335 57.8046 98.4045 57.4235 99.0844 58.0556C99.3252 58.2787 99.5918 58.4726 99.8784 58.6332C100.267 58.8485 100.715 58.9316 101.155 58.8699C101.155 58.8699 103.856 59.3884 106.965 56.4742C106.965 56.4742 108.075 56.1191 108.18 55.9108L106.542 55.6244C106.542 55.6244 106.371 56.8246 105.527 57.362C105.527 57.362 106.571 55.6907 106.3 55.5699C106.245 55.5439 105.427 55.4516 105.427 55.4516C105.427 55.4516 105.123 57.5395 103.792 58.3278C103.792 58.3278 105.306 56.5026 105.118 55.4137L103.875 55.3474C103.875 55.3474 103.663 57.5703 102.18 58.5267C102.18 58.5267 103.694 56.5642 103.606 55.3521L102.375 55.4516C102.375 55.4516 102.125 57.6129 100.886 58.3988C100.886 58.3988 102.406 55.9558 102.094 55.4918C102.094 55.4918 100.97 55.6504 100.691 55.8351C100.691 55.8351 100.475 57.3833 99.7144 57.7762C99.7144 57.7762 100.558 56.0363 100.387 55.9156C100.387 55.9156 98.9774 56.5097 98.4235 57.1868C98.9027 56.5385 99.5435 56.0261 100.283 55.7001C99.8227 55.5098 99.3171 55.4572 98.8277 55.5486C98.8277 55.5486 99.4315 54.8716 100.625 55.5605C100.625 55.5605 101.742 55.1414 101.932 55.1935C101.932 55.1935 100.851 54.3484 99.9545 54.2016C99.9545 54.2016 101.034 53.8939 102.258 55.1485L103.492 55.0231C103.492 55.0231 102.12 53.8394 101.333 53.6406C101.333 53.6406 102.482 53.4962 103.806 55.016L105.023 55.0704C105.023 55.0704 103.922 53.9531 103.093 53.5506C103.093 53.5506 104.184 53.6453 105.372 55.0965L106.183 55.2267C106.183 55.2267 105.363 54.4265 105.106 54.2182C104.849 54.0099 104.885 53.9223 104.885 53.9223C105.546 54.2139 106.114 54.6827 106.523 55.2764C106.523 55.2764 108.175 55.6575 108.206 55.5605Z" fill="#003087"/>
<path opacity="0.1" d="M132.362 5.34754C132.362 5.34754 125.106 -0.0593781 122.513 5.79732C122.513 5.79732 121.721 6.61404 122.289 7.59173C122.289 7.59173 122.56 7.2106 123.24 7.84267C123.482 8.06462 123.75 8.25768 124.037 8.41792C124.425 8.63338 124.873 8.71651 125.313 8.65465C125.313 8.65465 128.014 9.17309 131.123 6.25658C131.123 6.25658 132.234 5.90385 132.336 5.69316L130.698 5.41145C130.698 5.41145 130.529 6.61167 129.683 7.14905C129.683 7.14905 130.729 5.47774 130.458 5.35701C130.403 5.33096 129.585 5.23864 129.585 5.23864C129.585 5.23864 129.271 7.33133 127.94 8.11491C127.94 8.11491 129.452 6.28972 129.267 5.20076L128.023 5.13448C128.023 5.13448 127.809 7.35737 126.328 8.31139C126.328 8.31139 127.843 6.3489 127.755 5.13685L126.526 5.23627C126.526 5.23627 126.274 7.39998 125.035 8.18593C125.035 8.18593 126.557 5.74287 126.245 5.27888C126.245 5.27888 125.121 5.43749 124.842 5.62214C124.842 5.62214 124.626 7.17036 123.865 7.56333C123.865 7.56333 124.709 5.82336 124.538 5.70026C124.538 5.70026 123.128 6.29682 122.575 6.97387C123.053 6.32492 123.694 5.81231 124.434 5.48721C123.973 5.29547 123.466 5.24278 122.976 5.3357C122.976 5.3357 123.583 4.65865 124.776 5.34754C124.776 5.34754 125.893 4.92616 126.083 4.9806C126.083 4.9806 125.002 4.13548 124.106 3.98634C124.106 3.98634 125.182 3.68096 126.407 4.93326L127.641 4.80779C127.641 4.80779 126.271 3.62414 125.482 3.42292C125.482 3.42292 126.63 3.28088 127.957 4.80069L129.174 4.85277C129.174 4.85277 128.073 3.7354 127.241 3.33533C127.241 3.33533 128.335 3.43002 129.523 4.88118L130.332 5.01138C130.332 5.01138 129.509 4.2207 129.252 4.01711C128.996 3.81352 129.031 3.72357 129.031 3.72357C129.693 4.01488 130.26 4.48373 130.669 5.07766C130.669 5.07766 132.322 5.43749 132.362 5.34754Z" fill="#003087"/>
<path opacity="0.1" d="M160.087 12.1964C160.087 12.1964 157.186 3.64806 151.716 7.00726C151.716 7.00726 150.599 7.24399 150.511 8.35899C150.511 8.35899 150.951 8.19801 151.145 9.09759C151.218 9.41758 151.327 9.72817 151.471 10.0232C151.668 10.4202 151.988 10.7433 152.384 10.9441C152.384 10.9441 154.314 12.8971 158.537 12.2508C158.537 12.2508 159.652 12.587 159.856 12.471L158.667 11.3086C158.667 11.3086 157.845 12.2011 156.842 12.1656C156.842 12.1656 158.655 11.3797 158.506 11.1264C158.475 11.0766 157.854 10.5393 157.854 10.5393C157.854 10.5393 156.414 12.0851 154.868 11.9833C154.868 11.9833 157.153 11.3347 157.619 10.3262L156.635 9.57104C156.635 9.57104 155.194 11.2802 153.428 11.2282C153.428 11.2282 155.805 10.4683 156.406 9.41717L155.337 8.80404C155.337 8.80404 153.91 10.4446 152.432 10.3925C152.432 10.3925 155.075 9.23962 155.082 8.68094C155.082 8.68094 154.067 8.17671 153.732 8.17197C153.732 8.17197 152.672 9.32485 151.83 9.22069C151.83 9.22069 153.513 8.26193 153.442 8.06544C153.442 8.06544 151.944 7.76006 151.1 8.00626C151.864 7.74161 152.683 7.6804 153.478 7.82871C153.206 7.41183 152.819 7.08276 152.363 6.88179C152.363 6.88179 153.247 6.66637 153.839 7.90683C153.839 7.90683 154.999 8.19328 155.123 8.34242C155.123 8.34242 154.714 7.03803 154.06 6.40833C154.06 6.40833 155.123 6.7658 155.413 8.49629L156.502 9.08812C156.502 9.08812 156.052 7.33395 155.51 6.72082C155.51 6.72082 156.54 7.25109 156.763 9.25146L157.738 9.98295C157.738 9.98295 157.467 8.43948 157.01 7.63933C157.01 7.63933 157.857 8.33531 158.009 10.2031L158.601 10.7665C158.601 10.7665 158.382 9.64443 158.292 9.32721C158.201 9.01 158.275 8.98869 158.275 8.98869C158.653 9.6028 158.853 10.3091 158.853 11.0293C158.853 11.0293 160.003 12.2579 160.087 12.1964Z" fill="#003087"/>
<path opacity="0.1" d="M141.158 12.6177C141.158 12.6177 132.148 11.6187 132.892 17.9844C132.892 17.9844 132.624 19.0876 133.606 19.6415C133.606 19.6415 133.646 19.1681 134.556 19.3811C134.878 19.4501 135.207 19.4826 135.536 19.4782C135.98 19.4702 136.41 19.3181 136.76 19.045C136.76 19.045 139.354 18.1288 140.564 14.0452C140.564 14.0452 141.339 13.1812 141.322 12.9468L139.765 13.5197C139.765 13.5197 140.241 14.6394 139.765 15.5295C139.765 15.5295 139.815 13.5623 139.527 13.5931C139.468 13.5931 138.717 13.934 138.717 13.934C138.717 13.934 139.516 15.887 138.769 17.2482C138.769 17.2482 139.145 14.9093 138.429 14.0665L137.324 14.6347C137.324 14.6347 138.275 16.6587 137.478 18.2306C137.478 18.2306 137.787 15.7733 137.091 14.7767L136.08 15.4869C136.08 15.4869 136.965 17.4778 136.297 18.7822C136.297 18.7822 136.366 15.9083 135.859 15.6645C135.859 15.6645 134.97 16.3746 134.825 16.6682C134.825 16.6682 135.427 18.1122 134.972 18.8343C134.972 18.8343 134.813 16.9097 134.604 16.8907C134.604 16.8907 133.691 18.1146 133.558 18.9787C133.64 18.1776 133.932 17.412 134.404 16.7581C133.911 16.826 133.448 17.0358 133.073 17.3618C133.073 17.3618 133.249 16.4741 134.628 16.4646C134.628 16.4646 135.377 15.539 135.579 15.4893C135.579 15.4893 134.216 15.307 133.368 15.6313C133.368 15.6313 134.14 14.8217 135.838 15.2928L136.839 14.5613C136.839 14.5613 135.03 14.1967 134.264 14.4335C134.264 14.4335 135.182 13.7233 137.098 14.3743L138.175 13.8038C138.175 13.8038 136.656 13.3966 135.736 13.47C135.736 13.47 136.727 12.9965 138.489 13.6522L139.254 13.3563C139.254 13.3563 138.139 13.0794 137.811 13.0273C137.483 12.9752 137.471 12.8852 137.471 12.8852C138.19 12.8031 138.917 12.9211 139.573 13.2261C139.573 13.2261 141.175 12.7172 141.158 12.6177Z" fill="#003087"/>
<path opacity="0.1" d="M219.99 82.2568C219.99 82.2568 210.985 81.2578 211.729 87.6163C211.729 87.6163 211.461 88.7195 212.442 89.2734C212.442 89.2734 212.483 88.8 213.393 89.0106C213.715 89.0819 214.044 89.1145 214.373 89.1077C214.818 89.1009 215.248 88.9487 215.597 88.6745C215.597 88.6745 218.191 87.7583 219.389 83.6771C219.389 83.6771 220.164 82.8107 220.147 82.5787L218.59 83.1492C218.59 83.1492 219.066 84.2713 218.59 85.1614C218.59 85.1614 218.64 83.1918 218.352 83.225C218.293 83.225 217.542 83.5635 217.542 83.5635C217.542 83.5635 218.341 85.5165 217.594 86.8777C217.594 86.8777 217.97 84.5412 217.254 83.6961L216.149 84.2666C216.149 84.2666 217.1 86.2906 216.306 87.8625C216.306 87.8625 216.612 85.4053 215.916 84.4063L214.905 85.1164C214.905 85.1164 215.79 87.1073 215.122 88.4094C215.122 88.4094 215.191 85.5355 214.684 85.294C214.684 85.294 213.798 86.0042 213.65 86.2977C213.65 86.2977 214.254 87.7418 213.798 88.4638C213.798 88.4638 213.638 86.5392 213.429 86.5203C213.429 86.5203 212.516 87.7441 212.383 88.6082C212.465 87.8071 212.757 87.0415 213.229 86.3877C212.736 86.4544 212.273 86.6643 211.898 86.9913C211.898 86.9913 212.074 86.1012 213.453 86.0918C213.453 86.0918 214.204 85.1662 214.404 85.1188C214.404 85.1188 213.042 84.9342 212.193 85.2585C212.193 85.2585 212.965 84.4512 214.665 84.9223L215.664 84.1908C215.664 84.1908 213.876 83.8547 213.099 84.0867C213.099 84.0867 214.016 83.3765 215.932 84.0251L217.009 83.457C217.009 83.457 215.49 83.0498 214.57 83.1232C214.57 83.1232 215.562 82.6497 217.323 83.3055L218.089 83.0072C218.089 83.0072 216.974 82.7302 216.646 82.6805C216.318 82.6308 216.306 82.5385 216.306 82.5385C217.024 82.4549 217.752 82.5721 218.407 82.877C218.407 82.877 220.014 82.3585 219.99 82.2568Z" fill="#003087"/>
<path opacity="0.1" d="M233.757 90.6322C233.757 90.6322 224.752 89.6355 225.496 95.9917C225.496 95.9917 225.23 97.0949 226.209 97.6488C226.209 97.6488 226.249 97.1754 227.16 97.3884C227.481 97.458 227.809 97.4897 228.137 97.4831C228.58 97.4741 229.007 97.323 229.357 97.0523C229.357 97.0523 231.948 96.1361 233.146 92.0526C233.146 92.0526 233.923 91.1885 233.904 90.9541L232.347 91.5246C232.347 91.5246 232.823 92.6467 232.347 93.5368C232.347 93.5368 232.397 91.5696 232.11 91.6004C232.05 91.6004 231.299 91.9389 231.299 91.9389C231.299 91.9389 232.098 93.8919 231.351 95.2531C231.351 95.2531 231.727 92.9166 231.011 92.0739L229.906 92.642C229.906 92.642 230.857 94.666 230.063 96.2379C230.063 96.2379 230.369 93.7807 229.673 92.784L228.662 93.4942C228.662 93.4942 229.547 95.4851 228.881 96.7895C228.881 96.7895 228.948 93.9132 228.441 93.6718C228.441 93.6718 227.555 94.382 227.407 94.6755C227.407 94.6755 228.011 96.1196 227.555 96.8416C227.555 96.8416 227.395 94.917 227.186 94.898C227.186 94.898 226.273 96.1219 226.142 96.986C226.225 96.1853 226.516 95.4198 226.986 94.7655C226.493 94.8334 226.03 95.0432 225.655 95.3691C225.655 95.3691 225.833 94.479 227.212 94.4719C227.212 94.4719 227.961 93.5463 228.163 93.4966C228.163 93.4966 226.801 93.3143 225.952 93.6386C225.952 93.6386 226.725 92.829 228.425 93.3001L229.423 92.5686C229.423 92.5686 227.635 92.2325 226.858 92.4645C226.858 92.4645 227.776 91.7543 229.692 92.4053L230.769 91.8348C230.769 91.8348 229.25 91.4276 228.33 91.501C228.33 91.501 229.321 91.0275 231.083 91.6833L231.848 91.3873C231.848 91.3873 230.733 91.1104 230.407 91.0583C230.082 91.0062 230.065 90.9162 230.065 90.9162C230.784 90.8341 231.511 90.9521 232.167 91.2571C232.167 91.2571 233.781 90.734 233.757 90.6322Z" fill="#003087"/>
<path opacity="0.1" d="M203.192 20.084C203.192 20.084 195.936 14.6795 193.343 20.5338C193.343 20.5338 192.551 21.3505 193.119 22.3282C193.119 22.3282 193.39 21.9471 194.07 22.5792C194.311 22.8023 194.578 22.9962 194.864 23.1568C195.253 23.3719 195.701 23.455 196.141 23.3935C196.141 23.3935 198.842 23.9119 201.953 20.9978C201.953 20.9978 203.061 20.6427 203.166 20.4344L201.533 20.1408C201.533 20.1408 201.361 21.3411 200.518 21.8784C200.518 21.8784 201.561 20.2071 201.29 20.0864C201.235 20.0604 200.42 19.968 200.42 19.968C200.42 19.968 200.113 22.056 198.782 22.8443C198.782 22.8443 200.296 21.0191 200.109 19.9302L198.865 19.8639C198.865 19.8639 198.654 22.0868 197.17 23.0432C197.17 23.0432 198.687 21.0807 198.597 19.8686L197.365 19.968C197.365 19.968 197.127 22.1294 195.877 22.9153C195.877 22.9153 197.398 20.4723 197.085 20.0083C197.085 20.0083 195.96 20.1669 195.682 20.3515C195.682 20.3515 195.468 21.8997 194.707 22.2927C194.707 22.2927 195.549 20.5528 195.378 20.432C195.378 20.432 193.968 21.0262 193.414 21.7033C193.893 21.055 194.534 20.5426 195.273 20.2166C194.813 20.0263 194.308 19.9736 193.818 20.0651C193.818 20.0651 194.424 19.388 195.618 20.0769C195.618 20.0769 196.733 19.6579 196.923 19.71C196.923 19.71 195.841 18.8649 194.945 18.7181C194.945 18.7181 196.024 18.4104 197.249 19.665L198.483 19.5396C198.483 19.5396 197.113 18.3559 196.324 18.1571C196.324 18.1571 197.472 18.0126 198.796 19.5324L200.016 19.5869C200.016 19.5869 198.913 18.4695 198.083 18.0671C198.083 18.0671 199.177 18.1618 200.363 19.6129L201.174 19.7431C201.174 19.7431 200.353 18.943 200.097 18.7347C199.84 18.5263 199.878 18.4577 199.878 18.4577C200.538 18.7498 201.105 19.2185 201.514 19.8118C201.514 19.8118 203.161 20.1811 203.192 20.084Z" fill="#003087"/>
<path opacity="0.1" d="M208.798 59.1019C208.798 59.1019 206.297 50.4305 200.672 53.5435C200.672 53.5435 199.545 53.7163 199.405 54.8384C199.405 54.8384 199.852 54.6987 200.006 55.6054C200.064 55.9311 200.159 56.249 200.292 56.5523C200.468 56.9602 200.773 57.2995 201.162 57.5182C201.162 57.5182 203.002 59.554 207.248 59.0995C207.248 59.0995 208.346 59.483 208.555 59.3788L207.431 58.1621C207.431 58.1621 206.568 59.019 205.569 58.9385C205.569 58.9385 207.414 58.2283 207.271 57.975C207.243 57.923 206.648 57.3572 206.648 57.3572C206.648 57.3572 205.141 58.8391 203.601 58.6663C203.601 58.6663 205.914 58.1218 206.423 57.1418L205.472 56.3416C205.472 56.3416 203.955 57.9845 202.193 57.8567C202.193 57.8567 204.59 57.2009 205.251 56.1806L204.209 55.5202C204.209 55.5202 202.7 57.0944 201.235 56.976C201.235 56.976 203.929 55.9415 203.962 55.3852C203.962 55.3852 202.968 54.836 202.633 54.8171C202.633 54.8171 201.523 55.9202 200.679 55.7782C200.679 55.7782 202.405 54.8952 202.343 54.6963C202.343 54.6963 200.86 54.3247 200.006 54.5306C200.779 54.3024 201.599 54.2787 202.384 54.462C202.132 54.0336 201.76 53.688 201.314 53.4677C201.314 53.4677 202.208 53.2902 202.74 54.5567C202.74 54.5567 203.884 54.8928 204.003 55.0491C204.003 55.0491 203.653 53.7257 203.028 53.07C203.028 53.07 204.074 53.4724 204.285 55.2148L205.346 55.8563C205.346 55.8563 204.975 54.0808 204.461 53.4559C204.461 53.4559 205.465 54.0311 205.6 56.0386L206.551 56.8127C206.551 56.8127 206.349 55.2598 205.931 54.4454C205.931 54.4454 206.746 55.1793 206.812 57.0494L207.378 57.6413C207.378 57.6413 207.212 56.5097 207.141 56.1877C207.069 55.8658 207.141 55.8208 207.141 55.8208C207.492 56.4505 207.661 57.1653 207.628 57.8851C207.628 57.8851 208.712 59.1587 208.798 59.1019Z" fill="#003087"/>
<path opacity="0.1" d="M153.069 78.6416C153.069 78.6416 148.212 71.0237 143.702 75.5831C143.702 75.5831 142.67 76.0565 142.851 77.181C142.851 77.181 143.243 76.9206 143.647 77.7491C143.792 78.0428 143.973 78.3178 144.185 78.5682C144.468 78.91 144.856 79.1496 145.29 79.25C145.29 79.25 147.632 80.6893 151.578 79.0606C151.578 79.0606 152.741 79.1222 152.912 78.9636L151.485 78.1113C151.485 78.1113 150.898 79.1766 149.916 79.3778C149.916 79.3778 151.49 78.1942 151.278 77.9764C151.238 77.9338 150.506 77.5598 150.506 77.5598C150.506 77.5598 149.476 79.4015 147.95 79.669C147.95 79.669 150.016 78.4972 150.23 77.413L149.091 76.9135C149.091 76.9135 148.1 78.9139 146.374 79.2808C146.374 79.2808 148.49 77.9811 148.835 76.8164L147.646 76.4755C147.646 76.4755 146.643 78.4096 145.204 78.7055C145.204 78.7055 147.496 76.9585 147.37 76.414C147.37 76.414 146.262 76.1654 145.944 76.2412C145.944 76.2412 145.19 77.6118 144.339 77.7113C144.339 77.7113 145.746 76.3809 145.63 76.2057C145.63 76.2057 144.101 76.2649 143.341 76.7028C144.019 76.265 144.801 76.012 145.609 75.9689C145.247 75.6283 144.793 75.4003 144.303 75.3132C144.303 75.3132 145.109 74.8942 145.968 75.9595C145.968 75.9595 147.156 75.9595 147.32 76.0778C147.32 76.0778 146.607 74.8942 145.825 74.4515C145.825 74.4515 146.942 74.5462 147.636 76.1583L148.837 76.4755C148.837 76.4755 147.979 74.8776 147.311 74.4207C147.311 74.4207 148.435 74.6906 149.132 76.5821L150.254 77.0555C150.254 77.0555 149.621 75.6233 148.987 74.9534C148.987 74.9534 149.976 75.4268 150.568 77.2047L151.281 77.6142C151.281 77.6142 150.805 76.575 150.637 76.2885C150.468 76.0021 150.534 75.9358 150.534 75.9358C151.049 76.4418 151.412 77.0803 151.583 77.7799C151.583 77.7799 153.004 78.7221 153.069 78.6416Z" fill="#003087"/>
<path d="M184.989 39.7185C184.989 39.7185 180.369 31.9561 175.717 36.3735C175.717 36.3735 174.671 36.8233 174.818 37.9454C174.818 37.9454 175.215 37.6945 175.596 38.5349C175.732 38.8336 175.903 39.115 176.107 39.3729C176.38 39.722 176.761 39.9716 177.191 40.0831C177.191 40.0831 179.485 41.5934 183.481 40.0831C183.481 40.0831 184.642 40.1802 184.817 40.0263L183.422 39.1314C183.422 39.1314 182.804 40.1754 181.815 40.3482C181.815 40.3482 183.424 39.2048 183.222 38.9894C183.179 38.9444 182.462 38.5467 182.462 38.5467C182.462 38.5467 181.375 40.3577 179.846 40.5779C179.846 40.5779 181.948 39.47 182.193 38.3952L181.071 37.8697C181.071 37.8697 180.018 39.8416 178.28 40.1565C178.28 40.1565 180.436 38.9231 180.816 37.7702L179.642 37.3915C179.642 37.3915 178.577 39.2853 177.132 39.5457C177.132 39.5457 179.476 37.8697 179.366 37.3228C179.366 37.3228 178.268 37.0387 177.94 37.105C177.94 37.105 177.143 38.452 176.29 38.5254C176.29 38.5254 177.738 37.2423 177.628 37.0624C177.628 37.0624 176.097 37.0743 175.325 37.4885C176.017 37.0728 176.806 36.8443 177.614 36.8257C177.263 36.4738 176.816 36.2319 176.328 36.1297C176.328 36.1297 177.148 35.7344 177.992 36.8257C177.992 36.8257 179.181 36.8659 179.34 36.9867C179.34 36.9867 178.667 35.803 177.897 35.3153C177.897 35.3153 179.01 35.4432 179.654 37.0766L180.843 37.4317C180.843 37.4317 180.037 35.8077 179.381 35.3296C179.381 35.3296 180.498 35.6349 181.135 37.5454L182.24 38.0591C182.24 38.0591 181.653 36.6079 181.052 35.9285C181.052 35.9285 182.024 36.4327 182.564 38.2271L183.26 38.658C183.26 38.658 182.813 37.6045 182.656 37.3134C182.5 37.0222 182.566 36.9583 182.566 36.9583C183.064 37.4798 183.408 38.1289 183.557 38.8332C183.557 38.8332 184.92 39.7967 184.989 39.7185Z" fill="#003087"/>
<path d="M155.764 56.041C155.764 56.041 156.002 47.0216 149.709 48.2928C149.709 48.2928 148.582 48.12 148.107 49.1474C148.107 49.1474 148.582 49.1474 148.449 50.0588C148.406 50.3838 148.401 50.7128 148.435 51.0389C148.478 51.4812 148.666 51.8972 148.97 52.2225C148.97 52.2225 150.104 54.7177 154.29 55.5652C154.29 55.5652 155.22 56.2635 155.453 56.2257L154.74 54.7295C154.74 54.7295 153.658 55.2835 152.728 54.9071C152.728 54.9071 154.702 54.7911 154.647 54.5023C154.647 54.4431 154.238 53.7234 154.238 53.7234C154.238 53.7234 152.35 54.6822 150.936 54.0525C150.936 54.0525 153.313 54.23 154.091 53.4512L153.427 52.4025C153.427 52.4025 151.483 53.5104 149.842 52.857C149.842 52.857 152.327 52.9564 153.268 52.1823L152.476 51.2354C152.476 51.2354 150.558 52.2817 149.198 51.7278C149.198 51.7278 152.079 51.555 152.289 51.0318C152.289 51.0318 151.509 50.2103 151.195 50.0849C151.195 50.0849 149.802 50.7951 149.041 50.4116C149.041 50.4116 150.943 50.0943 150.955 49.8837C150.955 49.8837 149.655 49.0811 148.777 49.0219C149.586 49.0364 150.377 49.2616 151.071 49.6753C150.963 49.1915 150.715 48.7496 150.358 48.4041C150.358 48.4041 151.264 48.5059 151.388 49.8718C151.388 49.8718 152.379 50.5394 152.443 50.724C152.443 50.724 152.512 49.3581 152.115 48.5438C152.115 48.5438 152.99 49.2421 152.662 50.9655L153.477 51.8982C153.477 51.8982 153.663 50.0943 153.366 49.3439C153.366 49.3439 154.145 50.1938 153.665 52.1492L154.324 53.1695C154.324 53.1695 154.604 51.6284 154.454 50.7217C154.454 50.7217 155.006 51.6686 154.502 53.4701L154.863 54.204C154.863 54.204 155.046 53.0748 155.07 52.7457C155.094 52.4167 155.184 52.3954 155.184 52.3954C155.327 53.1015 155.271 53.8334 155.02 54.5094C155.02 54.5094 155.66 56.0718 155.764 56.041Z" fill="#003087"/>
<path opacity="0.1" d="M166.167 170.647C169.703 170.647 172.569 170.164 172.569 169.57C172.569 168.975 169.703 168.492 166.167 168.492C162.631 168.492 159.765 168.975 159.765 169.57C159.765 170.164 162.631 170.647 166.167 170.647Z" fill="#003087"/>
<path opacity="0.1" d="M142.829 187C146.365 187 149.231 186.518 149.231 185.923C149.231 185.328 146.365 184.846 142.829 184.846C139.294 184.846 136.427 185.328 136.427 185.923C136.427 186.518 139.294 187 142.829 187Z" fill="#003087"/>
<path opacity="0.1" d="M22.1424 178.622C25.6782 178.622 28.5445 178.14 28.5445 177.545C28.5445 176.95 25.6782 176.468 22.1424 176.468C18.6066 176.468 15.7402 176.95 15.7402 177.545C15.7402 178.14 18.6066 178.622 22.1424 178.622Z" fill="#003087"/>
<path opacity="0.1" d="M191.388 185.923C194.924 185.923 197.791 185.441 197.791 184.846C197.791 184.251 194.924 183.768 191.388 183.768C187.853 183.768 184.986 184.251 184.986 184.846C184.986 185.441 187.853 185.923 191.388 185.923Z" fill="#003087"/>
<path d="M198.054 172.789C203.334 172.789 207.614 172.069 207.614 171.179C207.614 170.29 203.334 169.57 198.054 169.57C192.775 169.57 188.495 170.29 188.495 171.179C188.495 172.069 192.775 172.789 198.054 172.789Z" fill="#003087"/>
<path d="M202.017 168.545C202.454 168.192 202.771 167.714 202.928 167.176C203.047 166.632 202.814 165.981 202.293 165.782C201.708 165.559 201.083 165.962 200.608 166.369C200.132 166.776 199.592 167.243 198.972 167.157C199.29 166.869 199.529 166.504 199.664 166.097C199.799 165.69 199.826 165.255 199.742 164.835C199.715 164.661 199.641 164.497 199.528 164.362C199.203 164.016 198.615 164.165 198.225 164.437C196.989 165.304 196.645 166.975 196.637 168.481C196.514 167.939 196.618 167.373 196.616 166.824C196.614 166.274 196.459 165.64 195.986 165.351C195.696 165.19 195.368 165.108 195.035 165.114C194.479 165.096 193.858 165.15 193.48 165.555C193.005 166.057 193.131 166.902 193.54 167.449C193.949 167.995 194.574 168.348 195.149 168.732C195.61 169.005 196.003 169.378 196.3 169.823C196.334 169.885 196.362 169.95 196.383 170.017H199.868C200.648 169.626 201.371 169.13 202.017 168.545Z" fill="#003087"/>
<path d="M17.8442 172.538C17.8442 172.538 21.4934 172.427 22.5989 171.646C23.7043 170.865 28.2165 169.934 28.4899 171.187C28.7633 172.439 33.9768 177.41 29.8545 177.443C25.7322 177.477 20.2762 176.804 19.1779 176.137C18.0796 175.469 17.8442 172.538 17.8442 172.538Z" fill="#A8A8A8"/>
<path opacity="0.2" d="M29.9234 177.008C25.8011 177.041 20.3452 176.368 19.2469 175.701C18.41 175.194 18.0772 173.374 17.9655 172.533H17.8442C17.8442 172.533 18.082 175.467 19.1732 176.132C20.2644 176.797 25.7274 177.472 29.8497 177.439C31.0384 177.439 31.4497 177.008 31.4283 176.383C31.2618 176.764 30.8078 177.001 29.9234 177.008Z" fill="black"/>
</g>
<defs>
<linearGradient id="paint0_linear_1_1781" x1="53.012" y1="102.603" x2="127.215" y2="102.603" gradientUnits="userSpaceOnUse">
<stop stop-color="#808080" stop-opacity="0.25"/>
<stop offset="0.54" stop-color="#808080" stop-opacity="0.12"/>
<stop offset="1" stop-color="#808080" stop-opacity="0.1"/>
</linearGradient>
<clipPath id="clip0_1_1781">
<rect width="240" height="187" fill="white"/>
</clipPath>
</defs>
</svg>
