<svg width="24" height="24" viewBox="0 0 24 24" fill="none" xmlns="http://www.w3.org/2000/svg">
<path d="M1 2.118C1.00009 1.94761 1.04372 1.78006 1.12674 1.63127C1.20977 1.48247 1.32944 1.35736 1.47439 1.2678C1.61935 1.17824 1.78479 1.12721 1.95501 1.11954C2.12522 1.11188 2.29458 1.14783 2.447 1.224L22.211 11.106C22.3769 11.1891 22.5164 11.3168 22.6138 11.4747C22.7113 11.6326 22.7629 11.8144 22.7629 12C22.7629 12.1855 22.7113 12.3674 22.6138 12.5253C22.5164 12.6832 22.3769 12.8109 22.211 12.894L2.447 22.776C2.29458 22.8522 2.12522 22.8881 1.95501 22.8804C1.78479 22.8728 1.61935 22.8217 1.47439 22.7322C1.32944 22.6426 1.20977 22.5175 1.12674 22.3687C1.04372 22.2199 1.00009 22.0524 1 21.882V2.118Z" stroke="white" stroke-linecap="round" stroke-linejoin="round"/>
</svg>
