<svg width="14" height="24" viewBox="0 0 14 24" fill="none" xmlns="http://www.w3.org/2000/svg">
<path d="M0.649054 24.0001C0.547694 23.9999 0.448781 23.9689 0.365426 23.9112C0.28207 23.8536 0.218211 23.7719 0.182312 23.6771C0.146413 23.5823 0.140171 23.4789 0.164413 23.3805C0.188655 23.2821 0.242236 23.1933 0.318054 23.1261L12.8931 12.0001L0.318054 0.875054C0.227121 0.785067 0.174057 0.663703 0.169742 0.535844C0.165427 0.407985 0.210188 0.28332 0.294847 0.187407C0.379506 0.0914939 0.497649 0.0316008 0.625054 0.0200071C0.752459 0.00841333 0.879473 0.0459974 0.980054 0.125054L13.5561 11.2511C13.6614 11.3451 13.7458 11.4603 13.8036 11.5891C13.8613 11.718 13.8912 11.8576 13.8913 11.9988C13.8914 12.1401 13.8617 12.2797 13.8041 12.4086C13.7465 12.5376 13.6623 12.6529 13.5571 12.7471L0.980054 23.8751C0.888643 23.9557 0.770935 24.0001 0.649054 24.0001Z" fill="#005AFE"/>
</svg>
