<svg width="24" height="24" viewBox="0 0 24 24" fill="none" xmlns="http://www.w3.org/2000/svg">
<path d="M23.5 23.9988C23.4343 23.9989 23.3692 23.9861 23.3085 23.961C23.2478 23.936 23.1926 23.8992 23.146 23.8528L12 12.7058L0.854034 23.8528C0.807612 23.8993 0.752488 23.9362 0.691809 23.9614C0.63113 23.9866 0.566085 23.9995 0.500388 23.9996C0.43469 23.9996 0.369627 23.9867 0.308913 23.9616C0.248198 23.9365 0.193022 23.8997 0.146534 23.8533C0.100046 23.8069 0.0631569 23.7518 0.0379727 23.6911C0.0127885 23.6304 -0.000197586 23.5654 -0.000244016 23.4997C-0.000290445 23.434 0.0126037 23.3689 0.0377021 23.3082C0.0628005 23.2475 0.0996118 23.1923 0.146034 23.1458L11.292 11.9998L0.147034 0.852813C0.0531474 0.759059 0.000349752 0.631849 0.000255984 0.499167C0.000162216 0.366485 0.05278 0.2392 0.146534 0.145313C0.240288 0.0514267 0.367499 -0.00137095 0.50018 -0.00146472C0.632862 -0.00155849 0.760147 0.0510593 0.854034 0.144813L12 11.2918L23.147 0.145813C23.1935 0.0993254 23.2486 0.0624362 23.3093 0.037252C23.3699 0.0120677 23.435 -0.000918306 23.5007 -0.000964737C23.5664 -0.00101117 23.6314 0.0118829 23.6922 0.0369814C23.7529 0.0620798 23.808 0.098891 23.8545 0.145313C23.901 0.191736 23.9379 0.24686 23.9631 0.307539C23.9883 0.368217 24.0013 0.433262 24.0013 0.49896C24.0014 0.564657 23.9885 0.629721 23.9634 0.690435C23.9383 0.751149 23.9015 0.806325 23.855 0.852813L12.707 11.9988L23.853 23.1448C23.9231 23.2147 23.9708 23.3038 23.9902 23.4008C24.0096 23.4978 23.9998 23.5984 23.962 23.6898C23.9242 23.7812 23.8601 23.8594 23.7779 23.9144C23.6957 23.9694 23.599 23.9988 23.5 23.9988Z" fill="#5B5C60"/>
</svg>
