<svg width="25" height="24" viewBox="0 0 25 24" fill="none" xmlns="http://www.w3.org/2000/svg">
<path d="M16.5 24C16.3674 24 16.2402 23.9473 16.1464 23.8536C16.0527 23.7598 16 23.6326 16 23.5V17.5C16 15.57 14.43 14 12.5 14C10.57 14 9 15.57 9 17.5V23.5C9 23.6326 8.94732 23.7598 8.85355 23.8536C8.75979 23.9473 8.63261 24 8.5 24H2C1.173 24 0.5 23.327 0.5 22.5V9.987C0.5 9.522 0.71 9.092 1.076 8.806L11.576 0.587997C11.839 0.381997 12.167 0.268997 12.5 0.268997C12.833 0.268997 13.161 0.381997 13.424 0.587997L23.924 8.806C24.29 9.092 24.5 9.522 24.5 9.986V22.5C24.5 23.327 23.827 24 23 24H16.5ZM23 23C23.1326 23 23.2598 22.9473 23.3536 22.8536C23.4473 22.7598 23.5 22.6326 23.5 22.5V9.987C23.5002 9.91117 23.4829 9.83632 23.4497 9.76819C23.4164 9.70006 23.3679 9.64047 23.308 9.594L12.808 1.376C12.7205 1.30625 12.612 1.26818 12.5002 1.268C12.3883 1.26782 12.2797 1.30554 12.192 1.375L1.692 9.593C1.63207 9.63968 1.5836 9.69945 1.55032 9.76774C1.51705 9.83603 1.49983 9.91103 1.5 9.987V22.5C1.5 22.6326 1.55268 22.7598 1.64645 22.8536C1.74021 22.9473 1.86739 23 2 23H8V17.5C8 15.019 10.019 13 12.5 13C14.981 13 17 15.019 17 17.5V23H23Z" fill="#005AFE"/>
</svg>
